<svg width="47" height="36" viewBox="0 0 47 36" fill="none" xmlns="http://www.w3.org/2000/svg">
<g clip-path="url(#clip0_0_527)">
<path d="M8.44246 35.9203V33.5309C8.44246 32.615 7.88495 32.0176 6.92919 32.0176C6.45132 32.0176 5.93362 32.1769 5.57521 32.6946C5.29645 32.2565 4.89822 32.0176 4.30087 32.0176C3.90264 32.0176 3.50442 32.1371 3.18583 32.5751V32.0973H2.34955V35.9203H3.18583V33.8096C3.18583 33.1326 3.54424 32.8141 4.10176 32.8141C4.65928 32.8141 4.93804 33.1725 4.93804 33.8096V35.9203H5.77433V33.8096C5.77433 33.1326 6.17255 32.8141 6.69025 32.8141C7.24778 32.8141 7.52654 33.1725 7.52654 33.8096V35.9203H8.44246ZM20.8274 32.0973H19.4734V30.9424H18.6372V32.0973H17.8805V32.8539H18.6372V34.6061C18.6372 35.4822 18.9956 35.9999 19.9513 35.9999C20.3097 35.9999 20.7079 35.8804 20.9867 35.7212L20.7478 35.0043C20.5088 35.1636 20.2301 35.2034 20.031 35.2034C19.6327 35.2034 19.4734 34.9645 19.4734 34.5663V32.8539H20.8274V32.0973ZM27.9159 32.0176C27.438 32.0176 27.1194 32.2566 26.9203 32.5751V32.0973H26.0841V35.9203H26.9203V33.7698C26.9203 33.1327 27.1991 32.7743 27.7168 32.7743C27.8761 32.7743 28.0752 32.8141 28.2345 32.8539L28.4734 32.0574C28.3141 32.0176 28.0752 32.0176 27.9159 32.0176ZM17.2035 32.4158C16.8053 32.1371 16.2478 32.0176 15.6504 32.0176C14.6947 32.0176 14.0575 32.4955 14.0575 33.2521C14.0575 33.8893 14.5354 34.2477 15.3717 34.3672L15.7699 34.407C16.2079 34.4866 16.4469 34.6061 16.4469 34.8052C16.4469 35.084 16.1283 35.2831 15.5708 35.2831C15.0133 35.2831 14.5752 35.084 14.2964 34.8849L13.8982 35.522C14.3363 35.8406 14.9336 35.9999 15.531 35.9999C16.646 35.9999 17.2832 35.4822 17.2832 34.7654C17.2832 34.0884 16.7655 33.73 15.969 33.6105L15.5708 33.5707C15.2124 33.5309 14.9336 33.4512 14.9336 33.2123C14.9336 32.9335 15.2124 32.7743 15.6504 32.7743C16.1283 32.7743 16.6062 32.9734 16.8451 33.0928L17.2035 32.4158ZM39.4248 32.0176C38.9469 32.0176 38.6283 32.2566 38.4292 32.5751V32.0973H37.5929V35.9203H38.4292V33.7698C38.4292 33.1327 38.708 32.7743 39.2257 32.7743C39.3849 32.7743 39.5841 32.8141 39.7433 32.8539L39.9823 32.0574C39.823 32.0176 39.5841 32.0176 39.4248 32.0176ZM28.7522 34.0088C28.7522 35.1636 29.5487 35.9999 30.7832 35.9999C31.3407 35.9999 31.7389 35.8804 32.1372 35.5619L31.7389 34.8849C31.4203 35.1238 31.1018 35.2433 30.7433 35.2433C30.0664 35.2433 29.5885 34.7654 29.5885 34.0088C29.5885 33.2919 30.0664 32.8141 30.7433 32.7743C31.1018 32.7743 31.4203 32.8937 31.7389 33.1327L32.1372 32.4557C31.7389 32.1371 31.3407 32.0176 30.7832 32.0176C29.5487 32.0176 28.7522 32.8539 28.7522 34.0088ZM36.4779 34.0088V32.0973H35.6416V32.5751C35.3628 32.2167 34.9646 32.0176 34.4469 32.0176C33.3717 32.0176 32.5354 32.8539 32.5354 34.0088C32.5354 35.1636 33.3717 35.9999 34.4469 35.9999C35.0044 35.9999 35.4026 35.8008 35.6416 35.4424V35.9203H36.4779V34.0088ZM33.4115 34.0088C33.4115 33.3318 33.8495 32.7743 34.5664 32.7743C35.2433 32.7743 35.7212 33.2919 35.7212 34.0088C35.7212 34.6857 35.2433 35.2433 34.5664 35.2433C33.8495 35.2034 33.4115 34.6857 33.4115 34.0088ZM23.4159 32.0176C22.3009 32.0176 21.5044 32.8141 21.5044 34.0088C21.5044 35.2034 22.3009 35.9999 23.4557 35.9999C24.0133 35.9999 24.5708 35.8406 25.0088 35.4822L24.6106 34.8849C24.292 35.1238 23.8938 35.2831 23.4956 35.2831C22.9779 35.2831 22.4602 35.0442 22.3407 34.3672H25.1681C25.1681 34.2477 25.1681 34.168 25.1681 34.0486C25.2079 32.8141 24.4911 32.0176 23.4159 32.0176ZM23.4159 32.7344C23.9336 32.7344 24.292 33.053 24.3717 33.6504H22.3805C22.4602 33.1327 22.8186 32.7344 23.4159 32.7344ZM44.1637 34.0088V30.584H43.3274V32.5751C43.0487 32.2167 42.6504 32.0176 42.1327 32.0176C41.0575 32.0176 40.2212 32.8539 40.2212 34.0088C40.2212 35.1636 41.0575 35.9999 42.1327 35.9999C42.6903 35.9999 43.0885 35.8008 43.3274 35.4424V35.9203H44.1637V34.0088ZM41.0973 34.0088C41.0973 33.3318 41.5354 32.7743 42.2522 32.7743C42.9292 32.7743 43.4071 33.2919 43.4071 34.0088C43.4071 34.6857 42.9292 35.2433 42.2522 35.2433C41.5354 35.2034 41.0973 34.6857 41.0973 34.0088ZM13.1416 34.0088V32.0973H12.3053V32.5751C12.0265 32.2167 11.6283 32.0176 11.1106 32.0176C10.0354 32.0176 9.1991 32.8539 9.1991 34.0088C9.1991 35.1636 10.0354 35.9999 11.1106 35.9999C11.6681 35.9999 12.0664 35.8008 12.3053 35.4424V35.9203H13.1416V34.0088ZM10.0354 34.0088C10.0354 33.3318 10.4734 32.7743 11.1902 32.7743C11.8672 32.7743 12.3451 33.2919 12.3451 34.0088C12.3451 34.6857 11.8672 35.2433 11.1902 35.2433C10.4734 35.2034 10.0354 34.6857 10.0354 34.0088Z" fill="black"/>
<path d="M29.4687 3.06641H16.9245V25.6062H29.4687V3.06641Z" fill="#FF5F00"/>
<path d="M17.7212 14.3363C17.7212 9.75664 19.8717 5.6947 23.177 3.06638C20.7478 1.15487 17.6814 0 14.3363 0C6.4115 0 0 6.41151 0 14.3363C0 22.2611 6.4115 28.6726 14.3363 28.6726C17.6814 28.6726 20.7478 27.5177 23.177 25.6062C19.8717 23.0177 17.7212 18.9159 17.7212 14.3363Z" fill="#EB001B"/>
<path d="M46.3939 14.3363C46.3939 22.2611 39.9824 28.6726 32.0576 28.6726C28.7125 28.6726 25.6461 27.5177 23.2169 25.6062C26.562 22.9779 28.6727 18.9159 28.6727 14.3363C28.6727 9.75664 26.5222 5.6947 23.2169 3.06638C25.6461 1.15487 28.7125 0 32.0576 0C39.9824 0 46.3939 6.45133 46.3939 14.3363Z" fill="#F79E1B"/>
</g>
<defs>
<clipPath id="clip0_0_527">
<rect width="46.3938" height="36" fill="white"/>
</clipPath>
</defs>
</svg>
