<svg width="58" height="19" viewBox="0 0 58 19" fill="none" xmlns="http://www.w3.org/2000/svg">
<path d="M23.705 0L20.7941 18.1146H25.4469L28.3561 0H23.705ZM37.7396 7.37887C36.1136 6.57594 35.1169 6.03403 35.1169 5.2128C35.1368 4.46613 35.9598 3.70116 37.7976 3.70116C39.3093 3.6632 40.4203 4.01844 41.2632 4.3719L41.6855 4.56036L42.318 0.770331C41.399 0.415084 39.9418 0.0236557 38.1419 0.0236557C33.5472 0.0236557 30.3118 2.41257 30.2917 5.82926C30.2538 8.35058 32.6081 9.7497 34.37 10.589C36.1699 11.45 36.7826 12.0082 36.7826 12.7732C36.7627 13.9477 35.3272 14.4896 33.9877 14.4896C32.1318 14.4896 31.1348 14.2105 29.6214 13.556L29.0087 13.2769L28.358 17.2156C29.451 17.7015 31.461 18.1291 33.5474 18.151C38.4304 18.151 41.6077 15.7982 41.6477 12.1569C41.6636 10.1594 40.4221 8.62949 37.7396 7.37887ZM54.2463 0.0560597H50.6465C49.5373 0.0560597 48.6944 0.375126 48.2141 1.51343L41.3028 18.1146H46.1858L47.5306 14.5204H52.9937L53.6915 18.1291H57.9982L54.2463 0.0560597ZM48.8848 10.8932C48.9791 10.9023 50.7591 5.02594 50.7591 5.02594L52.1765 10.8932C52.1765 10.8932 49.8039 10.8932 48.8848 10.8932ZM16.9063 0L12.3477 12.3072L11.8511 9.88011C11.0082 7.07968 8.36563 4.03653 5.4165 2.52489L9.5908 18.0965H14.5138L21.8292 0.00198686H16.9063V0Z" fill="#1A1E71"/>
<path d="M10.3206 2.33657C9.9654 0.95534 8.83246 0.0237858 7.29379 0.00390625H0.0743493L0 0.339074C5.63166 1.72746 10.3586 5.99956 11.8921 10.018L10.3206 2.33657Z" fill="#1A1E71"/>
</svg>
