<svg xmlns="http://www.w3.org/2000/svg" xmlns:xlink="http://www.w3.org/1999/xlink" viewBox="0 0 500 500" width="500" height="500" preserveAspectRatio="xMidYMid meet" style="width: 100%; height: 100%; transform: translate3d(0px, 0px, 0px); content-visibility: visible;"><defs><clipPath id="__lottie_element_128"><rect width="500" height="500" x="0" y="0"></rect></clipPath><g id="__lottie_element_137"><g transform="matrix(1,0,0,1,250,250)" opacity="1" style="display: block;"><path fill="rgb(255,0,0)" fill-opacity="1" d=" M0,-86.10600280761719 C-23.58099937438965,-86.10600280761719 -42.696998596191406,-105.22200012207031 -42.696998596191406,-128.80299377441406 C-42.696998596191406,-128.80299377441406 -42.696998596191406,-171.5 -42.696998596191406,-171.5 C-42.696998596191406,-171.5 42.696998596191406,-171.5 42.696998596191406,-171.5 C42.696998596191406,-171.5 42.696998596191406,-128.80299377441406 42.696998596191406,-128.80299377441406 C42.696998596191406,-105.22200012207031 23.58099937438965,-86.10600280761719 0,-86.10600280761719z M21.349000930786133,-43.409000396728516 C21.349000930786133,-43.409000396728516 -21.349000930786133,-43.409000396728516 -21.349000930786133,-43.409000396728516 C-21.349000930786133,-43.409000396728516 -42.696998596191406,0 -42.696998596191406,0 C-42.696998596191406,0 42.696998596191406,0 42.696998596191406,0 C42.696998596191406,0 21.349000930786133,-43.409000396728516 21.349000930786133,-43.409000396728516z M0,-43.409000396728516 C0,-43.409000396728516 0,-86.10600280761719 0,-86.10600280761719"></path><g opacity="1" transform="matrix(1,0,0,1,0,0)"><path stroke-linecap="round" stroke-linejoin="round" fill-opacity="0" stroke="rgb(0,135,204)" stroke-opacity="1" stroke-width="16" d=" M0,-86.10600280761719 C-23.58099937438965,-86.10600280761719 -42.696998596191406,-105.22200012207031 -42.696998596191406,-128.80299377441406 C-42.696998596191406,-128.80299377441406 -42.696998596191406,-171.5 -42.696998596191406,-171.5 C-42.696998596191406,-171.5 42.696998596191406,-171.5 42.696998596191406,-171.5 C42.696998596191406,-171.5 42.696998596191406,-128.80299377441406 42.696998596191406,-128.80299377441406 C42.696998596191406,-105.22200012207031 23.58099937438965,-86.10600280761719 0,-86.10600280761719z"></path></g><g opacity="1" transform="matrix(1,0,0,1,0,0)"><path stroke-linecap="round" stroke-linejoin="round" fill-opacity="0" stroke="rgb(0,135,204)" stroke-opacity="1" stroke-width="16" d=" M21.349000930786133,-43.409000396728516 C21.349000930786133,-43.409000396728516 -21.349000930786133,-43.409000396728516 -21.349000930786133,-43.409000396728516 C-21.349000930786133,-43.409000396728516 -42.696998596191406,0 -42.696998596191406,0 C-42.696998596191406,0 42.696998596191406,0 42.696998596191406,0 C42.696998596191406,0 21.349000930786133,-43.409000396728516 21.349000930786133,-43.409000396728516z"></path></g><g opacity="1" transform="matrix(1,0,0,1,0,0)"><path stroke-linecap="round" stroke-linejoin="round" fill-opacity="0" stroke="rgb(0,135,204)" stroke-opacity="1" stroke-width="16" d=" M0,-43.409000396728516 C0,-43.409000396728516 0,-86.10600280761719 0,-86.10600280761719"></path></g></g></g><g id="__lottie_element_143"><g style="display: none;"><path></path><g><path stroke-linecap="round" stroke-linejoin="round" fill-opacity="0"></path></g><g><path stroke-linecap="round" stroke-linejoin="round" fill-opacity="0"></path></g><g><path stroke-linecap="round" stroke-linejoin="round" fill-opacity="0"></path></g></g></g><filter id="__lottie_element_161" filterUnits="objectBoundingBox" x="0%" y="0%" width="100%" height="100%"><feComponentTransfer in="SourceGraphic"><feFuncA type="table" tableValues="1.0 0.0"></feFuncA></feComponentTransfer></filter><mask id="__lottie_element_143_2" mask-type="alpha"><g filter="url(#__lottie_element_161)"><rect width="500" height="500" x="0" y="0" fill="#ffffff" opacity="0"></rect><use xlink:href="#__lottie_element_143"></use></g></mask><filter id="__lottie_element_162" filterUnits="objectBoundingBox" x="0%" y="0%" width="100%" height="100%"><feComponentTransfer in="SourceGraphic"><feFuncA type="table" tableValues="1.0 0.0"></feFuncA></feComponentTransfer></filter><mask id="__lottie_element_137_2" mask-type="alpha"><g filter="url(#__lottie_element_162)"><rect width="500" height="500" x="0" y="0" fill="#ffffff" opacity="0"></rect><use xlink:href="#__lottie_element_137"></use></g></mask></defs><g clip-path="url(#__lottie_element_128)"><g mask="url(#__lottie_element_137_2)" style="display: block;"><g transform="matrix(1,0,0,1,250,250)" opacity="1"><g opacity="1" transform="matrix(1,0,0,1,0,0)"><path stroke-linecap="round" stroke-linejoin="round" fill-opacity="0" stroke="rgb(0,135,204)" stroke-opacity="1" stroke-width="16" d=" M-42.696998596191406,-171.5 C-42.696998596191406,-171.5 -85.39399719238281,-171.5 -85.39399719238281,-171.5 C-85.39399719238281,-171.5 -85.39399719238281,-150.1510009765625 -85.39399719238281,-150.1510009765625 C-85.39399719238281,-126.56999969482422 -66.27799987792969,-107.4540023803711 -42.696998596191406,-107.4540023803711 C-42.696998596191406,-107.4540023803711 -36.98500061035156,-107.4540023803711 -36.98500061035156,-107.4540023803711"></path></g><g opacity="1" transform="matrix(1,0,0,1,-62,-111)"><path stroke-linecap="butt" stroke-linejoin="miter" fill-opacity="0" stroke-miterlimit="4" stroke="rgb(51,204,204)" stroke-opacity="0" stroke-width="16" d=" M144,-143 C144,-143 144,143 144,143 C144,143 -144,143 -144,143 C-144,143 -144,-143 -144,-143 C-144,-143 144,-143 144,-143z"></path></g></g></g><g mask="url(#__lottie_element_143_2)" style="display: block;"><g transform="matrix(1,0,0,1,250,250)" opacity="1"><g opacity="1" transform="matrix(1,0,0,1,18,-109)"><path stroke-linecap="butt" stroke-linejoin="miter" fill-opacity="0" stroke-miterlimit="4" stroke="rgb(51,204,204)" stroke-opacity="0" stroke-width="16" d=" M144,-143 C144,-143 144,143 144,143 C144,143 -144,143 -144,143 C-144,143 -144,-143 -144,-143 C-144,-143 144,-143 144,-143z"></path></g><g opacity="1" transform="matrix(1,0,0,1,0,0)"><path stroke-linecap="round" stroke-linejoin="round" fill-opacity="0" stroke="rgb(0,135,204)" stroke-opacity="1" stroke-width="16" d=" M36.98500061035156,-107.4540023803711 C36.98500061035156,-107.4540023803711 42.696998596191406,-107.4540023803711 42.696998596191406,-107.4540023803711 C66.27799987792969,-107.4540023803711 85.39399719238281,-126.56999969482422 85.39399719238281,-150.1510009765625 C85.39399719238281,-150.1510009765625 85.39399719238281,-171.5 85.39399719238281,-171.5 C85.39399719238281,-171.5 42.696998596191406,-171.5 42.696998596191406,-171.5"></path></g></g></g><g transform="matrix(1,0,0,1,250,250)" opacity="1" style="display: block;"><g opacity="1" transform="matrix(1,0,0,1,0,0)"><path stroke-linecap="round" stroke-linejoin="round" fill-opacity="0" stroke="rgb(0,135,204)" stroke-opacity="1" stroke-width="16" d=" M0,-86.10600280761719 C-23.58099937438965,-86.10600280761719 -42.696998596191406,-105.22200012207031 -42.696998596191406,-128.80299377441406 C-42.696998596191406,-128.80299377441406 -42.696998596191406,-171.5 -42.696998596191406,-171.5 C-42.696998596191406,-171.5 42.696998596191406,-171.5 42.696998596191406,-171.5 C42.696998596191406,-171.5 42.696998596191406,-128.80299377441406 42.696998596191406,-128.80299377441406 C42.696998596191406,-105.22200012207031 23.58099937438965,-86.10600280761719 0,-86.10600280761719z"></path></g><g opacity="1" transform="matrix(1,0,0,1,0,0)"><path stroke-linecap="round" stroke-linejoin="round" fill-opacity="0" stroke="rgb(0,135,204)" stroke-opacity="1" stroke-width="16" d=" M21.349000930786133,-43.409000396728516 C21.349000930786133,-43.409000396728516 -21.349000930786133,-43.409000396728516 -21.349000930786133,-43.409000396728516 C-21.349000930786133,-43.409000396728516 -42.696998596191406,0 -42.696998596191406,0 C-42.696998596191406,0 42.696998596191406,0 42.696998596191406,0 C42.696998596191406,0 21.349000930786133,-43.409000396728516 21.349000930786133,-43.409000396728516z"></path></g><g opacity="1" transform="matrix(1,0,0,1,0,0)"><path stroke-linecap="round" stroke-linejoin="round" fill-opacity="0" stroke="rgb(0,135,204)" stroke-opacity="1" stroke-width="16" d=" M0,-43.409000396728516 C0,-43.409000396728516 0,-86.10600280761719 0,-86.10600280761719"></path></g></g><g transform="matrix(1,0,0,1,250,250)" opacity="1" style="display: block;"><g opacity="1" transform="matrix(1,0,0,1,0,0)"><path stroke-linecap="round" stroke-linejoin="round" fill-opacity="0" stroke="rgb(120,130,145)" stroke-opacity="1" stroke-width="16" d=" M64.0459976196289,42.696998596191406 C64.0459976196289,42.696998596191406 -64.0459976196289,42.696998596191406 -64.0459976196289,42.696998596191406 C-64.0459976196289,42.696998596191406 -64.0459976196289,171.5 -64.0459976196289,171.5 C-64.0459976196289,171.5 64.0459976196289,171.5 64.0459976196289,171.5 C64.0459976196289,171.5 64.0459976196289,42.696998596191406 64.0459976196289,42.696998596191406z"></path></g><g opacity="1" transform="matrix(1,0,0,1,0,0)"><path stroke-linecap="round" stroke-linejoin="round" fill-opacity="0" stroke="rgb(120,130,145)" stroke-opacity="1" stroke-width="16" d=" M64.0459976196289,171.5 C64.0459976196289,171.5 171.5,171.5 171.5,171.5 C171.5,171.5 171.5,106.74299621582031 171.5,106.74299621582031 C171.5,106.74299621582031 64.0459976196289,106.74299621582031 64.0459976196289,106.74299621582031"></path></g><g opacity="1" transform="matrix(1,0,0,1,0,0)"><path stroke-linecap="round" stroke-linejoin="round" fill-opacity="0" stroke="rgb(120,130,145)" stroke-opacity="1" stroke-width="16" d=" M-64.0459976196289,85.39399719238281 C-64.0459976196289,85.39399719238281 -171.5,85.39399719238281 -171.5,85.39399719238281 C-171.5,85.39399719238281 -171.5,171.5 -171.5,171.5 C-171.5,171.5 -64.0459976196289,171.5 -64.0459976196289,171.5"></path></g><g opacity="1" transform="matrix(1,0,0,1,0,0)"><path stroke-linecap="round" stroke-linejoin="round" fill-opacity="0" stroke="rgb(0,135,204)" stroke-opacity="1" stroke-width="16" d=" M0,128.09100341796875 C0,128.09100341796875 0,85.39399719238281 0,85.39399719238281"></path></g></g><g transform="matrix(1,0,0,1,261,202)" opacity="1" style="display: block;"><g opacity="1" transform="matrix(1,0,0,1,0,0)"><path stroke-linecap="round" stroke-linejoin="round" fill-opacity="0" stroke="rgb(0,135,204)" stroke-opacity="1" stroke-width="16" d="M0 0"></path></g></g><g transform="matrix(0.9517712593078613,-0.3068085014820099,0.3068085014820099,0.9517712593078613,203,263)" opacity="1" style="display: block;"><g opacity="1" transform="matrix(1,0,0,1,0,0)"><path stroke-linecap="round" stroke-linejoin="round" fill-opacity="0" stroke="rgb(120,130,145)" stroke-opacity="1" stroke-width="16" d="M0 0"></path></g></g><g transform="matrix(1,0,0,1,246,214)" opacity="1" style="display: block;"><g opacity="1" transform="matrix(1,0,0,1,0,0)"><path stroke-linecap="round" stroke-linejoin="round" fill-opacity="0" stroke="rgb(120,130,145)" stroke-opacity="1" stroke-width="16" d="M0 0"></path></g></g><g transform="matrix(0.9814569354057312,-0.19168268144130707,0.19168268144130707,0.9814569354057312,250,199)" opacity="1" style="display: block;"><g opacity="1" transform="matrix(1,0,0,1,0,0)"><path stroke-linecap="round" stroke-linejoin="round" fill-opacity="0" stroke="rgb(0,135,204)" stroke-opacity="1" stroke-width="16" d="M0 0"></path></g></g></g></svg>