<svg xmlns="http://www.w3.org/2000/svg" xmlns:xlink="http://www.w3.org/1999/xlink" viewBox="0 0 500 500" width="500" height="500" preserveAspectRatio="xMidYMid meet" style="width: 100%; height: 100%; transform: translate3d(0px, 0px, 0px); content-visibility: visible;"><defs><clipPath id="__lottie_element_214"><rect width="500" height="500" x="0" y="0"></rect></clipPath><g id="__lottie_element_232"><g transform="matrix(1,0,0,1,250,250)" opacity="1" style="display: block;"><path fill="rgb(255,0,0)" fill-opacity="1" d=" M181.41799926757812,64.79199981689453 C181.41799926757812,64.79199981689453 129.5850067138672,64.79199981689453 129.5850067138672,64.79199981689453 C129.5850067138672,64.79199981689453 129.5850067138672,-25.91699981689453 129.5850067138672,-25.91699981689453 C129.5850067138672,-25.91699981689453 181.41799926757812,-25.91699981689453 181.41799926757812,-25.91699981689453 C181.41799926757812,-25.91699981689453 181.41799926757812,64.79199981689453 181.41799926757812,64.79199981689453z"></path><g opacity="1" transform="matrix(1,0,0,1,0,0)"><path stroke-linecap="round" stroke-linejoin="round" fill-opacity="0" stroke="rgb(120,130,145)" stroke-opacity="1" stroke-width="16" d=" M181.41799926757812,64.79199981689453 C181.41799926757812,64.79199981689453 129.5850067138672,64.79199981689453 129.5850067138672,64.79199981689453 C129.5850067138672,64.79199981689453 129.5850067138672,-25.91699981689453 129.5850067138672,-25.91699981689453 C129.5850067138672,-25.91699981689453 181.41799926757812,-25.91699981689453 181.41799926757812,-25.91699981689453 C181.41799926757812,-25.91699981689453 181.41799926757812,64.79199981689453 181.41799926757812,64.79199981689453z"></path></g></g></g><g id="__lottie_element_238"><g transform="matrix(1,0,0,1,250,250)" opacity="1" style="display: block;"><path fill="rgb(255,0,0)" fill-opacity="1" d=" M77.7509994506836,142.54299926757812 C77.7509994506836,142.54299926757812 25.91699981689453,142.54299926757812 25.91699981689453,142.54299926757812 C25.91699981689453,142.54299926757812 25.91699981689453,51.83399963378906 25.91699981689453,51.83399963378906 C25.91699981689453,51.83399963378906 77.7509994506836,51.83399963378906 77.7509994506836,51.83399963378906 C77.7509994506836,51.83399963378906 77.7509994506836,142.54299926757812 77.7509994506836,142.54299926757812z"></path><g opacity="1" transform="matrix(1,0,0,1,0,0)"><path stroke-linecap="round" stroke-linejoin="round" fill-opacity="0" stroke="rgb(0,135,204)" stroke-opacity="1" stroke-width="16" d=" M77.7509994506836,142.54299926757812 C77.7509994506836,142.54299926757812 25.91699981689453,142.54299926757812 25.91699981689453,142.54299926757812 C25.91699981689453,142.54299926757812 25.91699981689453,51.83399963378906 25.91699981689453,51.83399963378906 C25.91699981689453,51.83399963378906 77.7509994506836,51.83399963378906 77.7509994506836,51.83399963378906 C77.7509994506836,51.83399963378906 77.7509994506836,142.54299926757812 77.7509994506836,142.54299926757812z"></path></g></g></g><g id="__lottie_element_244"><g transform="matrix(1,0,0,1,250,250)" opacity="1" style="display: block;"><path fill="rgb(255,0,0)" fill-opacity="1" d=" M-25.91699981689453,103.66799926757812 C-25.91699981689453,103.66799926757812 -77.7509994506836,103.66799926757812 -77.7509994506836,103.66799926757812 C-77.7509994506836,103.66799926757812 -77.7509994506836,12.958000183105469 -77.7509994506836,12.958000183105469 C-77.7509994506836,12.958000183105469 -25.91699981689453,12.958000183105469 -25.91699981689453,12.958000183105469 C-25.91699981689453,12.958000183105469 -25.91699981689453,103.66799926757812 -25.91699981689453,103.66799926757812z"></path><g opacity="1" transform="matrix(1,0,0,1,0,0)"><path stroke-linecap="round" stroke-linejoin="round" fill-opacity="0" stroke="rgb(120,130,145)" stroke-opacity="1" stroke-width="16" d=" M-25.91699981689453,103.66799926757812 C-25.91699981689453,103.66799926757812 -77.7509994506836,103.66799926757812 -77.7509994506836,103.66799926757812 C-77.7509994506836,103.66799926757812 -77.7509994506836,12.958000183105469 -77.7509994506836,12.958000183105469 C-77.7509994506836,12.958000183105469 -25.91699981689453,12.958000183105469 -25.91699981689453,12.958000183105469 C-25.91699981689453,12.958000183105469 -25.91699981689453,103.66799926757812 -25.91699981689453,103.66799926757812z"></path></g></g></g><g id="__lottie_element_250"><g transform="matrix(1,0,0,1,250,250)" opacity="1" style="display: block;"><path fill="rgb(255,0,0)" fill-opacity="1" d=" M-129.5850067138672,142.54299926757812 C-129.5850067138672,142.54299926757812 -181.41799926757812,142.54299926757812 -181.41799926757812,142.54299926757812 C-181.41799926757812,142.54299926757812 -181.41799926757812,51.83399963378906 -181.41799926757812,51.83399963378906 C-181.41799926757812,51.83399963378906 -129.5850067138672,51.83399963378906 -129.5850067138672,51.83399963378906 C-129.5850067138672,51.83399963378906 -129.5850067138672,142.54299926757812 -129.5850067138672,142.54299926757812z"></path><g opacity="1" transform="matrix(1,0,0,1,0,0)"><path stroke-linecap="round" stroke-linejoin="round" fill-opacity="0" stroke="rgb(0,135,204)" stroke-opacity="1" stroke-width="16" d=" M-129.5850067138672,142.54299926757812 C-129.5850067138672,142.54299926757812 -181.41799926757812,142.54299926757812 -181.41799926757812,142.54299926757812 C-181.41799926757812,142.54299926757812 -181.41799926757812,51.83399963378906 -181.41799926757812,51.83399963378906 C-181.41799926757812,51.83399963378906 -129.5850067138672,51.83399963378906 -129.5850067138672,51.83399963378906 C-129.5850067138672,51.83399963378906 -129.5850067138672,142.54299926757812 -129.5850067138672,142.54299926757812z"></path></g></g></g><filter id="__lottie_element_256" filterUnits="objectBoundingBox" x="0%" y="0%" width="100%" height="100%"><feComponentTransfer in="SourceGraphic"><feFuncA type="table" tableValues="1.0 0.0"></feFuncA></feComponentTransfer></filter><mask id="__lottie_element_250_2" mask-type="alpha"><g filter="url(#__lottie_element_256)"><rect width="500" height="500" x="0" y="0" fill="#ffffff" opacity="0"></rect><use xlink:href="#__lottie_element_250"></use></g></mask><filter id="__lottie_element_257" filterUnits="objectBoundingBox" x="0%" y="0%" width="100%" height="100%"><feComponentTransfer in="SourceGraphic"><feFuncA type="table" tableValues="1.0 0.0"></feFuncA></feComponentTransfer></filter><mask id="__lottie_element_244_2" mask-type="alpha"><g filter="url(#__lottie_element_257)"><rect width="500" height="500" x="0" y="0" fill="#ffffff" opacity="0"></rect><use xlink:href="#__lottie_element_244"></use></g></mask><filter id="__lottie_element_258" filterUnits="objectBoundingBox" x="0%" y="0%" width="100%" height="100%"><feComponentTransfer in="SourceGraphic"><feFuncA type="table" tableValues="1.0 0.0"></feFuncA></feComponentTransfer></filter><mask id="__lottie_element_238_2" mask-type="alpha"><g filter="url(#__lottie_element_258)"><rect width="500" height="500" x="0" y="0" fill="#ffffff" opacity="0"></rect><use xlink:href="#__lottie_element_238"></use></g></mask><filter id="__lottie_element_259" filterUnits="objectBoundingBox" x="0%" y="0%" width="100%" height="100%"><feComponentTransfer in="SourceGraphic"><feFuncA type="table" tableValues="1.0 0.0"></feFuncA></feComponentTransfer></filter><mask id="__lottie_element_232_2" mask-type="alpha"><g filter="url(#__lottie_element_259)"><rect width="500" height="500" x="0" y="0" fill="#ffffff" opacity="0"></rect><use xlink:href="#__lottie_element_232"></use></g></mask></defs><g clip-path="url(#__lottie_element_214)"><g transform="matrix(1,0,0,1,250,250)" opacity="1" style="display: block;"><g opacity="1" transform="matrix(1,0,0,1,0,0)"><path stroke-linecap="round" stroke-linejoin="round" fill-opacity="0" stroke="rgb(120,130,145)" stroke-opacity="1" stroke-width="16" d=" M181.41799926757812,64.79199981689453 C181.41799926757812,64.79199981689453 129.5850067138672,64.79199981689453 129.5850067138672,64.79199981689453 C129.5850067138672,64.79199981689453 129.5850067138672,-25.91699981689453 129.5850067138672,-25.91699981689453 C129.5850067138672,-25.91699981689453 181.41799926757812,-25.91699981689453 181.41799926757812,-25.91699981689453 C181.41799926757812,-25.91699981689453 181.41799926757812,64.79199981689453 181.41799926757812,64.79199981689453z"></path></g></g><g transform="matrix(1,0,0,1,250,250)" opacity="1" style="display: block;"><g opacity="1" transform="matrix(1,0,0,1,0,0)"><path stroke-linecap="round" stroke-linejoin="round" fill-opacity="0" stroke="rgb(0,135,204)" stroke-opacity="1" stroke-width="16" d=" M77.7509994506836,142.54299926757812 C77.7509994506836,142.54299926757812 25.91699981689453,142.54299926757812 25.91699981689453,142.54299926757812 C25.91699981689453,142.54299926757812 25.91699981689453,51.83399963378906 25.91699981689453,51.83399963378906 C25.91699981689453,51.83399963378906 77.7509994506836,51.83399963378906 77.7509994506836,51.83399963378906 C77.7509994506836,51.83399963378906 77.7509994506836,142.54299926757812 77.7509994506836,142.54299926757812z"></path></g></g><g transform="matrix(1,0,0,1,250,250)" opacity="1" style="display: block;"><g opacity="1" transform="matrix(1,0,0,1,0,0)"><path stroke-linecap="round" stroke-linejoin="round" fill-opacity="0" stroke="rgb(120,130,145)" stroke-opacity="1" stroke-width="16" d=" M-25.91699981689453,103.66799926757812 C-25.91699981689453,103.66799926757812 -77.7509994506836,103.66799926757812 -77.7509994506836,103.66799926757812 C-77.7509994506836,103.66799926757812 -77.7509994506836,12.958000183105469 -77.7509994506836,12.958000183105469 C-77.7509994506836,12.958000183105469 -25.91699981689453,12.958000183105469 -25.91699981689453,12.958000183105469 C-25.91699981689453,12.958000183105469 -25.91699981689453,103.66799926757812 -25.91699981689453,103.66799926757812z"></path></g></g><g transform="matrix(1,0,0,1,250,250)" opacity="1" style="display: block;"><g opacity="1" transform="matrix(1,0,0,1,0,0)"><path stroke-linecap="round" stroke-linejoin="round" fill-opacity="0" stroke="rgb(0,135,204)" stroke-opacity="1" stroke-width="16" d=" M-129.5850067138672,142.54299926757812 C-129.5850067138672,142.54299926757812 -181.41799926757812,142.54299926757812 -181.41799926757812,142.54299926757812 C-181.41799926757812,142.54299926757812 -181.41799926757812,51.83399963378906 -181.41799926757812,51.83399963378906 C-181.41799926757812,51.83399963378906 -129.5850067138672,51.83399963378906 -129.5850067138672,51.83399963378906 C-129.5850067138672,51.83399963378906 -129.5850067138672,142.54299926757812 -129.5850067138672,142.54299926757812z"></path></g></g><g mask="url(#__lottie_element_232_2)" style="display: block;"><g transform="matrix(1,0,0,1,250,250)" opacity="1"><g opacity="1" transform="matrix(1,0,0,1,0,0)"><path stroke-linecap="round" stroke-linejoin="round" fill-opacity="0" stroke="rgb(120,130,145)" stroke-opacity="1" stroke-width="16" d=" M155.50100708007812,-51.83399963378906 C155.50100708007812,-51.83399963378906 155.0030059814453,90.08300018310547 155.0030059814453,90.08300018310547"></path></g><g opacity="1" transform="matrix(1,0,0,1,0,0)"><path stroke-linecap="round" stroke-linejoin="round" fill-opacity="0" stroke="rgb(120,130,145)" stroke-opacity="1" stroke-width="16" d="M0 0"></path></g><g opacity="1" transform="matrix(1,0,0,1,156,19)"><path stroke-linecap="butt" stroke-linejoin="miter" fill-opacity="0" stroke-miterlimit="4" stroke="rgb(120,130,145)" stroke-opacity="0" stroke-width="16" d=" M45,-94 C45,-94 45,94 45,94 C45,94 -45,94 -45,94 C-45,94 -45,-94 -45,-94 C-45,-94 45,-94 45,-94z"></path></g></g></g><g mask="url(#__lottie_element_238_2)" style="display: block;"><g transform="matrix(1,0,0,1,250,250)" opacity="1"><g opacity="1" transform="matrix(1,0,0,1,0,0)"><path stroke-linecap="round" stroke-linejoin="round" fill-opacity="0" stroke="rgb(120,130,145)" stroke-opacity="1" stroke-width="16" d=" M51.83399963378906,25.91699981689453 C51.83399963378906,25.91699981689453 51.667999267578125,166.83399963378906 51.667999267578125,166.83399963378906"></path></g><g opacity="1" transform="matrix(1,0,0,1,0,0)"><path stroke-linecap="round" stroke-linejoin="round" fill-opacity="0" stroke="rgb(120,130,145)" stroke-opacity="1" stroke-width="16" d="M0 0"></path></g><g opacity="1" transform="matrix(1,0,0,1,52,95.5)"><path stroke-linecap="butt" stroke-linejoin="miter" fill-opacity="0" stroke-miterlimit="4" stroke="rgb(120,130,145)" stroke-opacity="0" stroke-width="16" d=" M46,-88.5 C46,-88.5 46,88.5 46,88.5 C46,88.5 -46,88.5 -46,88.5 C-46,88.5 -46,-88.5 -46,-88.5 C-46,-88.5 46,-88.5 46,-88.5z"></path></g></g></g><g mask="url(#__lottie_element_244_2)" style="display: block;"><g transform="matrix(1,0,0,1,250,250)" opacity="1"><g opacity="1" transform="matrix(1,0,0,1,0,0)"><path stroke-linecap="round" stroke-linejoin="round" fill-opacity="0" stroke="rgb(120,130,145)" stroke-opacity="1" stroke-width="16" d="M0 0"></path></g><g opacity="1" transform="matrix(1,0,0,1,0,0)"><path stroke-linecap="round" stroke-linejoin="round" fill-opacity="0" stroke="rgb(120,130,145)" stroke-opacity="1" stroke-width="16" d=" M-51.667999267578125,-12.331999778747559 C-51.667999267578125,-12.331999778747559 -51.83399963378906,129.5850067138672 -51.83399963378906,129.5850067138672"></path></g><g opacity="1" transform="matrix(1,0,0,1,-52,57.5)"><path stroke-linecap="butt" stroke-linejoin="miter" fill-opacity="0" stroke-miterlimit="4" stroke="rgb(120,130,145)" stroke-opacity="0" stroke-width="16" d=" M42,-90.5 C42,-90.5 42,90.5 42,90.5 C42,90.5 -42,90.5 -42,90.5 C-42,90.5 -42,-90.5 -42,-90.5 C-42,-90.5 42,-90.5 42,-90.5z"></path></g></g></g><g mask="url(#__lottie_element_250_2)" style="display: block;"><g transform="matrix(1,0,0,1,250,250)" opacity="1"><g opacity="1" transform="matrix(1,0,0,1,0,0)"><path stroke-linecap="round" stroke-linejoin="round" fill-opacity="0" stroke="rgb(120,130,145)" stroke-opacity="1" stroke-width="16" d=" M-155.50100708007812,25.91699981689453 C-155.50100708007812,25.91699981689453 -155.0030059814453,168.83399963378906 -155.0030059814453,168.83399963378906"></path></g><g opacity="1" transform="matrix(1,0,0,1,0,0)"><path stroke-linecap="round" stroke-linejoin="round" fill-opacity="0" stroke="rgb(120,130,145)" stroke-opacity="1" stroke-width="16" d="M0 0"></path></g><g opacity="1" transform="matrix(1,0,0,1,-157.5,90.5)"><path stroke-linecap="butt" stroke-linejoin="miter" fill-opacity="0" stroke-miterlimit="4" stroke="rgb(120,130,145)" stroke-opacity="0" stroke-width="16" d=" M38.5,-98.5 C38.5,-98.5 38.5,98.5 38.5,98.5 C38.5,98.5 -38.5,98.5 -38.5,98.5 C-38.5,98.5 -38.5,-98.5 -38.5,-98.5 C-38.5,-98.5 38.5,-98.5 38.5,-98.5z"></path></g></g></g><g transform="matrix(1,0,0,1,250,250)" opacity="1" style="display: block;"><g opacity="1" transform="matrix(1,0,0,1,0,0)"><path stroke-linecap="round" stroke-linejoin="round" fill-opacity="0" stroke="rgb(120,130,145)" stroke-opacity="1" stroke-width="16" d=" M181.41799926757812,-142.54299926757812 C181.41799926757812,-142.54299926757812 195.18699645996094,-142.54299926757812 195.18699645996094,-142.54299926757812"></path></g><g opacity="1" transform="matrix(1,0,0,1,0,0)"><path stroke-linecap="butt" stroke-linejoin="round" fill-opacity="0" stroke="rgb(120,130,145)" stroke-opacity="1" stroke-width="16" d=" M72.56700134277344,-80.34300231933594 C72.56700134277344,-80.34300231933594 134.76699829101562,-126.99199676513672 134.76699829101562,-126.99199676513672"></path></g><g opacity="1" transform="matrix(1,0,0,1,0,0)"><path stroke-linecap="butt" stroke-linejoin="round" fill-opacity="0" stroke="rgb(120,130,145)" stroke-opacity="1" stroke-width="16" d=" M-27.56399917602539,-94.56700134277344 C-27.56399917602539,-94.56700134277344 27.562000274658203,-73.89399719238281 27.562000274658203,-73.89399719238281"></path></g><g opacity="1" transform="matrix(1,0,0,1,0,0)"><path stroke-linecap="butt" stroke-linejoin="round" fill-opacity="0" stroke="rgb(120,130,145)" stroke-opacity="1" stroke-width="16" d=" M-131.23199462890625,-73.89299774169922 C-131.23199462890625,-73.89299774169922 -76.10299682617188,-94.56700134277344 -76.10299682617188,-94.56700134277344"></path></g><g opacity="1" transform="matrix(1,0,0,1,0,0)"><path stroke-linecap="round" stroke-linejoin="round" fill-opacity="0" stroke="rgb(120,130,145)" stroke-opacity="1" stroke-width="16" d=" M-195.18699645996094,-64.79199981689453 C-195.18699645996094,-64.79199981689453 -181.41799926757812,-64.79199981689453 -181.41799926757812,-64.79199981689453"></path></g><g opacity="1" transform="matrix(1,0,0,1,0,0)"><path stroke-linecap="round" stroke-linejoin="round" fill-opacity="0" stroke="rgb(120,130,145)" stroke-opacity="1" stroke-width="16" d=" M-129.5850067138672,-64.79199981689453 C-129.5850067138672,-50.479000091552734 -141.18800354003906,-38.875 -155.50100708007812,-38.875 C-169.81500244140625,-38.875 -181.41799926757812,-50.479000091552734 -181.41799926757812,-64.79199981689453 C-181.41799926757812,-79.1050033569336 -169.81500244140625,-90.70899963378906 -155.50100708007812,-90.70899963378906 C-141.18800354003906,-90.70899963378906 -129.5850067138672,-79.1050033569336 -129.5850067138672,-64.79199981689453z"></path></g><g opacity="1" transform="matrix(1,0,0,1,0,0)"><path stroke-linecap="round" stroke-linejoin="round" fill-opacity="0" stroke="rgb(0,135,204)" stroke-opacity="1" stroke-width="16" d=" M-25.91699981689453,-103.66799926757812 C-25.91699981689453,-89.3550033569336 -37.520999908447266,-77.7509994506836 -51.83399963378906,-77.7509994506836 C-66.14800262451172,-77.7509994506836 -77.7509994506836,-89.3550033569336 -77.7509994506836,-103.66799926757812 C-77.7509994506836,-117.98100280761719 -66.14800262451172,-129.5850067138672 -51.83399963378906,-129.5850067138672 C-37.520999908447266,-129.5850067138672 -25.91699981689453,-117.98100280761719 -25.91699981689453,-103.66799926757812z"></path></g><g opacity="1" transform="matrix(1,0,0,1,0,0)"><path stroke-linecap="round" stroke-linejoin="round" fill-opacity="0" stroke="rgb(120,130,145)" stroke-opacity="1" stroke-width="16" d=" M77.7509994506836,-64.79199981689453 C77.7509994506836,-50.479000091552734 66.14800262451172,-38.875 51.83399963378906,-38.875 C37.520999908447266,-38.875 25.91699981689453,-50.479000091552734 25.91699981689453,-64.79199981689453 C25.91699981689453,-79.1050033569336 37.520999908447266,-90.70899963378906 51.83399963378906,-90.70899963378906 C66.14800262451172,-90.70899963378906 77.7509994506836,-79.1050033569336 77.7509994506836,-64.79199981689453z"></path></g><g opacity="1" transform="matrix(1,0,0,1,0,0)"><path stroke-linecap="round" stroke-linejoin="round" fill-opacity="0" stroke="rgb(0,135,204)" stroke-opacity="1" stroke-width="16" d=" M181.41799926757812,-142.54299926757812 C181.41799926757812,-128.22900390625 169.81500244140625,-116.6259994506836 155.50100708007812,-116.6259994506836 C141.18800354003906,-116.6259994506836 129.5850067138672,-128.22900390625 129.5850067138672,-142.54299926757812 C129.5850067138672,-156.8560028076172 141.18800354003906,-168.4600067138672 155.50100708007812,-168.4600067138672 C169.81500244140625,-168.4600067138672 181.41799926757812,-156.8560028076172 181.41799926757812,-142.54299926757812z"></path></g></g></g></svg>