<svg xmlns="http://www.w3.org/2000/svg" xmlns:xlink="http://www.w3.org/1999/xlink" viewBox="0 0 500 500" width="500" height="500" preserveAspectRatio="xMidYMid meet" style="width: 100%; height: 100%; transform: translate3d(0px, 0px, 0px); content-visibility: visible;"><defs><clipPath id="__lottie_element_93"><rect width="500" height="500" x="0" y="0"></rect></clipPath><g id="__lottie_element_100"><g transform="matrix(1,0,0,1,639,248)" opacity="1" style="display: block;"><g opacity="1" transform="matrix(1,0,0,1,0,0)"><path fill="rgb(255,0,0)" fill-opacity="1" d=" M-144,-177 C-144,-177 -194,-177 -194,-177 C-194,-177 -194,13 -194,13 C-194,13 -144,15 -144,15 C-144,15 -144,-177 -144,-177z"></path><path stroke-linecap="round" stroke-linejoin="miter" fill-opacity="0" stroke-miterlimit="4" stroke="rgb(0,135,204)" stroke-opacity="1" stroke-width="16" d=" M-144,-177 C-144,-177 -194,-177 -194,-177 C-194,-177 -194,13 -194,13 C-194,13 -144,15 -144,15 C-144,15 -144,-177 -144,-177z"></path></g></g></g><g id="__lottie_element_105"><g transform="matrix(1,0,0,1,249,248)" opacity="1" style="display: block;"><g opacity="1" transform="matrix(1,0,0,1,0,0)"><path fill="rgb(255,0,0)" fill-opacity="1" d=" M-194,-177 C-194,-177 -270,-177 -270,-177 C-270,-177 -270,16 -270,16 C-270,16 -194,13 -194,13 C-194,13 -194,-177 -194,-177z"></path><path stroke-linecap="round" stroke-linejoin="miter" fill-opacity="0" stroke-miterlimit="4" stroke="rgb(0,135,204)" stroke-opacity="1" stroke-width="16" d=" M-194,-177 C-194,-177 -270,-177 -270,-177 C-270,-177 -270,16 -270,16 C-270,16 -194,13 -194,13 C-194,13 -194,-177 -194,-177z"></path></g></g></g><filter id="__lottie_element_126" filterUnits="objectBoundingBox" x="0%" y="0%" width="100%" height="100%"><feComponentTransfer in="SourceGraphic"><feFuncA type="table" tableValues="1.0 0.0"></feFuncA></feComponentTransfer></filter><mask id="__lottie_element_105_2" mask-type="alpha"><g filter="url(#__lottie_element_126)"><rect width="500" height="500" x="0" y="0" fill="#ffffff" opacity="0"></rect><use xlink:href="#__lottie_element_105"></use></g></mask><filter id="__lottie_element_127" filterUnits="objectBoundingBox" x="0%" y="0%" width="100%" height="100%"><feComponentTransfer in="SourceGraphic"><feFuncA type="table" tableValues="1.0 0.0"></feFuncA></feComponentTransfer></filter><mask id="__lottie_element_100_2" mask-type="alpha"><g filter="url(#__lottie_element_127)"><rect width="500" height="500" x="0" y="0" fill="#ffffff" opacity="0"></rect><use xlink:href="#__lottie_element_100"></use></g></mask></defs><g clip-path="url(#__lottie_element_93)"><g mask="url(#__lottie_element_105_2)" style="display: block;"><g transform="matrix(1,0,0,1,250,250)" opacity="1"><g opacity="1" transform="matrix(1,0,0,1,0,0)"><path stroke-linecap="round" stroke-linejoin="round" fill-opacity="0" stroke="rgb(120,130,145)" stroke-opacity="1" stroke-width="16" d=" M1.1399999856948853,137.7570037841797 C1.1399999856948853,137.7570037841797 24.707000732421875,160.8300018310547 24.707000732421875,160.8300018310547 C34.77799987792969,170.89999389648438 51.255001068115234,170.89999389648438 61.32500076293945,160.8300018310547 C71.39399719238281,150.76100158691406 71.3949966430664,134.2830047607422 61.32400131225586,124.21299743652344 C61.32400131225586,124.21299743652344 63.808998107910156,126.697998046875 63.808998107910156,126.697998046875 C73.87799835205078,136.76800537109375 90.35600280761719,136.76800537109375 100.4260025024414,126.697998046875 C110.49600219726562,116.62799835205078 110.49500274658203,100.1520004272461 100.42400360107422,90.08100128173828 C100.42400360107422,90.08100128173828 100.4260025024414,90.08200073242188 100.4260025024414,90.08200073242188 C110.49600219726562,100.1520004272461 126.9729995727539,100.1520004272461 137.04200744628906,90.08300018310547 C147.11300659179688,80.01300048828125 147.11199951171875,63.5359992980957 137.04200744628906,53.46500015258789 C137.04200744628906,53.46500015258789 137.04299926757812,53.46500015258789 137.04299926757812,53.46500015258789 C147.1540069580078,63.57600021362305 163.54800415039062,63.57600021362305 173.65899658203125,53.46500015258789 C183.77099609375,43.354000091552734 183.77099609375,26.959999084472656 173.65899658203125,16.847999572753906 C173.65899658203125,16.847999572753906 51.784000396728516,-103.70500183105469 51.784000396728516,-103.70500183105469"></path></g><g opacity="1" transform="matrix(1,0,0,1,0,0)"><path stroke-linecap="round" stroke-linejoin="round" fill-opacity="0" stroke="rgb(120,130,145)" stroke-opacity="1" stroke-width="16" d=" M1.3919999599456787,-160.25399780273438 C-6.394000053405762,-165.03700256347656 -16.489999771118164,-168.3820037841797 -24.32699966430664,-168.3820037841797 C-24.32699966430664,-168.3820037841797 -225.9980010986328,-168.4409942626953 -225.9980010986328,-168.4409942626953 C-225.9980010986328,-168.4409942626953 -225.9980010986328,-0.11800000071525574 -225.9980010986328,-0.11800000071525574 C-225.9980010986328,-0.11800000071525574 -153.9770050048828,-0.05900000035762787 -153.9770050048828,-0.05900000035762787"></path></g></g></g><g mask="url(#__lottie_element_100_2)" style="display: block;"><g transform="matrix(1,0,0,1,250,250)" opacity="1"><g opacity="1" transform="matrix(1,0,0,1,0,0)"><path stroke-linecap="round" stroke-linejoin="round" fill-opacity="0" stroke="rgb(120,130,145)" stroke-opacity="1" stroke-width="16" d=" M158.04800415039062,-0.05900000035762787 C158.04800415039062,-0.05900000035762787 222.9980010986328,-0.11800000071525574 222.9980010986328,-0.11800000071525574 C222.9980010986328,-0.11800000071525574 222.9980010986328,-168.4409942626953 222.9980010986328,-168.4409942626953 C222.9980010986328,-168.4409942626953 27.104000091552734,-168.3820037841797 27.104000091552734,-168.3820037841797 C16.423999786376953,-168.3820037841797 1.5440000295639038,-162.16700744628906 -5.964000225067139,-154.56900024414062 C-5.964000225067139,-154.56900024414062 -65.88999938964844,-94.64299774169922 -65.88999938964844,-94.64299774169922 C-65.88999938964844,-94.64299774169922 -52.159000396728516,-80.91100311279297 -52.159000396728516,-80.91100311279297 C-39.52000045776367,-68.27200317382812 -19.027999877929688,-68.27200317382812 -6.388000011444092,-80.91100311279297 C-6.388000011444092,-80.91100311279297 16.260000228881836,-103.70500183105469 16.260000228881836,-103.70500183105469 C16.260000228881836,-103.70500183105469 51.33700180053711,-103.70500183105469 51.33700180053711,-103.70500183105469"></path></g></g></g><g transform="matrix(1,0,0,1,249,248)" opacity="1" style="display: block;"><g opacity="1" transform="matrix(1,0,0,1,0,0)"><path fill="rgb(255,0,0)" fill-opacity="1" d=" M-194,-177 C-194,-177 -194,13 -194,13"></path><path stroke-linecap="round" stroke-linejoin="miter" fill-opacity="0" stroke-miterlimit="4" stroke="rgb(0,135,204)" stroke-opacity="1" stroke-width="16" d=" M-194,-177 C-194,-177 -194,13 -194,13"></path></g></g><g transform="matrix(1,0,0,1,639,248)" opacity="1" style="display: block;"><g opacity="1" transform="matrix(1,0,0,1,0,0)"><path fill="rgb(255,0,0)" fill-opacity="1" d=" M-194,-177 C-194,-177 -194,13 -194,13"></path><path stroke-linecap="round" stroke-linejoin="miter" fill-opacity="0" stroke-miterlimit="4" stroke="rgb(0,135,204)" stroke-opacity="1" stroke-width="16" d=" M-194,-177 C-194,-177 -194,13 -194,13"></path></g></g><g transform="matrix(1,0,0,1,250,250)" opacity="1" style="display: block;"><g opacity="1" transform="matrix(1,0,0,1,0,0)"><path stroke-linecap="round" stroke-linejoin="round" fill-opacity="0" stroke="rgb(120,130,145)" stroke-opacity="1" stroke-width="16" d=" M-129.15499877929688,-24.878999710083008 C-119.08499908447266,-34.948001861572266 -102.60800170898438,-34.94900131225586 -92.53800201416016,-24.878999710083008 C-92.53800201416016,-24.878999710083008 -92.53800201416016,-24.878999710083008 -92.53800201416016,-24.878999710083008 C-82.46900177001953,-14.809000015258789 -82.47000122070312,1.6690000295639038 -92.53800201416016,11.73799991607666 C-92.53800201416016,11.73799991607666 -134.26499938964844,53.46500015258789 -134.26499938964844,53.46500015258789 C-144.3350067138672,63.534000396728516 -160.81199645996094,63.534000396728516 -170.8820037841797,53.4640007019043 C-170.8820037841797,53.4640007019043 -170.8820037841797,53.4640007019043 -170.8820037841797,53.4640007019043 C-180.95199584960938,43.39400100708008 -180.95199584960938,26.91699981689453 -170.8820037841797,16.847999572753906 C-170.8820037841797,16.847999572753906 -129.15499877929688,-24.878999710083008 -129.15499877929688,-24.878999710083008z"></path></g></g><g transform="matrix(1,0,0,1,250,250)" opacity="1" style="display: block;"><g opacity="1" transform="matrix(1,0,0,1,0,0)"><path stroke-linecap="round" stroke-linejoin="round" fill-opacity="0" stroke="rgb(120,130,145)" stroke-opacity="1" stroke-width="16" d=" M-92.53800201416016,11.73799991607666 C-82.47000122070312,1.6690000295639038 -65.99199676513672,1.6690000295639038 -55.92300033569336,11.73799991607666 C-55.92300033569336,11.73799991607666 -55.92300033569336,11.73799991607666 -55.92300033569336,11.73799991607666 C-45.85200119018555,21.808000564575195 -45.85200119018555,38.2859992980957 -55.92300033569336,48.35499954223633 C-55.92300033569336,48.35499954223633 -97.64900207519531,90.08100128173828 -97.64900207519531,90.08100128173828 C-107.71800231933594,100.1510009765625 -124.19499969482422,100.1510009765625 -134.26400756835938,90.08100128173828 C-134.26400756835938,90.08100128173828 -134.26400756835938,90.08100128173828 -134.26400756835938,90.08100128173828 C-144.3350067138672,80.01200103759766 -144.3350067138672,63.534000396728516 -134.26499938964844,53.46500015258789 C-134.26499938964844,53.46500015258789 -92.53800201416016,11.73799991607666 -92.53800201416016,11.73799991607666z"></path></g></g><g transform="matrix(1,0,0,1,250,250)" opacity="1" style="display: block;"><g opacity="1" transform="matrix(1,0,0,1,0,0)"><path stroke-linecap="round" stroke-linejoin="round" fill-opacity="0" stroke="rgb(120,130,145)" stroke-opacity="1" stroke-width="16" d=" M-55.92300033569336,48.35499954223633 C-45.85200119018555,38.2859992980957 -29.374000549316406,38.28499984741211 -19.30500030517578,48.35499954223633 C-19.30500030517578,48.35499954223633 -19.30500030517578,48.35499954223633 -19.30500030517578,48.35499954223633 C-9.234999656677246,58.42499923706055 -9.234999656677246,74.9020004272461 -19.30500030517578,84.97100067138672 C-19.30500030517578,84.97100067138672 -60.459999084472656,126.1259994506836 -60.459999084472656,126.1259994506836 C-70.52899932861328,136.19500732421875 -87.00599670410156,136.1959991455078 -97.07599639892578,126.1259994506836 C-97.07599639892578,126.1259994506836 -97.07599639892578,126.1259994506836 -97.07599639892578,126.1259994506836 C-107.14600372314453,116.05599975585938 -107.14600372314453,99.5780029296875 -97.07599639892578,89.50900268554688 C-97.07599639892578,89.50900268554688 -55.92300033569336,48.35499954223633 -55.92300033569336,48.35499954223633z"></path></g></g><g transform="matrix(1,0,0,1,250,250)" opacity="1" style="display: block;"><g opacity="1" transform="matrix(1,0,0,1,0,0)"><path stroke-linecap="round" stroke-linejoin="round" fill-opacity="0" stroke="rgb(120,130,145)" stroke-opacity="1" stroke-width="16" d=" M-19.30500030517578,84.97100067138672 C-9.234999656677246,74.9020004272461 7.242000102996826,74.9010009765625 17.312000274658203,84.97100067138672 C17.312000274658203,84.97100067138672 17.312000274658203,84.97100067138672 17.312000274658203,84.97100067138672 C27.381999969482422,95.04100036621094 27.381999969482422,111.51899719238281 17.312000274658203,121.58799743652344 C17.312000274658203,121.58799743652344 -21.774999618530273,160.67300415039062 -21.774999618530273,160.67300415039062 C-31.836999893188477,170.73699951171875 -48.316001892089844,170.74899291992188 -58.39099884033203,160.67300415039062 C-58.39099884033203,160.67300415039062 -58.39099884033203,160.67300415039062 -58.39099884033203,160.67300415039062 C-68.46099853515625,150.60400390625 -68.46099853515625,134.12600708007812 -58.39099884033203,124.05699920654297 C-58.39099884033203,124.05699920654297 -19.30500030517578,84.97100067138672 -19.30500030517578,84.97100067138672z"></path></g></g></g></svg>