<svg width="100" height="96" viewBox="0 0 100 96" fill="none" xmlns="http://www.w3.org/2000/svg">
<g clip-path="url(#clip0_288_476)">
<mask id="mask0_288_476" style="mask-type:luminance" maskUnits="userSpaceOnUse" x="0" y="0" width="100" height="96">
<path d="M100 0H0V95.9533H100V0Z" fill="white"/>
</mask>
<g mask="url(#mask0_288_476)">
<path d="M79.0015 71.9994H84.0015C84.5319 71.9994 85.0406 71.7887 85.4157 71.4137C85.7908 71.0386 86.0015 70.5299 86.0015 69.9994C86.0015 69.469 85.7908 68.9603 85.4157 68.5852C85.0406 68.2102 84.5319 67.9994 84.0015 67.9994H82.0015C82.0015 67.469 81.7908 66.9603 81.4157 66.5852C81.0407 66.2102 80.5319 65.9995 80.0015 65.9995C79.4711 65.9995 78.9624 66.2102 78.5873 66.5852C78.2122 66.9603 78.0015 67.469 78.0015 67.9994C76.6754 68.1321 75.4563 68.786 74.6124 69.8175C73.7685 70.8489 73.3689 72.1734 73.5015 73.4994C73.6341 74.8255 74.2881 76.0446 75.3195 76.8885C76.351 77.7324 77.6754 78.132 79.0015 77.9994H81.0015C81.2667 77.9994 81.5211 78.1048 81.7086 78.2923C81.8962 78.4799 82.0015 78.7342 82.0015 78.9994C82.0015 79.2647 81.8962 79.519 81.7086 79.7065C81.5211 79.8941 81.2667 79.9994 81.0015 79.9994H76.0015C75.4711 79.9994 74.9624 80.2102 74.5873 80.5852C74.2122 80.9603 74.0015 81.469 74.0015 81.9994C74.0015 82.5299 74.2122 83.0386 74.5873 83.4136C74.9624 83.7887 75.4711 83.9994 76.0015 83.9994H78.0015C78.0015 84.5299 78.2122 85.0386 78.5873 85.4136C78.9624 85.7887 79.4711 85.9994 80.0015 85.9994C80.5319 85.9994 81.0407 85.7887 81.4157 85.4136C81.7908 85.0386 82.0015 84.5299 82.0015 83.9994C82.6581 83.9338 83.2954 83.7394 83.8769 83.4275C84.4584 83.1156 84.9727 82.6921 85.3906 82.1814C85.8085 81.6707 86.1216 81.0827 86.3122 80.4509C86.5029 79.8192 86.5672 79.156 86.5015 78.4994C86.4358 77.8428 86.2415 77.2056 85.9296 76.6241C85.6176 76.0426 85.1942 75.5282 84.6835 75.1104C84.1728 74.6925 83.5847 74.3793 82.953 74.1887C82.3212 73.9981 81.6581 73.9338 81.0015 73.9994H79.0015C78.7363 73.9994 78.4819 73.8941 78.2944 73.7066C78.1069 73.519 78.0015 73.2647 78.0015 72.9994C78.0015 72.7342 78.1069 72.4799 78.2944 72.2923C78.4819 72.1048 78.7363 71.9994 79.0015 71.9994Z" fill="#0088CC"/>
<path d="M91.9999 59.9999V22C91.9999 19.3478 90.9464 16.8043 89.071 14.9289C87.1956 13.0536 84.6521 12 81.9999 12H63.9999V7.99999C63.9999 5.87826 63.1571 3.84343 61.6568 2.34314C60.1565 0.842854 58.1217 0 56 0H36C33.8782 0 31.8434 0.842854 30.3431 2.34314C28.8428 3.84343 28 5.87826 28 7.99999V12H9.99999C7.34783 12 4.80429 13.0536 2.92893 14.9289C1.05357 16.8043 0 19.3478 0 22V73.9999C0 76.6521 1.05357 79.1956 2.92893 81.071C4.80429 82.9464 7.34783 83.9999 9.99999 83.9999H61.6999C70.2999 103.82 99.9999 97.4999 99.9999 75.9999C100.009 72.8934 99.2905 69.8279 97.9012 67.0493C96.5119 64.2707 94.4908 61.8564 91.9999 59.9999ZM32 7.99999C32 6.93913 32.4214 5.92171 33.1715 5.17157C33.9217 4.42142 34.9391 4 36 4H56C57.0608 4 58.0782 4.42142 58.8284 5.17157C59.5785 5.92171 59.9999 6.93913 59.9999 7.99999V12H32V7.99999ZM4 22C4 20.4087 4.63214 18.8826 5.75735 17.7573C6.88257 16.6321 8.40869 16 9.99999 16H81.9999C83.5912 16 85.1173 16.6321 86.2426 17.7573C87.3678 18.8826 87.9999 20.4087 87.9999 22V38C87.9999 39.5913 87.3678 41.1174 86.2426 42.2426C85.1173 43.3678 83.5912 44 81.9999 44H54C54 41.4 54.2 38.9 51.66 36.34C50.5411 35.2199 49.1151 34.4569 47.5624 34.1477C46.0097 33.8385 44.4002 33.997 42.9376 34.603C41.4751 35.209 40.2252 36.2354 39.3462 37.5521C38.4672 38.8689 37.9987 40.4168 38 42V44H9.99999C8.40869 44 6.88257 43.3678 5.75735 42.2426C4.63214 41.1174 4 39.5913 4 38V22ZM42 42C42 40.9391 42.4214 39.9217 43.1715 39.1715C43.9217 38.4214 44.9391 38 46 38C47.0608 38 48.0782 38.4214 48.8284 39.1715C49.5785 39.9217 50 40.9391 50 42V50C50 51.0608 49.5785 52.0782 48.8284 52.8284C48.0782 53.5785 47.0608 53.9999 46 53.9999C44.9391 53.9999 43.9217 53.5785 43.1715 52.8284C42.4214 52.0782 42 51.0608 42 50V42ZM9.99999 79.9999C8.40869 79.9999 6.88257 79.3678 5.75735 78.2426C4.63214 77.1173 4 75.5912 4 73.9999V46C7.55999 48.68 9.73999 48 38 48V50C38 52.1217 38.8428 54.1565 40.3431 55.6568C41.8434 57.1571 43.8782 57.9999 46 57.9999C48.1217 57.9999 50.1565 57.1571 51.6568 55.6568C53.1571 54.1565 54 52.1217 54 50V48C82.9999 48 84.4799 48.64 87.9999 46V57.6799C84.6442 56.2149 80.9506 55.6992 77.322 56.1891C73.6933 56.679 70.2687 58.1557 67.4216 60.4581C64.5745 62.7606 62.4141 65.8004 61.1759 69.2463C59.9377 72.6923 59.6693 76.4119 60.3999 79.9999H9.99999ZM79.9999 91.9999C76.8354 91.9999 73.742 91.0615 71.1108 89.3034C68.4796 87.5453 66.4289 85.0465 65.2179 82.1229C64.0069 79.1992 63.69 75.9822 64.3074 72.8785C64.9247 69.7748 66.4486 66.9239 68.6862 64.6862C70.9239 62.4486 73.7748 60.9247 76.8785 60.3074C79.9822 59.69 83.1992 60.0069 86.1229 61.2179C89.0465 62.4289 91.5453 64.4796 93.3034 67.1108C95.0615 69.742 95.9999 72.8354 95.9999 75.9999C95.9999 80.2434 94.3142 84.313 91.3136 87.3136C88.313 90.3142 84.2434 91.9999 79.9999 91.9999Z" fill="#0088CC"/>
</g>
</g>
<defs>
<clipPath id="clip0_288_476">
<rect width="100" height="96" fill="white"/>
</clipPath>
</defs>
</svg>
