<svg xmlns="http://www.w3.org/2000/svg" xmlns:xlink="http://www.w3.org/1999/xlink" viewBox="0 0 500 500" width="500" height="500" preserveAspectRatio="xMidYMid meet" style="width: 100%; height: 100%; transform: translate3d(0px, 0px, 0px); content-visibility: visible;"><defs><clipPath id="__lottie_element_71"><rect width="500" height="500" x="0" y="0"></rect></clipPath></defs><g clip-path="url(#__lottie_element_71)"><g style="display: block;" transform="matrix(1,0,0,1,114.927001953125,283.57501220703125)" opacity="1"><g opacity="0" transform="matrix(1,0,0,1,65.85099792480469,89.16100311279297)"><path fill="rgb(0,159,255)" fill-opacity="1" d=" M177.156005859375,-177.156005859375 C177.156005859375,-177.156005859375 177.156005859375,177.156005859375 177.156005859375,177.156005859375 C177.156005859375,177.156005859375 -177.156005859375,177.156005859375 -177.156005859375,177.156005859375 C-177.156005859375,177.156005859375 -177.156005859375,-177.156005859375 -177.156005859375,-177.156005859375 C-177.156005859375,-177.156005859375 177.156005859375,-177.156005859375 177.156005859375,-177.156005859375z"></path></g><g opacity="1" transform="matrix(1,0,0,1,0,0)"><g opacity="1" transform="matrix(1,0,0,1,62.49300003051758,84.98699951171875)"><path stroke-linecap="round" stroke-linejoin="round" fill-opacity="0" stroke="rgb(120,130,145)" stroke-opacity="1" stroke-width="16" d=" M-22.493000030517578,38.395999908447266 C-22.493000030517578,38.395999908447266 -12.414999961853027,44.98699951171875 0,44.98699951171875 C12.413999557495117,44.98699951171875 22.493000030517578,34.90399932861328 22.493000030517578,22.493000030517578 C22.493000030517578,10.611000061035156 11.246000289916992,3.8350000381469727 0,0 C-11.246999740600586,-3.8350000381469727 -22.493000030517578,-10.611000061035156 -22.493000030517578,-22.493000030517578 C-22.493000030517578,-34.90999984741211 -12.414999961853027,-44.98699951171875 0,-44.98699951171875 C6.205999851226807,-44.98699951171875 11.829999923706055,-42.46799850463867 15.902000427246094,-38.395999908447266"></path></g><g opacity="1" transform="matrix(1,0,0,1,0,0)"><path stroke-linecap="round" stroke-linejoin="round" fill-opacity="0" stroke="rgb(120,130,145)" stroke-opacity="1" stroke-width="16" d=" M62.49300003051758,129.9739990234375 C62.49300003051758,129.9739990234375 62.49300003051758,141.2209930419922 62.49300003051758,141.2209930419922"></path></g><g opacity="1" transform="matrix(1,0,0,1,0,0)"><path stroke-linecap="round" stroke-linejoin="round" fill-opacity="0" stroke="rgb(120,130,145)" stroke-opacity="1" stroke-width="16" d=" M62.49300003051758,28.753999710083008 C62.49300003051758,28.753999710083008 62.49300003051758,40.000999450683594 62.49300003051758,40.000999450683594"></path></g></g></g><g style="display: none;" transform="matrix(1,0,0,1,250,250)" opacity="1"><g opacity="0" transform="matrix(1,0,0,1,-71.6780014038086,119.46399688720703)"><path fill="rgb(0,159,255)" fill-opacity="1" d=" M177.156005859375,-177.156005859375 C177.156005859375,-177.156005859375 177.156005859375,177.156005859375 177.156005859375,177.156005859375 C177.156005859375,177.156005859375 -177.156005859375,177.156005859375 -177.156005859375,177.156005859375 C-177.156005859375,177.156005859375 -177.156005859375,-177.156005859375 -177.156005859375,-177.156005859375 C-177.156005859375,-177.156005859375 177.156005859375,-177.156005859375 177.156005859375,-177.156005859375z"></path></g><g opacity="1" transform="matrix(1,0,0,1,0,0)"><path stroke-linecap="round" stroke-linejoin="round" fill-opacity="0" stroke="rgb(51,204,204)" stroke-opacity="1" stroke-width="16" d=" M-136.6510009765625,40.762001037597656 C-136.697998046875,40.71900177001953 -136.72300720214844,40.696998596191406 -136.72300720214844,40.696998596191406"></path></g><g opacity="1" transform="matrix(1,0,0,1,0,0)"><path stroke-linecap="round" stroke-linejoin="round" fill-opacity="0" stroke="rgb(51,204,204)" stroke-opacity="1" stroke-width="16" d=" M-146.64100646972656,122.66500091552734 C-146.71299743652344,122.66500091552734 -146.75,122.66500091552734 -146.75,122.66500091552734"></path></g><g opacity="1" transform="matrix(1,0,0,1,0,0)"><path stroke-linecap="round" stroke-linejoin="round" fill-opacity="0" stroke="rgb(51,204,204)" stroke-opacity="1" stroke-width="16" d=" M-136.40199279785156,203.5749969482422 C-136.44900512695312,203.61700439453125 -136.47300720214844,203.63900756835938 -136.47300720214844,203.63900756835938"></path></g><g opacity="1" transform="matrix(1,0,0,1,0,0)"><path stroke-linecap="round" stroke-linejoin="round" fill-opacity="0" stroke="rgb(51,204,204)" stroke-opacity="1" stroke-width="16" d=" M-11.645999908447266,40.736000061035156 C-11.602999687194824,40.69200134277344 -11.581000328063965,40.66999816894531 -11.581000328063965,40.66999816894531"></path></g><g opacity="1" transform="matrix(1,0,0,1,0,0)"><path stroke-linecap="round" stroke-linejoin="round" fill-opacity="0" stroke="rgb(51,204,204)" stroke-opacity="1" stroke-width="16" d=" M-0.6060000061988831,122.8030014038086 C-0.5360000133514404,122.8030014038086 -0.5,122.8030014038086 -0.5,122.8030014038086"></path></g><g opacity="1" transform="matrix(1,0,0,1,0,0)"><path stroke-linecap="round" stroke-linejoin="round" fill-opacity="0" stroke="rgb(51,204,204)" stroke-opacity="1" stroke-width="16" d=" M-10.845999717712402,204.4290008544922 C-10.800000190734863,204.4739990234375 -10.777000427246094,204.4969940185547 -10.777000427246094,204.4969940185547"></path></g></g><g style="display: block;" transform="matrix(1,0,0,1,261.135986328125,81.13600158691406)" opacity="1"><g opacity="0" transform="matrix(1,0,0,1,93.822998046875,118.2979965209961)"><path fill="rgb(0,159,255)" fill-opacity="1" d=" M177.156005859375,-177.156005859375 C177.156005859375,-177.156005859375 177.156005859375,177.156005859375 177.156005859375,177.156005859375 C177.156005859375,177.156005859375 -177.156005859375,177.156005859375 -177.156005859375,177.156005859375 C-177.156005859375,177.156005859375 -177.156005859375,-177.156005859375 -177.156005859375,-177.156005859375 C-177.156005859375,-177.156005859375 177.156005859375,-177.156005859375 177.156005859375,-177.156005859375z"></path></g><g opacity="1" transform="matrix(1,0,0,1,68.11599731445312,101.85700225830078)"><path stroke-linecap="round" stroke-linejoin="round" fill-opacity="0" stroke="rgb(120,130,145)" stroke-opacity="1" stroke-width="16" d=" M-28.114999771118164,-61.856998443603516 C2.9200000762939453,-61.856998443603516 28.114999771118164,-36.659000396728516 28.114999771118164,-5.625 C28.114999771118164,-5.625 28.114999771118164,26.347000122070312 28.114999771118164,46.277000427246094"></path></g><g opacity="1" transform="matrix(1,0,0,1,96.23100280761719,143.3419952392578)"><path stroke-linecap="round" stroke-linejoin="round" fill-opacity="0" stroke="rgb(120,130,145)" stroke-opacity="1" stroke-width="16" d=" M-22.493000030517578,-11.246999740600586 C-22.493000030517578,-11.246999740600586 -0.0010000000474974513,11.246999740600586 -0.0010000000474974513,11.246999740600586 C-0.0010000000474974513,11.246999740600586 22.493000030517578,-11.246999740600586 22.493000030517578,-11.246999740600586"></path></g></g><g style="display: block;" transform="matrix(1,0,0,1,47.44599914550781,47.39599609375)" opacity="1"><g opacity="1" transform="matrix(1,0,0,1,129.9739990234375,84.98699951171875)"><path stroke-linecap="round" stroke-linejoin="round" fill-opacity="0" stroke="rgb(0,135,204)" stroke-opacity="1" stroke-width="16" d=" M0,-44.98699951171875 C24.82900047302246,-44.98699951171875 44.98699951171875,-24.82699966430664 44.98699951171875,0 C44.98699951171875,24.82699966430664 24.82900047302246,44.98699951171875 0,44.98699951171875 C-24.82900047302246,44.98699951171875 -44.98699951171875,24.82699966430664 -44.98699951171875,0 C-44.98699951171875,-24.82699966430664 -24.82900047302246,-44.98699951171875 0,-44.98699951171875z"></path></g><g opacity="1" transform="matrix(1,0,0,1,129.9739990234375,174.9600067138672)"><path stroke-linecap="round" stroke-linejoin="round" fill-opacity="0" stroke="rgb(0,135,204)" stroke-opacity="1" stroke-width="16" d=" M89.9729995727539,44.986000061035156 C89.9729995727539,-4.706999778747559 49.691001892089844,-44.986000061035156 0,-44.986000061035156 C-49.691001892089844,-44.986000061035156 -89.9739990234375,-4.706999778747559 -89.9739990234375,44.986000061035156 C-89.9739990234375,44.986000061035156 89.9729995727539,44.986000061035156 89.9729995727539,44.986000061035156z"></path></g></g><g style="display: block;" transform="matrix(1,0,0,1,249.88699340820312,249.83599853515625)" opacity="1"><g opacity="1" transform="matrix(1,0,0,1,107.4800033569336,73.73999786376953)"><path stroke-linecap="round" stroke-linejoin="round" fill-opacity="0" stroke="rgb(0,135,204)" stroke-opacity="1" stroke-width="16" d=" M0,-33.7400016784668 C18.621999740600586,-33.7400016784668 33.7400016784668,-18.625 33.7400016784668,0 C33.7400016784668,18.618999481201172 18.621999740600586,33.7400016784668 0,33.7400016784668 C-18.621999740600586,33.7400016784668 -33.7400016784668,18.618999481201172 -33.7400016784668,0 C-33.7400016784668,-18.625 -18.621999740600586,-33.7400016784668 0,-33.7400016784668z"></path></g><g opacity="1" transform="matrix(1,0,0,1,107.4800033569336,141.22000122070312)"><path stroke-linecap="round" stroke-linejoin="round" fill-opacity="0" stroke="rgb(0,135,204)" stroke-opacity="1" stroke-width="16" d=" M67.4800033569336,33.7400016784668 C67.4800033569336,-3.5309998989105225 37.268001556396484,-33.7400016784668 0,-33.7400016784668 C-37.268001556396484,-33.7400016784668 -67.4800033569336,-3.5309998989105225 -67.4800033569336,33.7400016784668 C-67.4800033569336,33.7400016784668 67.4800033569336,33.7400016784668 67.4800033569336,33.7400016784668z"></path></g></g></g></svg>