<svg xmlns="http://www.w3.org/2000/svg" xmlns:xlink="http://www.w3.org/1999/xlink" viewBox="0 0 500 500" width="500" height="500" preserveAspectRatio="xMidYMid meet" style="width: 100%; height: 100%; transform: translate3d(0px, 0px, 0px); content-visibility: visible;"><defs><clipPath id="__lottie_element_25"><rect width="500" height="500" x="0" y="0"></rect></clipPath></defs><g clip-path="url(#__lottie_element_25)"><g transform="matrix(1,0,0,1,250,250)" opacity="1" style="display: block;"><g opacity="1" transform="matrix(-1,0,0,-1,-79.30000305175781,60.025001525878906)"><path stroke-linecap="round" stroke-linejoin="round" fill-opacity="0" stroke="rgb(120,130,145)" stroke-opacity="1" stroke-width="16" d=" M23.75,-9.199999809265137 C23.75,-9.199999809265137 92.6500015258789,-9.199999809265137 92.6500015258789,-9.199999809265137 C92.6500015258789,-9.199999809265137 92.6500015258789,-78.0999984741211 92.6500015258789,-78.0999984741211 C92.6500015258789,-78.0999984741211 23.75,-78.0999984741211 23.75,-78.0999984741211 C23.75,-78.0999984741211 23.75,-9.199999809265137 23.75,-9.199999809265137z"></path></g><g opacity="1" transform="matrix(-0.9999391436576843,0.011030543595552444,-0.011030543595552444,-0.9999391436576843,-0.534981369972229,66.50294494628906)"><path stroke-linecap="round" stroke-linejoin="round" fill-opacity="0" stroke="rgb(120,130,145)" stroke-opacity="1" stroke-width="16" d=" M-45.933998107910156,-48.5 C-45.933998107910156,-48.5 0,-94.43299865722656 0,-94.43299865722656 C0,-94.43299865722656 45.93299865722656,-48.5 45.93299865722656,-48.5 C45.93299865722656,-48.5 0,-2.566999912261963 0,-2.566999912261963 C0,-2.566999912261963 -45.933998107910156,-48.5 -45.933998107910156,-48.5z"></path></g><g opacity="1" transform="matrix(0.9360760450363159,0.3517976999282837,-0.3517976999282837,0.9360760450363159,175.8321075439453,171.94052124023438)"><path stroke-linecap="round" stroke-linejoin="round" fill-opacity="0" stroke="rgb(120,130,145)" stroke-opacity="1" stroke-width="16" d=" M-58.20000076293945,-85.67900085449219 C-58.20000076293945,-85.67900085449219 -23.75,-65.79000091552734 -23.75,-65.79000091552734 C-23.75,-65.79000091552734 -23.75,-26.01099967956543 -23.75,-26.01099967956543 C-23.75,-26.01099967956543 -58.20000076293945,-6.122000217437744 -58.20000076293945,-6.122000217437744 C-58.20000076293945,-6.122000217437744 -92.6500015258789,-26.01099967956543 -92.6500015258789,-26.01099967956543 C-92.6500015258789,-26.01099967956543 -92.6500015258789,-65.79000091552734 -92.6500015258789,-65.79000091552734 C-92.6500015258789,-65.79000091552734 -58.20000076293945,-85.67900085449219 -58.20000076293945,-85.67900085449219z"></path></g></g><g transform="matrix(1,0,0,1,-148,11)" opacity="1" style="display: block;"><g opacity="1" transform="matrix(1,0,0,1,462.3330078125,86.66699981689453)"><path stroke-linecap="round" stroke-linejoin="round" fill-opacity="0" stroke="rgb(120,130,145)" stroke-opacity="1" stroke-width="16" d=" M-85.40968322753906,85.65142822265625 C-85.40968322753906,85.65142822265625 -75.87629699707031,91.88597869873047 -64.13300323486328,91.88597869873047 C-52.39070129394531,91.88597869873047 -42.85731887817383,82.35321807861328 -42.85731887817383,70.61029815673828 C-42.85731887817383,59.37019348144531 -53.494850158691406,52.96120834350586 -64.13300323486328,49.33300018310547 C-74.77153015136719,45.70479202270508 -85.40968322753906,39.29680633544922 -85.40968322753906,28.056699752807617 C-85.40968322753906,16.31378173828125 -75.87629699707031,6.78101921081543 -64.13300323486328,6.78101921081543 C-58.26216125488281,6.78101921081543 -52.943084716796875,9.1643648147583 -49.09187316894531,13.015575408935547"></path></g><g opacity="1" transform="matrix(1,0,0,1,0,0)"><path stroke-linecap="round" stroke-linejoin="round" fill-opacity="0" stroke="rgb(120,130,145)" stroke-opacity="1" stroke-width="16" d=" M398.20001220703125,180.23399353027344 C398.20001220703125,180.23399353027344 398.20001220703125,189.19113159179688 398.20001220703125,189.19113159179688"></path></g><g opacity="1" transform="matrix(1,0,0,1,0,0)"><path stroke-linecap="round" stroke-linejoin="round" fill-opacity="0" stroke="rgb(120,130,145)" stroke-opacity="1" stroke-width="16" d=" M398.20001220703125,82.80886840820312 C398.20001220703125,82.80886840820312 398.20001220703125,90.8406753540039 398.20001220703125,90.8406753540039"></path></g></g><g transform="matrix(1,0,0,1,0,0)" opacity="1" style="display: block;"><g opacity="1" transform="matrix(1,0,0,1,0,0)"><path stroke-linecap="round" stroke-linejoin="round" fill-opacity="0" stroke="rgb(0,135,204)" stroke-opacity="1" stroke-width="16" d="M0 0"></path></g><g opacity="1" transform="matrix(1,0,0,1,116.05899810791016,236.9409942626953)"><path stroke-linecap="round" stroke-linejoin="round" fill-opacity="0" stroke="rgb(0,135,204)" stroke-opacity="1" stroke-width="16" d=" M44.375999450683594,-0.7260000109672546 C26.924999237060547,16.725000381469727 7.625,36.025001525878906 7.625,36.025001525878906"></path></g><g opacity="1" transform="matrix(1,0,0,1,383.9410095214844,236.9409942626953)"><path stroke-linecap="round" stroke-linejoin="round" fill-opacity="0" stroke="rgb(0,135,204)" stroke-opacity="1" stroke-width="16" d=" M-71.91999816894531,-28.270000457763672 C-71.91999816894531,-28.270000457763672 -7.625,36.025001525878906 -7.625,36.025001525878906"></path></g></g></g></svg>