<svg xmlns="http://www.w3.org/2000/svg" xmlns:xlink="http://www.w3.org/1999/xlink" viewBox="0 0 500 500" width="500" height="500" preserveAspectRatio="xMidYMid meet" style="width: 100%; height: 100%; transform: translate3d(0px, 0px, 0px); content-visibility: visible;"><defs><clipPath id="__lottie_element_84"><rect width="500" height="500" x="0" y="0"></rect></clipPath></defs><g clip-path="url(#__lottie_element_84)"><g transform="matrix(0.800000011920929,0,0,0.800000011920929,249.7696075439453,249.01820373535156)" opacity="1" style="display: block;"><g opacity="1" transform="matrix(1,0,0,1,0,0)"><path stroke-linecap="round" stroke-linejoin="round" fill-opacity="0" stroke="rgb(0,135,204)" stroke-opacity="1" stroke-width="20" d=" M-126.91300201416016,181.21200561523438 C-126.91300201416016,181.21200561523438 -126.91400146484375,181.21099853515625 -126.91400146484375,181.21099853515625 C-124.2760009765625,179.63800048828125 -121.78600311279297,177.71800231933594 -119.51499938964844,175.44700622558594 C-104.7300033569336,160.66200256347656 -104.7300033569336,136.6909942626953 -119.51499938964844,121.90599822998047 C-134.3000030517578,107.12100219726562 -158.27099609375,107.12100219726562 -173.05599975585938,121.90599822998047 C-176.5030059814453,125.35299682617188 -179.13499450683594,129.302001953125 -180.97500610351562,133.51400756835938 C-180.97500610351562,133.51400756835938 -180.9759979248047,133.51300048828125 -180.9759979248047,133.51300048828125 C-180.9759979248047,133.51300048828125 -240.77000427246094,242.16000366210938 -240.77000427246094,242.16000366210938 C-240.77000427246094,242.16000366210938 -130.9709930419922,183.2989959716797 -130.9709930419922,183.2989959716797 C-129.593994140625,182.69000244140625 -128.2449951171875,182.00399780273438 -126.93399810791016,181.22300720214844 C-126.93399810791016,181.22300720214844 -126.91300201416016,181.21200561523438 -126.91300201416016,181.21200561523438z"></path></g></g><g transform="matrix(0.800000011920929,0,0,0.800000011920929,249.7696075439453,249.01820373535156)" opacity="1" style="display: block;"><g opacity="1" transform="matrix(1,0,0,1,0,0)"><path stroke-linecap="round" stroke-linejoin="round" fill-opacity="0" stroke="rgb(120,130,145)" stroke-opacity="1" stroke-width="20" d=" M-78.28299713134766,163.13800048828125 C-78.28299713134766,163.13800048828125 74.63200378417969,80.76799774169922 122.24099731445312,33.159000396728516 C242.01100158691406,-86.61100006103516 241.406005859375,-239.4530029296875 241.406005859375,-239.4530029296875 C126.66799926757812,-234.44500732421875 33.96900177001953,-184.58799743652344 -30.76799964904785,-119.85099792480469 C-95.50499725341797,-55.11399841308594 -159.906005859375,81.51499938964844 -159.906005859375,81.51499938964844 C-159.906005859375,81.51499938964844 -78.28299713134766,163.13800048828125 -78.28299713134766,163.13800048828125z"></path></g><g opacity="1" transform="matrix(1,0,0,1,0,0)"><path stroke-linecap="round" stroke-linejoin="round" fill-opacity="0" stroke="rgb(120,130,145)" stroke-opacity="1" stroke-width="20" d=" M-14.656999588012695,17.04800033569336 C-14.656999588012695,17.04800033569336 -119.51499938964844,121.90599822998047 -119.51499938964844,121.90599822998047"></path></g><g opacity="1" transform="matrix(1,0,0,1,0,0)"><path stroke-linecap="round" stroke-linejoin="round" fill-opacity="0" stroke="rgb(120,130,145)" stroke-opacity="1" stroke-width="20" d=" M88.81600189208984,-203.08399963378906 C88.81600189208984,-203.08399963378906 204.76499938964844,-87.13600158691406 204.76499938964844,-87.13600158691406"></path></g><g opacity="1" transform="matrix(1,0,0,1,0,0)"><path stroke-linecap="round" stroke-linejoin="round" fill-opacity="0" stroke="rgb(120,130,145)" stroke-opacity="1" stroke-width="20" d=" M100.02999877929688,-30.14699935913086 C81.39299774169922,-11.510000228881836 51.17499923706055,-11.510000228881836 32.53799819946289,-30.14699935913086 C13.901000022888184,-48.784000396728516 13.901000022888184,-79.00199890136719 32.53799819946289,-97.63899993896484 C51.17499923706055,-116.2760009765625 81.39299774169922,-116.2760009765625 100.02999877929688,-97.63899993896484 C118.66699981689453,-79.00199890136719 118.66699981689453,-48.784000396728516 100.02999877929688,-30.14699935913086z"></path></g><g opacity="1" transform="matrix(1,0,0,1,0,0)"><path stroke-linecap="round" stroke-linejoin="round" fill-opacity="0" stroke="rgb(120,130,145)" stroke-opacity="1" stroke-width="20" d=" M-129.2480010986328,22.253999710083008 C-129.2480010986328,22.253999710083008 -20.774999618530273,130.7270050048828 -20.774999618530273,130.7270050048828"></path></g><g opacity="1" transform="matrix(1,0,0,1,0,0)"><path stroke-linecap="round" stroke-linejoin="round" fill-opacity="0" stroke="rgb(120,130,145)" stroke-opacity="1" stroke-width="20" d=" M-129.22799682617188,22.235000610351562 C-129.22799682617188,22.235000610351562 -241.406005859375,-2.0220000743865967 -241.406005859375,-2.0220000743865967 C-241.406005859375,-2.0220000743865967 -161.44400024414062,-81.98400115966797 -161.44400024414062,-81.98400115966797 C-161.44400024414062,-81.98400115966797 -66.61699676513672,-77.3740005493164 -66.61699676513672,-77.3740005493164"></path></g><g opacity="1" transform="matrix(1,0,0,1,0,0)"><path stroke-linecap="round" stroke-linejoin="round" fill-opacity="0" stroke="rgb(120,130,145)" stroke-opacity="1" stroke-width="20" d=" M-20.756000518798828,130.70700073242188 C-20.756000518798828,130.70700073242188 3.500999927520752,242.88499450683594 3.500999927520752,242.88499450683594 C3.500999927520752,242.88499450683594 83.46299743652344,162.92300415039062 83.46299743652344,162.92300415039062 C83.46299743652344,162.92300415039062 78.85299682617188,68.09600067138672 78.85299682617188,68.09600067138672"></path></g></g></g></svg>