<svg xmlns="http://www.w3.org/2000/svg" xmlns:xlink="http://www.w3.org/1999/xlink" viewBox="0 0 500 500" width="500" height="500" preserveAspectRatio="xMidYMid meet" style="width: 100%; height: 100%; transform: translate3d(0px, 0px, 0px); content-visibility: visible;"><defs><clipPath id="__lottie_element_11"><rect width="500" height="500" x="0" y="0"></rect></clipPath></defs><g clip-path="url(#__lottie_element_11)"><g transform="matrix(0.800000011920929,0,0,0.800000011920929,250,250)" opacity="1" style="display: block;"><g opacity="1" transform="matrix(1,0,0,1,0,0)"><path stroke-linecap="round" stroke-linejoin="round" fill-opacity="0" stroke="rgb(120,130,145)" stroke-opacity="1" stroke-width="20" d=" M-240.9980010986328,118.46800231933594 C-240.9980010986328,118.46800231933594 -84.11699676513672,118.46800231933594 -84.11699676513672,118.46800231933594 C-84.11699676513672,118.46800231933594 -84.11699676513672,130.48599243164062 -84.11699676513672,130.48599243164062 C-84.11699676513672,130.48599243164062 84.11900329589844,130.48599243164062 84.11900329589844,130.48599243164062 C84.11900329589844,130.48599243164062 84.11900329589844,118.46800231933594 84.11900329589844,118.46800231933594 C84.11900329589844,118.46800231933594 240.9980010986328,118.46800231933594 240.9980010986328,118.46800231933594 C240.9980010986328,118.46800231933594 240.9980010986328,139.4969940185547 240.9980010986328,139.4969940185547 C240.9980010986328,161.5570068359375 223.21299743652344,179.55499267578125 201.41400146484375,179.55499267578125 C201.41400146484375,179.55499267578125 -201.41299438476562,179.55499267578125 -201.41299438476562,179.55499267578125 C-223.21200561523438,179.55499267578125 -240.9980010986328,161.55999755859375 -240.9980010986328,139.4969940185547 C-240.9980010986328,139.4969940185547 -240.9980010986328,118.46800231933594 -240.9980010986328,118.46800231933594z"></path></g></g><g transform="matrix(0.800000011920929,0,0,0.800000011920929,250,250)" opacity="1" style="display: block;"><g opacity="1" transform="matrix(1,0,0,1,0,0)"><path stroke-linecap="round" stroke-linejoin="round" fill-opacity="0" stroke="rgb(0,135,204)" stroke-opacity="1" stroke-width="20" d=" M-144,55.01100158691406 C-144,55.01100158691406 -63,-25.98900032043457 -63,-25.98900032043457 C-63,-25.98900032043457 0.0010000000474974513,40.51100158691406 0.0010000000474974513,40.51100158691406 C0.0010000000474974513,40.51100158691406 144,-98.98899841308594 144,-98.98899841308594"></path></g></g><g transform="matrix(0.800000011920929,0,0,0.800000011920929,250,250)" opacity="1" style="display: block;"><g opacity="1" transform="matrix(1,0,0,1,0,0)"><path stroke-linecap="round" stroke-linejoin="round" fill-opacity="0" stroke="rgb(120,130,145)" stroke-opacity="1" stroke-width="20" d="M0 0"></path></g></g><g transform="matrix(0.800000011920929,0,0,0.800000011920929,250,250)" opacity="1" style="display: block;"><g opacity="1" transform="matrix(1,0,0,1,0,0)"><path stroke-linecap="round" stroke-linejoin="round" fill-opacity="0" stroke="rgb(120,130,145)" stroke-opacity="1" stroke-width="20" d=" M-202.92999267578125,117.96800231933594 C-202.92999267578125,117.96800231933594 -202.92999267578125,-162.9429931640625 -202.92999267578125,-162.9429931640625 C-202.92999267578125,-162.9429931640625 207.59500122070312,-163.03700256347656 207.59500122070312,-163.03700256347656 C207.59500122070312,-163.03700256347656 207.59500122070312,117.8740005493164 207.59500122070312,117.8740005493164"></path></g></g><g transform="matrix(0.800000011920929,0,0,0.800000011920929,237.93519592285156,250)" opacity="1" style="display: none;"><g opacity="1" transform="matrix(1,0,0,1,0,0)"><path stroke-linecap="butt" stroke-linejoin="miter" fill-opacity="0" stroke-miterlimit="4" stroke="rgb(120,130,145)" stroke-opacity="1" stroke-width="20" d=" M114.21099853515625,179.4739990234375 C114.21099853515625,179.4739990234375 160.6479949951172,180.72900390625 200.80999755859375,180.72900390625 C238.46200561523438,180.72900390625 229.67599487304688,117.97599792480469 229.67599487304688,117.97599792480469 C229.67599487304688,117.97599792480469 151.86199951171875,117.97599792480469 151.86199951171875,117.97599792480469"></path></g></g><g style="display: none;" transform="matrix(1,0,0,1,139.6566162109375,261)" opacity="0.25"><g opacity="1" transform="matrix(1,0,0,1,0,0)"><path stroke-linecap="round" stroke-linejoin="round" fill-opacity="0" stroke="rgb(0,135,204)" stroke-opacity="1" stroke-width="20" d=" M155.10374450683594,-92.06259155273438 C152.9269256591797,-92.06259155273438 151.16244506835938,-90.29811096191406 151.16244506835938,-88.12129211425781 C151.16244506835938,-90.29811096191406 149.39796447753906,-92.06259155273438 147.2211456298828,-92.06259155273438 C149.39796447753906,-92.06259155273438 151.16244506835938,-93.82707214355469 151.16244506835938,-96.00389099121094 C151.16244506835938,-93.82707214355469 152.9269256591797,-92.06259155273438 155.10374450683594,-92.06259155273438z"></path></g></g></g></svg>