<svg width="80" height="80" viewBox="0 0 80 80" fill="none" xmlns="http://www.w3.org/2000/svg">
<path d="M40.2468 28.2695C33.608 28.2695 28.207 33.5315 28.207 39.9995C28.207 42.2767 28.8773 44.4039 30.0346 46.2053C30.0698 46.2718 30.1122 46.3356 30.1601 46.3966C32.3109 49.6047 36.0287 51.7294 40.2468 51.7294C46.8857 51.7294 52.2866 46.4673 52.2866 39.9995C52.2866 33.5316 46.8857 28.2695 40.2468 28.2695ZM31.5524 43.4594C31.1029 42.3913 30.8531 41.2236 30.8531 39.9995C30.8532 34.9531 35.0671 30.8477 40.2468 30.8477C43.4163 30.8477 46.222 32.3864 47.924 34.7359L40.6574 41.8155L37.8841 39.1138C37.3673 38.6104 36.5298 38.6105 36.0128 39.1138L31.5524 43.4594ZM40.2468 49.1513C37.301 49.1513 34.6688 47.8223 32.9452 45.7486L36.9486 41.8483L39.7218 44.55C40.2386 45.0534 41.0761 45.0532 41.5931 44.55L49.1761 37.1621C49.4762 38.056 49.6405 39.0091 49.6405 39.9993C49.6404 45.0458 45.4264 49.1513 40.2468 49.1513Z" fill="#0088CC"/>
<path d="M60.6066 39.1107C60.3987 32.8113 58.5894 26.6336 55.3417 21.1712C51.884 15.3557 46.8933 10.5144 40.9093 7.17083C40.5018 6.94306 40.0004 6.94306 39.5929 7.17083C33.609 10.5144 28.6184 15.3557 25.1605 21.1711C21.9128 26.6335 20.1035 32.8112 19.8956 39.1106C15.2573 41.0498 12.2012 45.512 12.2012 50.4867V59.5938C12.2012 60.3057 12.7937 60.8828 13.5243 60.8828H32.9662C33.2514 64.7602 34.9938 68.474 37.8463 71.2122L39.3225 72.6293C39.58 72.8764 39.9155 73 40.2512 73C40.5868 73 40.9223 72.8764 41.1799 72.6293L42.6561 71.2122C45.5086 68.474 47.251 64.7603 47.5361 60.8829H51.6299V67.5361C51.6299 68.248 52.2224 68.8251 52.9531 68.8251C53.6837 68.8251 54.2762 68.248 54.2762 67.5361V60.8828H66.9781C67.7087 60.8828 68.3012 60.3057 68.3012 59.5938V50.4868C68.3012 45.512 65.2449 41.0498 60.6066 39.1107ZM40.2512 9.78402C44.4113 12.2228 47.9676 15.4137 50.7797 19.1172H29.7226C32.5348 15.4137 36.091 12.2228 40.2512 9.78402ZM14.8474 58.3047V50.4867C14.8474 46.9424 16.8069 43.7266 19.8752 41.999V57.0156C19.8752 57.4676 19.9559 57.9012 20.1028 58.3047H14.8474ZM40.7988 69.3757L40.2512 69.9014L39.7035 69.3757C37.3525 67.1189 35.9 64.0731 35.6207 60.8828H44.8817C44.6022 64.0731 43.1497 67.1189 40.7988 69.3757ZM57.9809 57.0156C57.9809 57.7264 57.3873 58.3047 56.6578 58.3047H23.8446C23.115 58.3047 22.5215 57.7264 22.5215 57.0156V40.3336C22.5215 35.6659 23.4677 31.1176 25.2243 26.916H31.2152C31.9459 26.916 32.5383 26.3389 32.5383 25.627C32.5383 24.915 31.9459 24.3379 31.2152 24.3379H26.4264C26.8914 23.4366 27.3957 22.555 27.937 21.6953H52.5654C56.0432 27.2195 57.9809 33.6542 57.9809 40.3336V57.0156ZM65.6549 58.3047H60.3995C60.5464 57.9012 60.6271 57.4676 60.6271 57.0156V41.9991C63.6954 43.7266 65.6549 46.9424 65.6549 50.4868V58.3047Z" fill="#0088CC"/>
<path d="M36.9557 24.7151C36.7097 24.4753 36.3684 24.3374 36.0204 24.3374C35.6724 24.3374 35.331 24.4753 35.0849 24.7151C34.8388 24.9549 34.6973 25.2874 34.6973 25.6265C34.6973 25.9655 34.8387 26.2981 35.0849 26.5378C35.3312 26.7776 35.6724 26.9155 36.0204 26.9155C36.3684 26.9155 36.7097 26.7776 36.9557 26.5378C37.2018 26.2981 37.3435 25.9655 37.3435 25.6265C37.3435 25.2874 37.2019 24.9549 36.9557 24.7151Z" fill="#0088CC"/>
<path d="M27.5497 64.3301C26.8191 64.3301 26.2266 64.9072 26.2266 65.6191V69.5902C26.2266 70.3022 26.8191 70.8793 27.5497 70.8793C28.2803 70.8793 28.8728 70.3022 28.8728 69.5902V65.6191C28.8728 64.9072 28.2803 64.3301 27.5497 64.3301Z" fill="#0088CC"/>
<path d="M53.8815 70.7976C53.6355 70.5579 53.2941 70.4199 52.9462 70.4199C52.5982 70.4199 52.2568 70.5579 52.0107 70.7976C51.7646 71.0374 51.623 71.37 51.623 71.709C51.623 72.048 51.7645 72.3806 52.0107 72.6203C52.2569 72.8601 52.5982 72.998 52.9462 72.998C53.2941 72.998 53.6355 72.8601 53.8815 72.6203C54.1276 72.3806 54.2693 72.048 54.2693 71.709C54.2693 71.37 54.1277 71.0374 53.8815 70.7976Z" fill="#0088CC"/>
</svg>
