<svg width="60" height="60" viewBox="0 0 60 60" fill="none" xmlns="http://www.w3.org/2000/svg">
<g clip-path="url(#clip0_288_527)">
<mask id="mask0_288_527" style="mask-type:luminance" maskUnits="userSpaceOnUse" x="0" y="0" width="60" height="60">
<path d="M60 0H0V60H60V0Z" fill="white"/>
</mask>
<g mask="url(#mask0_288_527)">
<path d="M47.1296 11.6695C46.4834 11.6695 45.9577 11.1438 45.9577 10.4977C45.9577 9.85676 46.4787 9.33094 47.1179 9.32578H47.1264C47.5437 9.32578 47.983 9.53742 48.397 9.9382C48.8623 10.3883 49.6039 10.3762 50.0541 9.91113C50.5043 9.44613 50.4921 8.70422 50.0272 8.2541C49.4257 7.67203 48.8238 7.3452 48.2816 7.16871V5.85938C48.2816 5.21215 47.7568 4.6875 47.1097 4.6875C46.4626 4.6875 45.9378 5.21215 45.9378 5.85938V7.19168C44.5853 7.68258 43.614 8.98254 43.614 10.4978C43.614 12.4363 45.1911 14.0134 47.1296 14.0134C47.7758 14.0134 48.3015 14.5391 48.3015 15.1853C48.3015 15.8197 47.7936 16.358 47.1203 16.3571C46.6133 16.3525 46.0906 16.0464 45.6091 15.4718C45.1932 14.9759 44.4542 14.9108 43.9582 15.3266C43.4622 15.7424 43.3971 16.4815 43.8128 16.9775C44.4324 17.7166 45.1626 18.2341 45.9379 18.4984V19.9219C45.9379 20.5691 46.4627 21.0938 47.1098 21.0938C47.7569 21.0938 48.2817 20.5691 48.2817 19.9219V18.5085C49.635 18.0405 50.6453 16.7479 50.6453 15.1852C50.6452 13.2466 49.0681 11.6695 47.1296 11.6695Z" fill="#0088CC"/>
<path d="M60 12.8906C60 5.78273 54.2173 0 47.1094 0C40.0015 0 34.2188 5.78273 34.2188 12.8906C34.2188 19.6035 39.3768 25.1333 45.9375 25.7275V43.6908C43.6027 40.3744 39.7456 38.2031 35.3905 38.2031C34.7434 38.2031 34.2188 38.7278 34.2188 39.375V41.7188C34.2188 48.4316 39.3768 53.9614 45.9375 54.5556V57.6562H39.9611C39.3139 57.6562 38.7892 58.1809 38.7892 58.8281C38.7892 59.4754 39.3139 60 39.9611 60H58.828C59.4751 60 60 59.4754 60 58.8281C60 58.1809 59.4751 57.6562 58.828 57.6562H48.2812C48.2812 56.7737 48.2812 46.0079 48.2812 45.1806C54.842 44.5864 60 39.0566 60 32.3438V30C60 29.3528 59.4751 28.8281 58.828 28.8281C54.473 28.8281 50.6161 30.9994 48.2812 34.3158V25.7275C54.842 25.1333 60 19.6035 60 12.8906ZM45.9375 52.2009C40.6714 51.6161 36.5625 47.1382 36.5625 41.7188V40.6116C41.8286 41.1964 45.9375 45.6743 45.9375 51.0938V52.2009ZM57.6562 31.2366V32.3438C57.6562 37.7632 53.5473 42.2411 48.2812 42.8259V41.7188C48.2812 36.2993 52.3903 31.8214 57.6562 31.2366ZM47.1094 23.4375C41.2938 23.4375 36.5625 18.7062 36.5625 12.8906C36.5625 7.07508 41.2938 2.34375 47.1094 2.34375C52.9249 2.34375 57.6562 7.07508 57.6562 12.8906C57.6562 18.7062 52.9249 23.4375 47.1094 23.4375Z" fill="#0088CC"/>
<path d="M34.6875 60C35.3347 60 35.8594 59.4753 35.8594 58.8281C35.8594 58.1809 35.3347 57.6562 34.6875 57.6562C34.0403 57.6562 33.5156 58.1809 33.5156 58.8281C33.5156 59.4753 34.0403 60 34.6875 60Z" fill="#0088CC"/>
<path d="M1.17188 57.6562C0.524766 57.6562 0 58.1809 0 58.8281C0 59.4754 0.524766 60 1.17188 60H29.4139C30.0611 60 30.5858 59.4754 30.5858 58.8281C30.5858 58.1809 30.0611 57.6562 29.4139 57.6562H23.4375C23.4375 55.3423 23.4375 49.7729 23.4375 47.493C27.4073 46.9225 30.4688 43.5002 30.4688 39.375V37.0312C30.4688 36.384 29.944 35.8594 29.2969 35.8594C27.0033 35.8594 24.9277 36.8067 23.4375 38.3293V31.0868C27.4073 30.5162 30.4688 27.094 30.4688 22.9688C30.4688 18.4455 26.7888 14.7656 22.2656 14.7656C17.7424 14.7656 14.0625 18.4455 14.0625 22.9688C14.0625 27.094 17.1239 30.5163 21.0938 31.0868V45.3606C19.6036 43.838 17.528 42.8906 15.2344 42.8906C14.5873 42.8906 14.0625 43.4153 14.0625 44.0625V46.4062C14.0625 50.5315 17.1239 53.9538 21.0938 54.5243V57.6562H7.03125C7.03125 55.5511 7.03125 49.5732 7.03125 47.4602C9.70254 46.9158 11.7188 44.5485 11.7188 41.7188V39.375C11.7188 38.7278 11.194 38.2031 10.5469 38.2031C9.22887 38.2031 8.01129 38.6408 7.03125 39.3782V34.6875C7.03125 34.0403 6.50648 33.5156 5.85938 33.5156C5.21227 33.5156 4.6875 34.0403 4.6875 34.6875V46.4094C3.70746 45.6721 2.48988 45.2344 1.17188 45.2344C0.524766 45.2344 0 45.759 0 46.4062V48.75C0 51.5796 2.01621 53.947 4.6875 54.4915V57.6562H1.17188ZM28.125 38.3208V39.375C28.125 42.2046 26.1087 44.5721 23.4375 45.1167V44.0625C23.4375 41.2329 25.4538 38.8654 28.125 38.3208ZM16.4062 22.9688C16.4062 19.7379 19.0348 17.1094 22.2656 17.1094C25.4965 17.1094 28.125 19.7379 28.125 22.9688C28.125 26.1996 25.4965 28.8281 22.2656 28.8281C19.0348 28.8281 16.4062 26.1996 16.4062 22.9688ZM16.4062 46.4062V45.352C19.0774 45.8965 21.0938 48.2641 21.0938 51.0938V52.148C18.4226 51.6034 16.4062 49.2359 16.4062 46.4062ZM7.03125 44.0625C7.03125 42.5346 8.01082 41.2314 9.375 40.7476V41.7188C9.375 43.2466 8.39543 44.5499 7.03125 45.0336V44.0625ZM2.34375 48.75V47.7789C3.70793 48.2625 4.6875 49.5659 4.6875 51.0938V52.0649C3.32332 51.5811 2.34375 50.2779 2.34375 48.75Z" fill="#0088CC"/>
</g>
</g>
<defs>
<clipPath id="clip0_288_527">
<rect width="60" height="60" fill="white"/>
</clipPath>
</defs>
</svg>
