<svg width="25" height="30" viewBox="0 0 25 30" fill="none" xmlns="http://www.w3.org/2000/svg">
<path d="M23.4248 10.228C23.2524 10.363 20.2087 12.0942 20.2087 15.9436C20.2087 20.396 24.0817 21.9712 24.1976 22.0102C24.1798 22.1062 23.5823 24.1674 22.1556 26.2676C20.8835 28.1158 19.5548 29.961 17.5337 29.961C15.5125 29.961 14.9923 28.7759 12.6591 28.7759C10.3853 28.7759 9.57679 30 7.72801 30C5.87923 30 4.58925 28.2898 3.10607 26.1896C1.38807 23.7234 0 19.892 0 16.2556C0 10.423 3.757 7.32973 7.45456 7.32973C9.41926 7.32973 11.057 8.63186 12.2905 8.63186C13.4646 8.63186 15.2955 7.25173 17.5307 7.25173C18.3778 7.25173 21.4215 7.32973 23.4248 10.228ZM16.4696 4.78248C17.394 3.67537 18.0479 2.13921 18.0479 0.60306C18.0479 0.390039 18.03 0.174017 17.9914 0C16.4874 0.0570057 14.6981 1.0111 13.6191 2.27423C12.772 3.24632 11.9814 4.78248 11.9814 6.33963C11.9814 6.57366 12.02 6.80768 12.0379 6.88269C12.133 6.90069 12.2875 6.92169 12.4421 6.92169C13.7915 6.92169 15.4887 6.0096 16.4696 4.78248Z" fill="black"/>
</svg>
