<svg width="60" height="14" viewBox="0 0 60 14" fill="none" xmlns="http://www.w3.org/2000/svg">
<path d="M8.2436 13.7594H10.7691V3.49223H8.2436V4.33036C5.85644 2.65409 2.60436 3.24777 0.94373 5.65741C-0.716903 8.06705 -0.128762 11.3497 2.2584 13.026C4.05742 14.2832 6.44458 14.2832 8.2436 13.026V13.7594ZM2.46598 8.66073C2.46598 7.0543 3.78065 5.72726 5.37209 5.72726C6.96353 5.72726 8.27819 7.0543 8.27819 8.66073C8.27819 10.2672 6.96353 11.5942 5.37209 11.5942C3.78065 11.5942 2.46598 10.3021 2.46598 8.66073ZM20.041 0V4.33036C17.6539 2.65409 14.4018 3.2827 12.7411 5.65741C11.0805 8.03213 11.7032 11.3497 14.0558 13.026C15.8548 14.2832 18.242 14.2832 20.041 13.026V13.7594H22.5666V0L20.041 0ZM14.2634 8.66073C14.2634 7.0543 15.5781 5.72726 17.1695 5.72726C18.7609 5.72726 20.0756 7.0543 20.0756 8.66073C20.0756 10.2672 18.7609 11.5942 17.1695 11.5942C15.5781 11.5942 14.2634 10.3021 14.2634 8.66073ZM26.3376 0H23.812V2.54933H26.3376V0ZM26.3376 3.49223H23.812V13.7594H26.3376V3.49223ZM35.6095 0V4.33036C33.2223 2.65409 29.9702 3.24777 28.3096 5.65741C26.649 8.06705 27.2371 11.3497 29.6243 13.026C31.4233 14.2832 33.8104 14.2832 35.6095 13.026V13.7594H38.135V0L35.6095 0ZM29.8318 8.66073C29.8318 7.0543 31.1465 5.72726 32.7379 5.72726C34.3294 5.72726 35.644 7.0543 35.644 8.66073C35.644 10.2672 34.3294 11.5942 32.7379 11.5942C31.1465 11.5942 29.8318 10.3021 29.8318 8.66073ZM47.4415 13.7594H49.967V3.49223H47.4415V4.33036C45.0543 2.65409 41.8022 3.24777 40.1416 5.65741C38.481 8.06705 39.0691 11.3497 41.4563 13.026C43.2553 14.2832 45.6424 14.2832 47.4415 13.026V13.7594ZM41.6638 8.66073C41.6638 7.0543 42.9785 5.72726 44.57 5.72726C46.1614 5.72726 47.4761 7.0543 47.4761 8.66073C47.4761 10.2672 46.1614 11.5942 44.57 11.5942C42.9439 11.5942 41.6638 10.3021 41.6638 8.66073ZM50.9011 10.4068C50.9703 12.4673 52.7347 13.934 55.6408 13.934C58.028 13.934 60 12.8863 60 10.5815C60 8.97503 59.1005 8.03213 57.0247 7.64798L55.3987 7.33368C54.3608 7.12415 53.6342 6.94954 53.6342 6.32094C53.6342 5.62249 54.3262 5.34311 55.1911 5.34311C56.4712 5.34311 56.9901 5.97171 57.0247 6.74H59.5848C59.4465 4.71451 57.855 3.38746 55.2949 3.38746C52.6655 3.38746 51.0741 4.8542 51.0741 6.77493C51.0741 9.11472 52.9423 9.49886 54.5683 9.77824L55.9176 10.0227C56.8863 10.1973 57.3015 10.4767 57.3015 11.0354C57.3015 11.5244 56.8171 12.0482 55.6754 12.0482C54.0148 12.0482 53.4959 11.1751 53.4613 10.4418L50.9011 10.4068Z" fill="black"/>
</svg>
