<svg width="60" height="19" viewBox="0 0 60 19" fill="none" xmlns="http://www.w3.org/2000/svg">
<path fill-rule="evenodd" clip-rule="evenodd" d="M37.2236 14.2732C33.7369 16.8674 28.6832 18.2515 24.332 18.2515C18.2309 18.2515 12.7384 15.9737 8.58312 12.1852C8.25665 11.8873 8.54916 11.4813 8.94093 11.7133C13.4253 14.347 18.9701 15.9315 24.6977 15.9315C28.5604 15.9315 32.8098 15.1248 36.7169 13.4507C37.3072 13.1976 37.8008 13.8409 37.2236 14.2732Z" fill="#FF9900"/>
<path fill-rule="evenodd" clip-rule="evenodd" d="M38.6733 12.5991C38.2293 12.0244 35.7272 12.3276 34.6042 12.462C34.262 12.5042 34.2098 12.2037 34.518 11.9875C36.5107 10.5718 39.7806 10.9804 40.162 11.4549C40.5433 11.9321 40.0627 15.2407 38.1901 16.8199C37.9028 17.0624 37.6286 16.9333 37.7565 16.6116C38.177 15.5518 39.1199 13.1765 38.6733 12.5991Z" fill="#FF9900"/>
<path fill-rule="evenodd" clip-rule="evenodd" d="M34.6813 1.99297V0.616796C34.6813 0.408525 34.8381 0.268799 35.0261 0.268799H41.1298C41.3256 0.268799 41.4824 0.411162 41.4824 0.616796V1.79524C41.4797 1.99297 41.3152 2.25133 41.0227 2.65997L37.8598 7.21821C39.0351 7.18921 40.2757 7.36585 41.3413 7.97221C41.5816 8.1093 41.6469 8.30966 41.6652 8.50739V9.97583C41.6652 10.1762 41.4458 10.4108 41.216 10.2896C39.3381 9.29565 36.8439 9.18756 34.7675 10.3001C34.556 10.4161 34.334 10.1841 34.334 9.98374V8.58911C34.334 8.36502 34.3366 7.98275 34.5586 7.64266L38.2229 2.33833H35.0339C34.8381 2.33833 34.6813 2.19861 34.6813 1.99297Z" fill="black"/>
<path fill-rule="evenodd" clip-rule="evenodd" d="M12.4162 10.5797H10.5592C10.3816 10.5665 10.2406 10.432 10.2275 10.2607V0.640647C10.2275 0.448194 10.3869 0.295284 10.5854 0.295284H12.3169C12.4972 0.303188 12.6408 0.442919 12.6539 0.616918V1.87446H12.6878C13.1396 0.6591 13.9885 0.0922852 15.1324 0.0922852C16.2946 0.0922852 17.0207 0.6591 17.5431 1.87446C17.9923 0.6591 19.0135 0.0922852 20.1078 0.0922852C20.8861 0.0922852 21.7375 0.416556 22.2573 1.14419C22.8449 1.95355 22.7248 3.12936 22.7248 4.16017L22.7222 10.2317C22.7222 10.4241 22.5629 10.5797 22.3644 10.5797H20.51C20.3246 10.5665 20.1757 10.4162 20.1757 10.2317V5.13298C20.1757 4.72698 20.2123 3.71463 20.1235 3.32972C19.9851 2.68382 19.5698 2.50191 19.0318 2.50191C18.5825 2.50191 18.1124 2.80509 17.9218 3.29018C17.7311 3.77526 17.7494 4.58726 17.7494 5.13298V10.2317C17.7494 10.4241 17.5901 10.5797 17.3916 10.5797H15.5372C15.3492 10.5665 15.2029 10.4162 15.2029 10.2317L15.2003 5.13298C15.2003 4.05999 15.3753 2.48082 14.0564 2.48082C12.7218 2.48082 12.774 4.02044 12.774 5.13298V10.2317C12.774 10.4241 12.6147 10.5797 12.4162 10.5797" fill="black"/>
<path fill-rule="evenodd" clip-rule="evenodd" d="M46.7364 0.0922852C49.4918 0.0922852 50.9831 2.48082 50.9831 5.5179C50.9831 8.45216 49.3351 10.7801 46.7364 10.7801C44.0306 10.7801 42.5576 8.39152 42.5576 5.41508C42.5576 2.42018 44.0489 0.0922852 46.7364 0.0922852ZM46.7521 2.05637C45.3835 2.05637 45.2973 3.93872 45.2973 5.1119C45.2973 6.28771 45.2791 8.79752 46.7364 8.79752C48.1755 8.79752 48.2434 6.7728 48.2434 5.53899C48.2434 4.72699 48.2095 3.75681 47.9666 2.987C47.7576 2.31737 47.3424 2.05637 46.7521 2.05637Z" fill="black"/>
<path fill-rule="evenodd" clip-rule="evenodd" d="M54.5571 10.5797H52.708C52.5226 10.5665 52.3737 10.4162 52.3737 10.2317L52.3711 0.609009C52.3868 0.432374 52.5409 0.295284 52.7289 0.295284H54.45C54.612 0.303188 54.7452 0.41392 54.7817 0.564192V2.03527H54.8157C55.3354 0.719736 56.0641 0.0922852 57.3465 0.0922852C58.1796 0.0922852 58.9918 0.395466 59.5142 1.22591C60 1.99573 60 3.29018 60 4.2208V10.2765C59.9791 10.4452 59.825 10.5797 59.6422 10.5797H57.78C57.6102 10.5665 57.4692 10.44 57.4509 10.2765V5.05126C57.4509 3.99935 57.5711 2.45972 56.2887 2.45972C55.8369 2.45972 55.4216 2.76554 55.2153 3.22954C54.9541 3.81745 54.9201 4.40271 54.9201 5.05126V10.2317C54.9175 10.4241 54.7556 10.5797 54.5571 10.5797" fill="black"/>
<path fill-rule="evenodd" clip-rule="evenodd" d="M29.8154 5.98451C29.8154 6.71478 29.8337 7.32377 29.468 7.97232C29.1729 8.49959 28.7028 8.82386 28.183 8.82386C27.47 8.82386 27.0521 8.2755 27.0521 7.46614C27.0521 5.86851 28.4703 5.57851 29.8154 5.57851V5.98451ZM31.688 10.5533C31.5653 10.664 31.3877 10.6719 31.2493 10.5981C30.6329 10.0814 30.5206 9.84149 30.1837 9.34849C29.1651 10.3978 28.4416 10.7115 27.1227 10.7115C25.5582 10.7115 24.3438 9.73867 24.3438 7.79041C24.3438 6.26924 25.1586 5.23315 26.3235 4.72697C27.3316 4.27879 28.7393 4.1997 29.8154 4.0758V3.83325C29.8154 3.38771 29.8493 2.86044 29.5882 2.47553C29.3636 2.13017 28.93 1.98781 28.5461 1.98781C27.8383 1.98781 27.2089 2.35426 27.0548 3.11353C27.0234 3.28225 26.9007 3.44834 26.7309 3.45625L24.9314 3.26116C24.7799 3.22689 24.6101 3.10298 24.6545 2.86835C25.0672 0.664361 27.0417 0 28.8073 0C29.7109 0 30.8914 0.242544 31.6045 0.933267C32.5081 1.78481 32.4219 2.92107 32.4219 4.15752V7.07859C32.4219 7.9565 32.7824 8.3414 33.1219 8.81595C33.2394 8.98467 33.2655 9.18767 33.114 9.31422C32.7353 9.63322 32.0615 10.2264 31.6906 10.5586L31.688 10.5533" fill="black"/>
<path fill-rule="evenodd" clip-rule="evenodd" d="M5.47163 5.98475C5.47163 6.71502 5.48991 7.32402 5.12426 7.97256C4.82913 8.49983 4.36163 8.8241 3.83928 8.8241C3.12627 8.8241 2.711 8.27574 2.711 7.46638C2.711 5.86875 4.12918 5.57876 5.47163 5.57876V5.98475ZM7.34426 10.5535C7.2215 10.6643 7.0439 10.6722 6.90548 10.5984C6.28911 10.0816 6.17941 9.84173 5.83988 9.34873C4.8213 10.398 4.10046 10.7117 2.77891 10.7117C1.21708 10.7117 0 9.73891 0 7.79065C0 6.26948 0.817479 5.2334 1.97971 4.72722C2.98785 4.27904 4.39558 4.19995 5.47163 4.07604V3.83349C5.47163 3.38795 5.50558 2.86068 5.24702 2.47578C5.01979 2.13041 4.58624 1.98805 4.20493 1.98805C3.49714 1.98805 2.8651 2.3545 2.711 3.11377C2.67966 3.2825 2.55691 3.44859 2.38976 3.4565L0.587645 3.26141C0.436163 3.22714 0.26901 3.10322 0.310798 2.86859C0.726068 0.664606 2.69794 0.000244141 4.46349 0.000244141C5.36716 0.000244141 6.54767 0.242789 7.26068 0.933511C8.16435 1.78505 8.07816 2.92132 8.07816 4.15777V7.07884C8.07816 7.95674 8.43858 8.34165 8.77811 8.81619C8.89825 8.98492 8.92437 9.18792 8.77288 9.31446C8.39418 9.63346 7.72035 10.2266 7.34948 10.5588L7.34426 10.5535" fill="black"/>
</svg>
