<svg width="31" height="30" viewBox="0 0 31 30" fill="none" xmlns="http://www.w3.org/2000/svg">
<g clip-path="url(#clip0_13_851)">
<path d="M30.5 15C30.5 23.2842 23.7842 30 15.5 30C7.21578 30 0.5 23.2842 0.5 15C0.5 15.0035 15.5 0.00169922 15.5 0C23.7842 0 30.5 6.71578 30.5 15Z" fill="#0052B4"/>
<path d="M15.4996 0C15.4988 0 15.4979 7.8125e-05 15.4971 7.8125e-05L15.4996 0Z" fill="#F0F0F0"/>
<path d="M15.46 15H15.5001C15.5001 14.9864 15.5001 14.9734 15.5001 14.9598C15.4867 14.9733 15.4734 14.9866 15.46 15Z" fill="#F0F0F0"/>
<path d="M15.5 7.8262C15.5 5.18684 15.5 3.45733 15.5 0.00012207H15.4975C7.21437 0.00146973 0.5 6.71661 0.5 15.0001H8.32607V10.5931L12.733 15.0001H15.4599C15.4733 14.9867 15.4867 14.9733 15.5001 14.9599C15.5001 13.9494 15.5001 13.0477 15.5001 12.2332L11.093 7.8262H15.5Z" fill="#F0F0F0"/>
<path d="M8.08832 1.95654C5.74228 3.29242 3.79193 5.24277 2.45605 7.58881V15H6.36912V5.86967L15.4996 5.86961C15.4996 4.63545 15.4996 3.45971 15.4996 1.95654H8.08832Z" fill="#D80027"/>
<path d="M15.5 13.1554L10.1708 7.8262H8.32617L15.5 15H15.5C15.5 15 15.5 13.7282 15.5 13.1554Z" fill="#D80027"/>
<path d="M9.54686 17.6088L10.3701 19.3301L12.2291 18.9005L11.3966 20.6174L12.8916 21.8029L11.0302 22.2224L11.0354 24.1305L9.54686 22.9368L8.05834 24.1305L8.06356 22.2224L6.20215 21.8029L7.69717 20.6174L6.86455 18.9005L8.72367 19.3301L9.54686 17.6088Z" fill="#F0F0F0"/>
<path d="M22.9585 20.8696L23.3701 21.7303L24.2996 21.5154L23.8833 22.3739L24.6308 22.9667L23.7001 23.1765L23.7027 24.1305L22.9585 23.5336L22.2142 24.1305L22.2168 23.1765L21.2861 22.9667L22.0336 22.3739L21.6174 21.5154L22.5468 21.7303L22.9585 20.8696Z" fill="#F0F0F0"/>
<path d="M19.1294 11.7391L19.541 12.5999L20.4705 12.385L20.0543 13.2434L20.8017 13.8362L19.8711 14.046L19.8736 15L19.1294 14.4031L18.3852 15L18.3877 14.046L17.457 13.8362L18.2045 13.2434L17.7883 12.385L18.7178 12.5999L19.1294 11.7391Z" fill="#F0F0F0"/>
<path d="M22.9585 6.52173L23.3701 7.38247L24.2996 7.16761L23.8834 8.02606L24.6308 8.6188L23.7001 8.82862L23.7027 9.78265L22.9585 9.18575L22.2142 9.78265L22.2168 8.82862L21.2861 8.6188L22.0336 8.02606L21.6174 7.16761L22.5468 7.38247L22.9585 6.52173Z" fill="#F0F0F0"/>
<path d="M26.3032 10.4348L26.7148 11.2956L27.6443 11.0806L27.2281 11.9391L27.9756 12.5319L27.0449 12.7417L27.0474 13.6957L26.3032 13.0988L25.559 13.6957L25.5615 12.7417L24.6309 12.5319L25.3783 11.9391L24.9621 11.0806L25.8916 11.2956L26.3032 10.4348Z" fill="#F0F0F0"/>
<path d="M23.9115 15L24.2353 15.9964H25.283L24.4354 16.6123L24.7592 17.6087L23.9115 16.9929L23.0639 17.6087L23.3877 16.6123L22.54 15.9964H23.5878L23.9115 15Z" fill="#F0F0F0"/>
</g>
<defs>
<clipPath id="clip0_13_851">
<rect width="30" height="30" fill="white" transform="translate(0.5)"/>
</clipPath>
</defs>
</svg>
