<svg width="30" height="30" viewBox="0 0 30 30" fill="none" xmlns="http://www.w3.org/2000/svg">
<g clip-path="url(#clip0_13_860)">
<path d="M15 30C23.2843 30 30 23.2843 30 15C30 6.71573 23.2843 0 15 0C6.71573 0 0 6.71573 0 15C0 23.2843 6.71573 30 15 30Z" fill="#F0F0F0"/>
<path d="M29.9998 15C29.9998 9.05309 26.5389 3.91465 21.5215 1.4884V28.5115C26.5389 26.0854 29.9998 20.9469 29.9998 15Z" fill="#D80027"/>
<path d="M0 15C0 20.9469 3.46084 26.0854 8.47828 28.5116V1.4884C3.46084 3.91465 0 9.05309 0 15Z" fill="#D80027"/>
<path d="M17.6083 16.9565L20.217 15.6522L18.9127 15V13.6957L16.3039 15L17.6083 12.3913H16.3039L14.9996 10.4348L13.6952 12.3913H12.3909L13.6952 15L11.0865 13.6957V15L9.78223 15.6522L12.3909 16.9565L11.7387 18.2609H14.3474V20.2174H15.6517V18.2609H18.2604L17.6083 16.9565Z" fill="#D80027"/>
</g>
<defs>
<clipPath id="clip0_13_860">
<rect width="30" height="30" fill="white"/>
</clipPath>
</defs>
</svg>
