<svg width="30" height="30" viewBox="0 0 30 30" fill="none" xmlns="http://www.w3.org/2000/svg">
<path d="M30 15C30 23.2843 23.2843 30 15 30C6.71573 30 0 23.2843 0 15C0 6.71573 6.71573 0 15 0C23.2843 0 30 6.71573 30 15Z" fill="#CC6449"/>
<path fill-rule="evenodd" clip-rule="evenodd" d="M15 28.3333C22.3638 28.3333 28.3333 22.3638 28.3333 15C28.3333 7.6362 22.3638 1.66667 15 1.66667C7.6362 1.66667 1.66667 7.6362 1.66667 15C1.66667 22.3638 7.6362 28.3333 15 28.3333ZM15 30C23.2843 30 30 23.2843 30 15C30 6.71573 23.2843 0 15 0C6.71573 0 0 6.71573 0 15C0 23.2843 6.71573 30 15 30Z" fill="#9A4631"/>
<path fill-rule="evenodd" clip-rule="evenodd" d="M17.461 11.2764C13.8804 11.4224 11.6381 13.6289 11.2845 17.4528C11.2541 17.7823 11.1781 18.0548 11.1129 18.2888C10.9958 18.7089 10.9133 19.0047 11.1912 19.2826C11.4852 19.5767 11.8755 19.4831 12.3425 19.3712C12.5624 19.3184 12.7994 19.2616 13.0512 19.2393C16.7249 18.9139 19.0633 16.4427 19.1943 13.0097C19.2074 12.6684 19.2869 12.3852 19.3555 12.1413C19.4654 11.7502 19.547 11.46 19.2803 11.1934C19.0356 10.9487 18.7948 11.021 18.4573 11.1222C18.1976 11.2001 17.8808 11.2952 17.461 11.2764ZM17.4812 12.2822C17.4755 12.2821 17.4698 12.2819 17.4641 12.2817C16.5614 12.3228 15.7846 12.5097 15.1284 12.8198L16.036 13.7274L17.4812 12.2822ZM13.8715 13.6972C13.9904 13.5788 14.1165 13.4669 14.2497 13.3618L15.3257 14.4377L14.3922 15.3711L13.3463 14.3253C13.5069 14.0946 13.6825 13.8854 13.8715 13.6972ZM12.8403 15.24C12.5667 15.8713 12.3779 16.6131 12.292 17.4714L13.6819 16.0815L12.8403 15.24ZM14.3922 16.7919L12.9437 18.2404C12.95 18.2398 12.9563 18.2392 12.9626 18.2386C13.8259 18.1622 14.588 17.9545 15.2434 17.643L14.3922 16.7919ZM16.1325 17.1114C16.3495 16.9507 16.5494 16.7758 16.7319 16.5886C16.8545 16.4628 16.9704 16.3303 17.0792 16.1913L16.036 15.1481L15.1026 16.0815L16.1325 17.1114ZM18.1895 12.9945C18.1535 13.8622 17.9567 14.6417 17.6258 15.3172L16.7464 14.4377L18.1895 12.9945Z" fill="white"/>
<path fill-rule="evenodd" clip-rule="evenodd" d="M9.29022 21.0678C9.73107 21.5206 10.3057 21.3941 10.9933 21.2426C11.3315 21.1681 11.6971 21.0876 12.0876 21.0672C17.6159 20.7771 21.0642 17.2564 21.074 12.0807C21.075 11.5778 21.1728 11.1631 21.258 10.8019C21.3997 10.201 21.5065 9.74812 21.0746 9.28339C20.6896 8.86921 20.3522 8.98614 19.8768 9.15086C19.498 9.28206 19.0319 9.4436 18.3844 9.39117C12.9867 9.41547 9.72231 12.624 9.39799 18.3776C9.36856 18.8999 9.25001 19.3172 9.14989 19.6697C8.98437 20.2524 8.86919 20.6579 9.29022 21.0678ZM18.35 10.396C15.8723 10.4148 13.9949 11.1563 12.6974 12.4479C11.3872 13.7522 10.5533 15.7319 10.401 18.4342C10.3643 19.0845 10.1984 19.6635 10.098 20.0139C9.99164 20.3851 9.90778 20.4217 10.3292 20.3528C10.9007 20.2591 11.4527 20.0945 12.0349 20.064C14.5964 19.9296 16.5893 19.0541 17.9378 17.6978C19.2826 16.3452 20.065 14.4362 20.0694 12.0788C20.0709 11.2803 20.2908 10.5605 20.3488 10.2651C20.3925 10.0429 20.4062 10.0301 20.211 10.0987C19.8374 10.2299 19.197 10.4547 18.35 10.396Z" fill="white"/>
</svg>
