<svg width="30" height="30" viewBox="0 0 30 30" fill="none" xmlns="http://www.w3.org/2000/svg">
<path d="M30 15C30 23.2843 23.2843 30 15 30C6.71573 30 0 23.2843 0 15C0 6.71573 6.71573 0 15 0C23.2843 0 30 6.71573 30 15Z" fill="#733E33"/>
<path fill-rule="evenodd" clip-rule="evenodd" d="M15 28.3333C22.3638 28.3333 28.3333 22.3638 28.3333 15C28.3333 7.6362 22.3638 1.66667 15 1.66667C7.6362 1.66667 1.66667 7.6362 1.66667 15C1.66667 22.3638 7.6362 28.3333 15 28.3333ZM15 30C23.2843 30 30 23.2843 30 15C30 6.71573 23.2843 0 15 0C6.71573 0 0 6.71573 0 15C0 23.2843 6.71573 30 15 30Z" fill="#33180A"/>
<path fill-rule="evenodd" clip-rule="evenodd" d="M8.25 18.3597C8.25 20.34 10.257 21.75 12.4601 21.75C14.6633 21.75 16.6703 20.34 16.6703 18.3597C16.6703 16.3795 14.6633 14.9694 12.4601 14.9694C10.257 14.9694 8.25 16.3795 8.25 18.3597ZM12.4601 20.7595C10.56 20.7595 9.24055 19.5772 9.24055 18.3597C9.24055 17.1422 10.56 15.9599 12.4601 15.9599C14.3603 15.9599 15.6797 17.1422 15.6797 18.3597C15.6797 19.5772 14.3603 20.7595 12.4601 20.7595Z" fill="white"/>
<path fill-rule="evenodd" clip-rule="evenodd" d="M10.5585 18.2514C9.74325 18.2514 9.33425 18.0999 8.91913 17.932L8.54785 18.8504C9.03505 19.0473 9.57443 19.2419 10.5585 19.2419C11.6011 19.2419 12.1449 19.023 12.6476 18.8185L12.656 18.8151C13.1013 18.634 13.509 18.4681 14.3635 18.4681C15.1788 18.4681 15.5878 18.6197 16.003 18.7875L16.3743 17.8692C15.887 17.6722 15.3476 17.4776 14.3635 17.4776C13.3208 17.4776 12.777 17.6965 12.2744 17.901L12.2659 17.9044C11.8206 18.0855 11.4129 18.2514 10.5585 18.2514Z" fill="white"/>
<path fill-rule="evenodd" clip-rule="evenodd" d="M15.8848 19.4265C17.2914 20.0665 19.1359 19.5749 20.4344 18.2764C21.9923 16.7186 22.4143 14.3024 21.0141 12.9021C19.8495 11.7375 17.9608 11.8405 16.4912 12.7918L17.0295 13.6233C18.2606 12.8264 19.5935 12.8824 20.3137 13.6026L20.3137 13.6026C21.1746 14.4634 21.0776 16.2324 19.734 17.576C18.643 18.667 17.2274 18.9491 16.295 18.5249L15.8848 19.4265Z" fill="white"/>
<path fill-rule="evenodd" clip-rule="evenodd" d="M16.6155 17.148C16.337 17.4266 16.1033 17.6097 15.8975 17.7424L16.4342 18.575C16.7056 18.3999 16.9934 18.1709 17.3159 17.8485L17.316 17.8484C18.0532 17.1112 18.2829 16.5719 18.4938 16.0718L18.4973 16.0634C18.6841 15.6205 18.8551 15.2149 19.4593 14.6107C20.0358 14.0342 20.4322 13.8521 20.8445 13.6773L20.4577 12.7654C19.9738 12.9706 19.4548 13.2144 18.7589 13.9103C18.0217 14.6476 17.792 15.1869 17.5811 15.6869L17.5775 15.6953C17.3908 16.1382 17.2197 16.5438 16.6156 17.148C16.6156 17.148 16.6155 17.148 16.6155 17.148Z" fill="white"/>
<path fill-rule="evenodd" clip-rule="evenodd" d="M15.2357 16.6151C15.901 16.1452 16.473 15.4576 16.853 14.6156L16.853 14.6156C17.7592 12.6074 17.2995 10.1981 15.4945 9.38358L15.4944 9.38358C13.6895 8.5691 11.5787 9.81848 10.6725 11.8266C10.0351 13.2392 10.0753 14.792 10.7457 15.9007L11.5934 15.3882C11.1209 14.6068 11.0469 13.4052 11.5754 12.2341L11.5754 12.2341C12.357 10.5021 13.9773 9.7857 15.087 10.2865L15.2859 9.84571L15.087 10.2865C16.1968 10.7872 16.7317 12.4761 15.9501 14.2081C15.6393 14.8969 15.1783 15.4429 14.6642 15.806L15.2357 16.6151Z" fill="white"/>
<path fill-rule="evenodd" clip-rule="evenodd" d="M13.5713 15.7491C13.6427 15.6179 13.7137 15.475 13.7845 15.3181L13.7845 15.3181C14.2134 14.3677 14.2374 13.782 14.2578 13.2397L14.2582 13.2306C14.2762 12.7503 14.2928 12.3104 14.6442 11.5316L14.6442 11.5316C14.9795 10.7885 15.2859 10.478 15.6096 10.1687L14.9253 9.45252C14.5453 9.81559 14.1461 10.2272 13.7413 11.1241C13.3125 12.0745 13.2884 12.6602 13.268 13.2025L13.2677 13.2117C13.2496 13.692 13.2331 14.1318 12.8816 14.9106M13.5713 15.7491L12.7012 15.2759L13.5713 15.7491ZM12.7012 15.2759C12.76 15.1677 12.8202 15.0469 12.8816 14.9107L12.7012 15.2759Z" fill="white"/>
</svg>
