<svg width="30" height="30" viewBox="0 0 30 30" fill="none" xmlns="http://www.w3.org/2000/svg">
<path d="M30 15C30 23.2843 23.2843 30 15 30C6.71573 30 0 23.2843 0 15C0 6.71573 6.71573 0 15 0C23.2843 0 30 6.71573 30 15Z" fill="#A6B24C"/>
<path fill-rule="evenodd" clip-rule="evenodd" d="M15 28.3333C22.3638 28.3333 28.3333 22.3638 28.3333 15C28.3333 7.6362 22.3638 1.66667 15 1.66667C7.6362 1.66667 1.66667 7.6362 1.66667 15C1.66667 22.3638 7.6362 28.3333 15 28.3333ZM15 30C23.2843 30 30 23.2843 30 15C30 6.71573 23.2843 0 15 0C6.71573 0 0 6.71573 0 15C0 23.2843 6.71573 30 15 30Z" fill="#F8D458"/>
<path d="M18.7649 19.6134L18.4716 19.3202C18.2722 19.1237 18.0577 18.9431 17.8302 18.78C17.8479 18.7633 17.8679 18.751 17.8852 18.7336C20.717 15.9017 24.8919 10.4915 22.577 8.17681C20.2623 5.86212 14.8522 10.0368 12.0202 12.8688C12.003 12.8861 11.9906 12.9061 11.9739 12.9236C11.8108 12.6961 11.6302 12.4816 11.4338 12.2822L11.1405 11.989C10.9786 11.8269 10.7159 11.8269 10.554 11.989L9.3811 13.162C7.61952 14.9298 7.29968 17.6748 8.60791 19.8001L7.6215 20.7864C7.54374 20.8641 7.5 20.9697 7.5 21.0796C7.5 21.1896 7.54374 21.2951 7.6215 21.3729L9.3811 23.1323C9.4587 23.2102 9.56426 23.254 9.67421 23.254C9.78432 23.254 9.88972 23.2102 9.96748 23.1323L10.9537 22.1461C13.079 23.4542 15.8242 23.1345 17.592 21.3729L18.7649 20.2C18.8428 20.1222 18.8865 20.0167 18.8865 19.9067C18.8865 19.7966 18.8428 19.6912 18.7649 19.6134ZM15.3105 17.7876C15.7976 17.2991 16.2663 16.8273 16.7061 16.3816L17.875 17.5507C17.6799 17.7583 17.4867 17.9591 17.2987 18.1471C17.2322 18.2098 17.1622 18.2686 17.0888 18.323C16.5316 18.0428 15.9299 17.8616 15.3105 17.7876ZM14.9576 14.6332L16.1203 15.7958C15.4275 16.4984 14.7571 17.1698 14.1593 17.7676C13.6249 17.8168 13.1008 17.9456 12.6044 18.1495C12.8083 17.6531 12.937 17.129 12.9864 16.5947C13.5842 15.9969 14.2555 15.3264 14.9576 14.6332ZM15.0912 11.2478L16.1545 12.3111C15.7772 12.6733 15.3805 13.0585 14.9641 13.4667L13.8165 12.3191C14.2217 11.9589 14.6496 11.5985 15.0912 11.2478ZM17.1412 9.77877L17.9727 10.6103C17.5942 10.9517 17.1857 11.332 16.7554 11.739L15.7541 10.7375C16.2129 10.3951 16.6783 10.0723 17.1412 9.77877ZM21.9736 8.75104C22.0654 9.14789 21.275 10.2268 20.1045 11.5692L19.1761 10.6408C20.509 9.46773 21.5751 8.66979 21.9581 8.73996C21.9629 8.74421 21.9689 8.74649 21.9736 8.75104ZM19.5531 12.1908C19.1972 12.5852 18.8203 12.9933 18.4269 13.4105L17.3403 12.324C17.7567 11.9299 18.1638 11.5517 18.557 11.1945L19.5531 12.1908ZM18.4348 16.9374L17.2873 15.7897C17.6945 15.3742 18.0796 14.9774 18.4429 14.5994L19.5062 15.6628C19.1553 16.1043 18.7949 16.5322 18.4348 16.9374ZM20.0164 15L19.015 13.9987C19.422 13.5683 19.8023 13.1598 20.1437 12.7814L20.9752 13.6129C20.6815 14.0756 20.3588 14.541 20.0164 15ZM16.7396 12.8963L17.8558 14.0124C17.475 14.4103 17.088 14.8097 16.7018 15.2044L15.5488 14.0516C15.9434 13.6649 16.3425 13.2775 16.7396 12.8963ZM21.4141 12.8788L20.6941 12.1588C21.3382 11.4527 21.9141 10.6873 22.4144 9.87278C22.4409 10.7029 22.0455 11.7586 21.4141 12.8788ZM20.8812 8.33962C20.0667 8.83974 19.3014 9.41564 18.5952 10.0597L17.8753 9.33986C18.9953 8.70852 20.0511 8.31304 20.8811 8.33962H20.8812ZM12.6067 13.4553C12.7949 13.2671 12.9957 13.074 13.2033 12.8788L14.3724 14.0479C13.9267 14.4876 13.4549 14.9563 12.9664 15.4433C12.8922 14.824 12.7112 14.2223 12.4309 13.6649C12.4852 13.5915 12.544 13.5215 12.6067 13.4553ZM9.96748 13.7486L10.8473 12.8688C12.6259 14.6515 12.6259 17.5375 10.8473 19.3202L9.96748 20.2C8.18874 18.4173 8.18874 15.5313 9.96748 13.7486ZM10.2607 21.6662L9.67421 22.2527L8.5013 21.0796L9.08783 20.4931L10.2607 21.6662ZM17.0054 20.7864C15.2227 22.5651 12.3367 22.5651 10.554 20.7864L11.4338 19.9067C13.2165 18.128 16.1025 18.128 17.8852 19.9067L17.0054 20.7864Z" fill="white"/>
</svg>
