<svg width="100" height="100" viewBox="0 0 100 100" fill="none" xmlns="http://www.w3.org/2000/svg">
<g clip-path="url(#clip0_288_549)">
<path d="M91.0093 96.0937H87.9743C84.2122 91.6306 84.2122 84.9317 87.9743 80.4686H91.0093C92.0879 80.4686 92.9625 79.5942 92.9625 78.5155C92.9625 77.4368 92.0879 76.5623 91.0093 76.5623H80.1618C76.3997 72.0992 76.3997 65.4004 80.1618 60.9373H83.1968C84.2753 60.9373 85.1499 60.0628 85.1499 58.9841C85.1499 57.9054 84.2753 57.031 83.1968 57.031H66.7508C67.6176 56.282 68.4358 55.4319 69.1944 54.4837C72.4213 50.4497 74.1987 45.1118 74.1987 39.4528C74.1987 33.7937 72.4213 28.4558 69.1944 24.4218C65.8648 20.2601 61.3996 17.9683 56.6205 17.9683C54.5843 17.9683 52.5743 18.397 50.6798 19.2239C50.5429 17.9563 50.2304 16.7413 49.7698 15.6009C50.0237 15.5886 50.2855 15.5714 50.5558 15.5462C53.5038 15.2704 55.9206 14.2663 57.5447 12.6422C59.1685 11.0184 60.1726 8.6016 60.4484 5.65354C60.6461 3.54298 60.4062 1.85312 60.3959 1.78242C60.2715 0.926946 59.5994 0.254871 58.7439 0.130457C58.673 0.120105 56.9833 -0.11974 54.8726 0.077722C51.9243 0.353505 49.5077 1.35761 47.8837 2.98165C46.3325 4.53302 45.3485 6.80882 45.0229 9.57895C42.7839 7.97738 40.0458 7.03069 37.0889 7.03069C36.0102 7.03069 35.1358 7.90511 35.1358 8.98383C35.1358 10.0625 36.0102 10.937 37.0889 10.937C41.9407 10.937 45.9757 14.4938 46.7274 19.1368C44.894 18.3681 42.9569 17.9683 40.9952 17.9683C36.2162 17.9683 31.7508 20.2603 28.4215 24.4218C25.1943 28.4558 23.4169 33.7937 23.4169 39.4528C23.4169 45.1118 25.1943 50.4497 28.4215 54.4837C29.1801 55.4319 29.9982 56.282 30.865 57.031H12.8839C12.354 57.031 11.847 57.2462 11.479 57.6273C5.55648 63.7601 5.55648 73.7393 11.479 79.8723C11.847 80.2534 12.354 80.4686 12.8839 80.4686H16.8509C13.5331 86.4755 14.3444 94.2806 19.2915 99.4037C19.6595 99.7847 20.1665 100 20.6964 100H91.0093C92.0879 100 92.9625 99.1256 92.9625 98.0468C92.9625 96.9681 92.088 96.0937 91.0093 96.0937ZM50.6464 5.74377C52.1396 4.2506 54.7775 3.90196 56.6212 3.90196H56.6246C56.625 5.74592 56.2769 8.38617 54.7828 9.88012C53.2898 11.3731 50.6526 11.7217 48.8108 11.7221C48.8048 10.017 49.0733 7.31683 50.6464 5.74377ZM27.3238 39.4528C27.3238 29.7601 33.457 21.8745 40.9958 21.8745C43.3286 21.8745 45.6345 22.6501 47.664 24.1177C48.347 24.6115 49.2698 24.6115 49.9528 24.1177C51.9823 22.6501 54.288 21.8745 56.6208 21.8745C64.1596 21.8745 70.2928 29.7601 70.2928 39.4528C70.2928 49.1454 64.1596 57.031 56.6208 57.031C54.288 57.031 51.9821 56.2554 49.9528 54.7878C49.6112 54.5409 49.2099 54.4175 48.8085 54.4175C48.4071 54.4175 48.0056 54.5409 47.6642 54.7878C45.6347 56.2554 43.329 57.031 40.996 57.031C33.4568 57.031 27.3238 49.1454 27.3238 39.4528ZM13.7509 60.9373H75.445C72.7813 65.7599 72.7813 71.7397 75.445 76.5623H40.228V70.7029H63.6656C64.7441 70.7029 65.6188 69.8285 65.6188 68.7498C65.6188 67.6711 64.7441 66.7967 63.6656 66.7967H20.6966C19.6179 66.7967 18.7435 67.6711 18.7435 68.7498C18.7435 69.8285 19.6179 70.7029 20.6966 70.7029H24.6029V76.5623H13.7509C9.99068 72.1 9.99068 65.3998 13.7509 60.9373ZM28.509 70.7029H36.3215V79.6596L33.7963 77.1344C33.0336 76.3717 31.7969 76.3717 31.034 77.1344L28.5088 79.6596L28.509 70.7029ZM21.5677 80.4686H24.6029V84.3749C24.6029 85.1647 25.0789 85.877 25.8086 86.1794C26.5384 86.4819 27.3785 86.3144 27.9371 85.7561L32.4154 81.2778L36.8938 85.7561C37.2676 86.1298 37.767 86.3282 38.2754 86.3282C38.527 86.3282 38.7807 86.2794 39.0223 86.1794C39.7522 85.877 40.228 85.1649 40.228 84.3749V80.4686H83.2575C80.5938 85.2913 80.5938 91.271 83.2575 96.0937H21.5634C17.8028 91.6308 17.8062 84.9311 21.5677 80.4686Z" fill="#0088CC"/>
<path d="M71.4784 86.3281H44.1347C43.056 86.3281 42.1816 87.2025 42.1816 88.2812C42.1816 89.3599 43.056 90.2344 44.1347 90.2344H71.4784C72.557 90.2344 73.4316 89.3599 73.4316 88.2812C73.4316 87.2025 72.5571 86.3281 71.4784 86.3281Z" fill="#0088CC"/>
<path d="M56.0767 29.9794C59.1278 30.8628 61.4884 33.6007 62.237 37.1245C62.4319 38.0429 63.2427 38.6722 64.1454 38.6722C64.2798 38.6722 64.4165 38.6583 64.5532 38.6292C65.6083 38.405 66.2821 37.3679 66.0577 36.3128C65.0093 31.3769 61.6009 27.5124 57.163 26.2275C56.127 25.9275 55.0438 26.5243 54.7436 27.5603C54.4436 28.5962 55.0405 29.6794 56.0767 29.9794Z" fill="#0088CC"/>
</g>
<defs>
<clipPath id="clip0_288_549">
<rect width="100" height="100" fill="white"/>
</clipPath>
</defs>
</svg>
