<svg width="89" height="100" viewBox="0 0 89 100" fill="none" xmlns="http://www.w3.org/2000/svg">
<g clip-path="url(#clip0_288_499)">
<mask id="mask0_288_499" style="mask-type:luminance" maskUnits="userSpaceOnUse" x="0" y="0" width="89" height="100">
<path d="M88.109 0H0V100H88.109V0Z" fill="white"/>
</mask>
<g mask="url(#mask0_288_499)">
<path d="M81.019 43.9887V41.9909H82.7798C83.2468 41.9909 83.6947 41.7804 84.0249 41.4057C84.3552 41.0311 84.5407 40.5229 84.5407 39.9931V33.9996H86.3015C86.7685 33.9996 87.2164 33.7891 87.5466 33.4144C87.8769 33.0398 88.0624 32.5316 88.0624 32.0017C88.0624 19.2756 88.4322 18.7961 86.9178 18.1368C40.8009 -1.48187 44.3226 -0.203258 43.4246 0.156351C-2.28734 19.6152 0.0193854 18.0169 0.0193854 20.0148V32.0017C0.0193854 32.5316 0.204904 33.0398 0.53513 33.4144C0.865355 33.7891 1.31324 33.9996 1.78025 33.9996H3.54111V39.9931C3.54111 40.5229 3.72662 41.0311 4.05685 41.4057C4.38707 41.7804 4.83496 41.9909 5.30197 41.9909H7.06283V43.9887C7.06589 45.2253 7.40598 46.4305 8.03647 47.4391C8.66697 48.4477 9.557 49.2104 10.5845 49.6226V64.3266C9.557 64.7388 8.66697 65.5015 8.03647 66.5101C7.40598 67.5187 7.06589 68.7239 7.06283 69.9605V71.9583H5.30197C4.83496 71.9583 4.38707 72.1688 4.05685 72.5435C3.72662 72.9181 3.54111 73.4263 3.54111 73.9561V79.9496H1.78025C1.31324 79.9496 0.865355 80.1601 0.53513 80.5348C0.204904 80.9094 0.0193854 81.4176 0.0193854 81.9475V91.9366C0.0193854 92.4665 0.204904 92.9746 0.53513 93.3493C0.865355 93.724 1.31324 93.9344 1.78025 93.9344H61.086C63.6295 96.593 66.6258 98.6327 69.8903 99.9279C71.9857 100.727 82.6742 94.8734 86.5657 82.7266C88.5202 76.4934 88.0624 72.7974 88.0624 59.9713C88.0624 59.4415 87.8769 58.9333 87.5466 58.5587C87.2164 58.184 86.7685 57.9735 86.3015 57.9735C83.2974 58.061 80.3071 57.4842 77.4972 56.2754V49.6226C78.5248 49.2104 79.4148 48.4477 80.0453 47.4391C80.6758 46.4305 81.0159 45.2253 81.019 43.9887ZM77.4972 43.9887C77.4972 44.5186 77.3117 45.0267 76.9815 45.4014C76.6513 45.7761 76.2034 45.9865 75.7364 45.9865H65.1712C64.7042 45.9865 64.2563 45.7761 63.9261 45.4014C63.5959 45.0267 63.4103 44.5186 63.4103 43.9887V41.9909H77.4972V43.9887ZM73.9755 54.4174C71.4927 52.7792 70.5594 51.1409 69.1331 52.4196C68.4336 53.0527 67.6984 53.6333 66.9321 54.1577V49.9822H73.9755V54.4174ZM52.8452 71.9583H28.1931V69.9605C28.1901 68.7239 27.85 67.5187 27.2195 66.5101C26.589 65.5015 25.699 64.7388 24.6714 64.3266V49.6226C25.699 49.2104 26.589 48.4477 27.2195 47.4391C27.85 46.4305 28.1901 45.2253 28.1931 43.9887V41.9909H59.8886V43.9887C59.8917 45.2253 60.2318 46.4305 60.8623 47.4391C61.4928 48.4477 62.3828 49.2104 63.4103 49.6226V56.1155C51.3661 61.5496 52.8452 51.2009 52.8452 71.9583ZM14.1063 49.9822H21.1497V63.967H14.1063V49.9822ZM3.54111 21.3933L44.0409 4.17199L84.5407 21.3933V30.0039H3.54111V21.3933ZM81.019 33.9996V37.9952H7.06283V33.9996H81.019ZM24.6714 41.9909V43.9887C24.6714 44.5186 24.4859 45.0267 24.1557 45.4014C23.8255 45.7761 23.3776 45.9865 22.9106 45.9865H12.3454C11.8784 45.9865 11.4305 45.7761 11.1003 45.4014C10.7701 45.0267 10.5845 44.5186 10.5845 43.9887V41.9909H24.6714ZM10.5845 69.9605C10.5845 69.4306 10.7701 68.9225 11.1003 68.5478C11.4305 68.1731 11.8784 67.9627 12.3454 67.9627H22.9106C23.3776 67.9627 23.8255 68.1731 24.1557 68.5478C24.4859 68.9225 24.6714 69.4306 24.6714 69.9605V71.9583H10.5845V69.9605ZM7.06283 75.954C55.9091 75.954 52.9861 75.954 53.0037 76.0938C53.1405 77.392 53.3463 78.6796 53.62 79.9496H7.06283V75.954ZM3.54111 89.9388V83.9453C60.0119 83.9453 54.6941 83.6057 55.1343 84.7045C55.8889 86.5393 56.7908 88.2915 57.8284 89.9388H3.54111ZM84.5407 72.9772C84.5344 77.9616 83.1804 82.8238 80.6612 86.9074C78.1421 90.9909 74.5793 94.0991 70.4538 95.8124C67.5163 94.5899 64.8492 92.6552 62.6382 90.1433C60.4273 87.6314 58.7258 84.6027 57.6523 81.2682C55.9795 76.0738 56.3669 72.7175 56.3669 61.9692C59.66 61.7757 62.8916 60.8811 65.8932 59.332C72.2146 56.0956 68.4112 55.5961 72.9366 58.3531C76.5052 60.5629 80.4779 61.8008 84.5407 61.9692V72.9772Z" fill="#0088CC"/>
<path d="M44.0367 28.0061C45.778 28.0061 47.4803 27.4202 48.9281 26.3226C50.376 25.225 51.5045 23.6649 52.1708 21.8396C52.8372 20.0144 53.0116 18.0059 52.6719 16.0682C52.3321 14.1305 51.4936 12.3506 50.2623 10.9536C49.031 9.55658 47.4622 8.60521 45.7544 8.21977C44.0465 7.83434 42.2762 8.03216 40.6675 8.78821C39.0587 9.54427 37.6836 10.8246 36.7162 12.4673C35.7488 14.11 35.2324 16.0413 35.2324 18.0169C35.2324 20.6662 36.16 23.207 37.8111 25.0803C39.4623 26.9537 41.7017 28.0061 44.0367 28.0061ZM44.0367 12.0235C45.0815 12.0235 46.1028 12.375 46.9716 13.0335C47.8403 13.6921 48.5174 14.6282 48.9172 15.7233C49.317 16.8185 49.4216 18.0236 49.2178 19.1862C49.014 20.3488 48.5108 21.4168 47.7721 22.255C47.0333 23.0932 46.092 23.664 45.0673 23.8953C44.0426 24.1265 42.9804 24.0078 42.0152 23.5542C41.0499 23.1006 40.2249 22.3324 39.6444 21.3468C39.064 20.3611 38.7541 19.2023 38.7541 18.0169C38.7541 16.4274 39.3107 14.9029 40.3014 13.7789C41.292 12.6549 42.6357 12.0235 44.0367 12.0235Z" fill="#0088CC"/>
<path d="M69.5694 71.9603H73.9716C74.4386 71.9603 74.8865 71.7498 75.2167 71.3752C75.5469 71.0005 75.7324 70.4923 75.7324 69.9625C75.7324 69.4326 75.5469 68.9245 75.2167 68.5498C74.8865 68.1751 74.4386 67.9646 73.9716 67.9646H72.2107C72.2107 67.4348 72.0252 66.9266 71.695 66.552C71.3647 66.1773 70.9169 65.9668 70.4498 65.9668C69.9828 65.9668 69.535 66.1773 69.2047 66.552C68.8745 66.9266 68.689 67.4348 68.689 67.9646C67.5215 68.0971 66.4481 68.7504 65.7051 69.7807C64.9621 70.811 64.6103 72.134 64.727 73.4587C64.8438 74.7833 65.4196 76.0011 66.3277 76.8441C67.2358 77.6871 68.4019 78.0863 69.5694 77.9538H71.3303C71.5638 77.9538 71.7877 78.059 71.9528 78.2464C72.1179 78.4337 72.2107 78.6878 72.2107 78.9527C72.2107 79.2176 72.1179 79.4717 71.9528 79.659C71.7877 79.8464 71.5638 79.9516 71.3303 79.9516H66.9281C66.4611 79.9516 66.0132 80.1621 65.683 80.5368C65.3528 80.9114 65.1673 81.4196 65.1673 81.9494C65.1673 82.4793 65.3528 82.9875 65.683 83.3621C66.0132 83.7368 66.4611 83.9473 66.9281 83.9473H68.689C68.689 84.4771 68.8745 84.9853 69.2047 85.36C69.535 85.7346 69.9828 85.9451 70.4498 85.9451C70.9169 85.9451 71.3647 85.7346 71.695 85.36C72.0252 84.9853 72.2107 84.4771 72.2107 83.9473C73.3782 83.8148 74.4515 83.1616 75.1946 82.1312C75.9376 81.1009 76.2894 79.7779 76.1726 78.4532C76.0559 77.1286 75.4801 75.9108 74.572 75.0678C73.6639 74.2248 72.4978 73.8257 71.3303 73.9581H69.5694C69.3359 73.9581 69.112 73.8529 68.9469 73.6656C68.7817 73.4782 68.689 73.2241 68.689 72.9592C68.689 72.6943 68.7817 72.4402 68.9469 72.2529C69.112 72.0655 69.3359 71.9603 69.5694 71.9603Z" fill="#0088CC"/>
</g>
</g>
<defs>
<clipPath id="clip0_288_499">
<rect width="89" height="100" fill="white"/>
</clipPath>
</defs>
</svg>
