<svg width="31" height="30" viewBox="0 0 31 30" fill="none" xmlns="http://www.w3.org/2000/svg">
<g clip-path="url(#clip0_13_839)">
<path d="M15.5 30C23.7843 30 30.5 23.2843 30.5 15C30.5 6.71573 23.7843 0 15.5 0C7.21573 0 0.5 6.71573 0.5 15C0.5 23.2843 7.21573 30 15.5 30Z" fill="#0052B4"/>
<path d="M15.4996 5.86963L15.9853 7.3643H17.5568L16.2854 8.28803L16.771 9.78269L15.4996 8.85891L14.2281 9.78269L14.7138 8.28803L13.4424 7.3643H15.0139L15.4996 5.86963Z" fill="#FFDA44"/>
<path d="M9.04318 8.54385L10.4436 9.25729L11.5548 8.14612L11.3089 9.69827L12.7092 10.4118L11.157 10.6576L10.9112 12.2099L10.1977 10.8096L8.64551 11.0555L9.75674 9.94424L9.04318 8.54385Z" fill="#FFDA44"/>
<path d="M6.36914 15.0001L7.86381 14.5144V12.9429L8.78748 14.2144L10.2822 13.7287L9.35836 15.0001L10.2822 16.2715L8.78748 15.7859L7.86381 17.0573V15.4858L6.36914 15.0001Z" fill="#FFDA44"/>
<path d="M9.04318 21.4563L9.75668 20.0559L8.64551 18.9446L10.1977 19.1906L10.9111 17.7903L11.157 19.3425L12.7092 19.5884L11.309 20.3018L11.5548 21.854L10.4436 20.7428L9.04318 21.4563Z" fill="#FFDA44"/>
<path d="M15.4996 24.1305L15.0139 22.6358H13.4424L14.7139 21.7121L14.2281 20.2175L15.4996 21.1412L16.771 20.2175L16.2854 21.7121L17.5568 22.6358H15.9852L15.4996 24.1305Z" fill="#FFDA44"/>
<path d="M21.956 21.4563L20.5556 20.7428L19.4443 21.8541L19.6903 20.3018L18.29 19.5884L19.8422 19.3425L20.088 17.7903L20.8015 19.1906L22.3536 18.9446L21.2424 20.056L21.956 21.4563Z" fill="#FFDA44"/>
<path d="M24.6297 15.0001L23.1351 15.4858V17.0573L22.2113 15.7858L20.7168 16.2715L21.6405 15.0001L20.7168 13.7287L22.2114 14.2144L23.1351 12.9429V14.5145L24.6297 15.0001Z" fill="#FFDA44"/>
<path d="M21.956 8.54379L21.2425 9.94419L22.3537 11.0554L20.8014 10.8094L20.088 12.2098L19.8422 10.6576L18.29 10.4116L19.6903 9.69821L19.4443 8.14612L20.5557 9.25729L21.956 8.54379Z" fill="#FFDA44"/>
</g>
<defs>
<clipPath id="clip0_13_839">
<rect width="30" height="30" fill="white" transform="translate(0.5)"/>
</clipPath>
</defs>
</svg>
