<svg width="50" height="19" viewBox="0 0 50 19" fill="none" xmlns="http://www.w3.org/2000/svg">
<path d="M48.9687 15.5893L45.0424 10.5818L43.1313 12.9904L46.5994 17.3776C46.7022 17.5749 46.8472 17.7466 47.0239 17.8803C47.2044 18.0173 47.412 18.1133 47.6325 18.1619C47.8531 18.2105 48.0815 18.2105 48.302 18.1619C48.521 18.1177 48.7275 18.0248 48.9065 17.8899C49.0854 17.7551 49.2323 17.5816 49.3365 17.3822C49.4383 17.1873 49.4941 16.9712 49.4997 16.751C49.5053 16.5307 49.4604 16.3121 49.3687 16.1121C49.2758 15.9098 49.1391 15.7311 48.9687 15.5893ZM45.0424 7.33782L48.9687 2.36746C49.1756 2.11995 49.2905 1.81056 49.2951 1.49189C49.2894 1.28885 49.2419 1.08923 49.1557 0.905728C49.0694 0.722227 48.9462 0.558865 48.794 0.426038C48.4811 0.149691 48.0753 0.00467304 47.6599 0.0207364C47.4364 0.0168623 47.215 0.065098 47.013 0.16169C46.811 0.258281 46.6338 0.400624 46.4952 0.577639L43.0792 4.90292L45.0424 7.33782ZM43.7336 8.95903L37.0993 0.579186C36.9534 0.399658 36.7682 0.256695 36.5583 0.161509C36.3458 0.0640462 36.1143 0.0164459 35.8809 0.0222833C35.4672 0.0191894 35.0687 0.173885 34.7714 0.45543C34.6262 0.591693 34.5095 0.755931 34.4281 0.938458C34.3468 1.12098 34.3025 1.3181 34.2979 1.51819C34.3032 1.83914 34.4192 2.14818 34.6258 2.39222L39.8594 8.94666L34.6258 15.5893C34.4599 15.7959 34.3521 16.0439 34.3138 16.3071C34.2755 16.5703 34.3081 16.8391 34.4082 17.0852C34.4818 17.2615 34.5921 17.4224 34.73 17.5585C35.014 17.8364 35.3951 17.9898 35.7905 17.9855C36.0434 17.9979 36.2963 17.9484 36.5246 17.8432C36.7513 17.7383 36.9488 17.5783 37.0993 17.3776L43.7336 8.95903Z" fill="#0372B9"/>
<path d="M6.16188 17.7583H1.18884C0.742872 17.7583 0.315308 17.5881 -0.000391424 17.2834C-0.155745 17.1357 -0.280055 16.958 -0.36589 16.7607C-0.451725 16.5635 -0.497333 16.3509 -0.5 16.1355V1.83549C-0.498467 1.62201 -0.454027 1.41162 -0.366674 1.21516C-0.280852 1.0187 -0.15671 0.840797 0.00114024 0.690742C0.324284 0.389217 0.748784 0.22279 1.18884 0.225109H6.16188C7.35981 0.177737 8.55505 0.372333 9.67748 0.797482C10.7962 1.22289 11.8108 1.86797 12.6582 2.6925C13.5057 3.51703 14.1678 4.50244 14.6015 5.5884C15.0352 6.67436 15.2314 7.83457 15.1777 8.99788C15.2298 10.1581 15.0321 11.3183 14.5969 12.4012C14.1578 13.4926 13.4956 14.4783 12.6536 15.294C11.7983 16.1225 10.7846 16.7663 9.67442 17.1859C8.55568 17.6098 7.36031 17.8047 6.16188 17.7583ZM5.99177 3.20454H2.81025V14.7912H5.99023C6.7835 14.8434 7.57885 14.7286 8.3258 14.454C9.06523 14.183 9.73913 13.7564 10.3028 13.2025C10.8606 12.6533 11.2897 11.9912 11.5594 11.2657C11.8292 10.5402 11.9334 9.76517 11.8659 8.99788C11.9336 8.2283 11.8289 7.4532 11.5594 6.73005C11.2866 5.99865 10.8575 5.33687 10.3028 4.79172C9.73898 4.23835 9.0651 3.81228 8.3258 3.54178C7.57885 3.26718 6.78503 3.15234 5.99177 3.20454ZM28.0294 13.8909H19.9806L18.4374 17.1117C18.3178 17.3746 18.123 17.5955 17.878 17.7459C17.6328 17.9006 17.3416 17.9779 17.0505 17.9733C16.6385 17.9825 16.2391 17.83 15.9363 17.5479C15.791 17.4096 15.6752 17.2427 15.5961 17.0575C15.514 16.8645 15.4751 16.6557 15.482 16.4458C15.4889 16.236 15.5414 16.0302 15.6359 15.8431L22.6258 0.85936C22.7462 0.578227 22.9545 0.344609 23.2188 0.19417C23.4875 0.0401143 23.7974 -0.0248222 24.1047 0.00853587C24.3843 0.00649257 24.6585 0.0865753 24.8939 0.239032C25.1247 0.387952 25.3057 0.603572 25.4134 0.857813L32.3757 15.8431C32.4782 16.0386 32.5318 16.2563 32.532 16.4774C32.5348 16.677 32.4951 16.8748 32.4155 17.0575C32.3363 17.2426 32.2205 17.4094 32.0753 17.5479C31.773 17.8298 31.3741 17.9823 30.9627 17.9733C30.6691 17.9869 30.3782 17.9115 30.1275 17.7567C29.8814 17.6047 29.6881 17.3793 29.5742 17.1117L28.031 13.8909H28.0294ZM24.1031 4.38332L21.2771 11.077H26.9306L24.1031 4.38332Z" fill="#5A5B5B"/>
</svg>
