<svg width="30" height="14" viewBox="0 0 30 14" fill="none" xmlns="http://www.w3.org/2000/svg">
<path d="M0 0.164604H6.30569V2.00294H2.32028V5.48756H6.30569V7.35333H2.32028V12.8135H0V0.164604Z" fill="#3B6E8F"/>
<path d="M9.85465 2.00294H7.07031V0.164604H14.8774V2.00294H12.1476V12.8135H9.85465V2.00294Z" fill="#3B6E8F"/>
<path d="M15.4781 10.3716C15.9148 10.646 16.9248 11.1398 18.1259 11.1398C19.1359 11.1398 20.0367 10.5911 20.0367 9.3015C20.0367 8.39605 19.5181 8.01192 18.3989 7.38085C17.2251 6.74977 17.2251 6.74977 17.2251 6.74977C15.9967 6.06383 15.2051 5.04862 15.2051 3.42979C15.2051 1.15244 17.034 4.95911e-05 19.1359 4.95911e-05C20.4735 4.95911e-05 21.4016 0.329305 21.7564 0.466494C21.6473 2.38715 21.6473 2.38715 21.6473 2.38715C21.1013 2.16764 20.3643 1.83839 19.2997 1.83839C18.1532 1.83839 17.58 2.46946 17.58 3.32004C17.58 4.28036 18.1805 4.63706 18.8902 5.02119C20.2551 5.78945 20.2551 5.78945 20.2551 5.78945C21.7019 6.61258 22.4116 7.40828 22.4116 9.19175C22.4116 11.7709 20.61 13.0056 18.2078 13.0056C16.9521 13.0056 15.9694 12.8135 15.3689 12.4294" fill="#3B6E8F"/>
<path d="M23.6943 0.164604H30V2.00294H25.9873V5.515H30V7.35333H25.9873V10.9751H30V12.8135H23.6943V0.164604Z" fill="#3B6E8F"/>
</svg>
