<svg width="31" height="30" viewBox="0 0 31 30" fill="none" xmlns="http://www.w3.org/2000/svg">
<g clip-path="url(#clip0_13_847)">
<path d="M15.5 30C23.7843 30 30.5 23.2843 30.5 15C30.5 6.71573 23.7843 0 15.5 0C7.21573 0 0.5 6.71573 0.5 15C0.5 23.2843 7.21573 30 15.5 30Z" fill="#F0F0F0"/>
<path d="M3.60064 5.86768C2.42238 7.40066 1.53393 9.16756 1.0166 11.087H8.82L3.60064 5.86768Z" fill="#0052B4"/>
<path d="M29.983 11.0871C29.4656 9.16768 28.5771 7.40079 27.3989 5.8678L22.1797 11.0871H29.983Z" fill="#0052B4"/>
<path d="M1.0166 18.9131C1.53398 20.8325 2.42244 22.5994 3.60064 24.1323L8.81982 18.9131H1.0166Z" fill="#0052B4"/>
<path d="M24.6324 3.10083C23.0994 1.92256 21.3326 1.03411 19.4131 0.516724V8.32006L24.6324 3.10083Z" fill="#0052B4"/>
<path d="M6.36719 26.8991C7.90018 28.0774 9.66707 28.9658 11.5865 29.4832V21.6799L6.36719 26.8991Z" fill="#0052B4"/>
<path d="M11.5864 0.516724C9.66701 1.03411 7.90012 1.92256 6.36719 3.10077L11.5864 8.32V0.516724Z" fill="#0052B4"/>
<path d="M19.4131 29.4832C21.3325 28.9658 23.0994 28.0774 24.6323 26.8992L19.4131 21.6799V29.4832Z" fill="#0052B4"/>
<path d="M22.1797 18.9131L27.3989 24.1324C28.5771 22.5995 29.4656 20.8325 29.983 18.9131H22.1797Z" fill="#0052B4"/>
<path d="M30.373 13.0435H17.4566H17.4566V0.126973C16.8161 0.0435938 16.1631 0 15.5 0C14.8368 0 14.1839 0.0435938 13.5435 0.126973V13.0434V13.0434H0.626973C0.543594 13.6839 0.5 14.3369 0.5 15C0.5 15.6632 0.543594 16.3161 0.626973 16.9565H13.5434H13.5434V29.873C14.1839 29.9564 14.8368 30 15.5 30C16.1631 30 16.8161 29.9565 17.4565 29.873V16.9566V16.9566H30.373C30.4564 16.3161 30.5 15.6632 30.5 15C30.5 14.3369 30.4564 13.6839 30.373 13.0435Z" fill="#D80027"/>
<path d="M19.4131 18.9131L26.1066 25.6067C26.4145 25.2989 26.7081 24.9772 26.9883 24.6437L21.2577 18.9131H19.4131V18.9131Z" fill="#D80027"/>
<path d="M11.5871 18.9131H11.587L4.89355 25.6065C5.20129 25.9144 5.52303 26.2081 5.85654 26.4883L11.5871 20.7576V18.9131Z" fill="#D80027"/>
<path d="M11.587 11.087V11.0869L4.89344 4.39331C4.58559 4.70104 4.29191 5.02278 4.01172 5.3563L9.74236 11.0869L11.587 11.087Z" fill="#D80027"/>
<path d="M19.4131 11.087L26.1067 4.39338C25.7989 4.08553 25.4772 3.79186 25.1437 3.51172L19.4131 9.24236V11.087Z" fill="#D80027"/>
</g>
<defs>
<clipPath id="clip0_13_847">
<rect width="30" height="30" fill="white" transform="translate(0.5)"/>
</clipPath>
</defs>
</svg>
