<svg width="50" height="24" viewBox="0 0 50 24" fill="none" xmlns="http://www.w3.org/2000/svg">
<path d="M50 17.268V16.5405H47.925C47.5287 16.5405 47.2073 16.8639 47.2052 17.2634L47.2047 17.268L47.2052 17.2675V22.2814C47.2052 22.482 47.1497 22.551 46.9573 22.551H46.6602V23.2784H47.1497C47.9258 23.2784 47.9258 22.6341 47.9258 22.3915H47.9253V18.9557H48.9395V23.268H49.6603V18.9557H50V18.2286H47.9255V17.5959C47.9255 17.3891 48.0342 17.2676 48.2137 17.2676H50V17.268Z" fill="#003465"/>
<path d="M44.9176 17.2676H46.7039V16.5405H44.6294C44.2331 16.5405 43.9114 16.8639 43.9091 17.2631L43.9086 17.2676L43.9091 17.2671V22.2811C43.9091 22.4816 43.8536 22.5511 43.6618 22.5511H43.3643V23.2782H43.8538C44.6299 23.2782 44.6299 22.6342 44.6299 22.3913V20.7981H46.6096V18.2286H44.6299V17.5964C44.6299 17.3891 44.7381 17.2676 44.9176 17.2676ZM45.8933 20.0706H44.6299V18.9557H45.8933V20.0706Z" fill="#003465"/>
<path d="M26.0113 17.1136L25.6033 16.3184H24.8856L25.2919 17.1136H22.2949V17.8375H29.0216V17.1136H26.0113Z" fill="#003465"/>
<path d="M28.1819 19.9408H29.0221V19.2322H28.4678C28.2898 19.2322 28.1246 19.1469 27.6996 18.7182L27.2449 18.2495H26.2568L27.1216 19.1297L25.6588 20.4208L24.1954 19.1297L25.0603 18.2495H24.0724L23.6174 18.7182C23.1928 19.1467 23.0273 19.2322 22.8493 19.2322H22.2949V19.9408H23.1351C23.2716 19.9408 23.4018 19.8893 23.6456 19.673L25.0803 20.931L23.5816 22.2537C23.3486 22.4561 23.1561 22.5513 22.6949 22.5513H22.2954V23.2788C22.2834 23.2788 22.9329 23.2783 22.9329 23.2783C23.4188 23.2783 23.5431 23.263 23.9099 22.9716L25.6588 21.4379L27.4071 22.9716C27.7739 23.2628 27.8983 23.2783 28.3841 23.2783C28.3841 23.2783 29.0341 23.2788 29.0216 23.2788V22.5513H28.6221C28.1609 22.5513 27.9684 22.4561 27.7354 22.2537L26.2368 20.931L27.6714 19.673C27.9153 19.8893 28.0454 19.9408 28.1819 19.9408Z" fill="#003465"/>
<path d="M35.7682 2.45685V0.00732422H29.5524H28.6952H27.124V12.3542H28.6952H35.7682V9.90117H29.5524V7.38687H35.4604V4.93515H29.5524V2.45685H35.7682Z" fill="#003465"/>
<path d="M8.35387 0.00732422V4.95534H2.42834V0.00732422H0V12.3542H2.42834V7.40621H8.35387V12.3542H10.7822V0.00732422H8.35387Z" fill="#003465"/>
<path d="M24.98 12.3534L20.4508 5.48916C20.6508 5.31436 20.9327 5.06688 21.0968 4.91833C23.2375 2.97688 23.4505 0.714932 23.4625 0.012207H21.1173C21.1102 0.345989 21.0315 1.84649 19.5547 3.18549C18.8595 3.81587 17.7235 4.77735 16.8092 5.54232V0.0522474H14.3896V12.3549H16.8092V8.52752L16.8238 8.54602C16.8873 8.4937 17.72 7.80864 18.6858 6.99707L22.1727 12.3534H24.98Z" fill="#003465"/>
<path d="M39.1455 0V2.44902C41.1784 2.45407 42.8247 4.11861 42.8247 6.17143C42.8247 8.22443 41.1784 9.88846 39.1455 9.89351V12.3398C42.5214 12.3398 45.258 9.57739 45.258 6.17026C45.2579 2.76228 42.5214 0 39.1455 0Z" fill="#E72742"/>
<path d="M49.9992 0V2.44902C47.9664 2.45407 46.3199 4.11861 46.3199 6.17143C46.3199 8.22443 47.9662 9.88846 49.9992 9.89351V12.3398C46.6234 12.3398 43.8867 9.57739 43.8867 6.17026C43.8867 2.76228 46.6232 0 49.9992 0Z" fill="#003465"/>
<path d="M39.5134 19.7508V17.4275C39.5134 17.185 39.4892 16.5405 38.713 16.5405H33.5708V19.7508H34.6384C34.615 19.791 34.2808 20.3582 34.2572 20.3943C34.0585 20.6928 34.0112 20.7638 33.6505 20.7638H33.0273V21.4872H33.6505C34.1923 21.4872 34.4585 21.3102 34.6782 21.0383H35.1069C34.9982 21.2448 34.4787 22.1479 34.4542 22.184C34.2555 22.4825 34.2085 22.5535 33.848 22.5535H33.2248V23.2769H33.848C34.537 23.2769 34.7804 22.9911 35.0492 22.5878C35.0904 22.5256 35.9019 21.0668 35.9167 21.0383H37.2565C37.1482 21.2448 36.6284 22.1479 36.6042 22.184C36.405 22.4825 36.3582 22.5535 35.9975 22.5535H35.3744V23.2769H35.9975C36.6865 23.2769 36.9299 22.9911 37.1987 22.5878C37.2399 22.5256 38.0514 21.0678 38.0662 21.0383H38.7927V22.1935C38.7927 22.4329 38.6867 22.553 38.4304 22.553H37.893V23.2777H38.7372C39.5134 23.2777 39.5134 22.6337 39.5134 22.3908V20.3126H35.1422C35.2205 20.1761 35.3834 19.8926 35.4617 19.7508H39.5134ZM34.2885 17.268H38.4505C38.705 17.268 38.7964 17.3926 38.7964 17.572V17.8434H34.2885V17.268ZM34.2885 18.4678H38.7964V19.0409H34.2885V18.4678Z" fill="#003465"/>
<path d="M12.4229 22.3925V20.3955H11.7021V22.3499C11.7021 22.5102 11.6006 22.5523 11.4561 22.5523H11.1572V23.2794H11.6471C12.4232 23.2794 12.4232 22.6351 12.4232 22.3925H12.4229Z" fill="#003465"/>
<path d="M11.2207 18.3374L11.6283 19.439L11.7018 19.6379H12.4214L11.9389 18.3374H11.2207Z" fill="#003465"/>
<path d="M11.2207 16.626L11.6283 17.7277L11.7018 17.9265H12.4214L11.9389 16.626H11.2207Z" fill="#003465"/>
<path d="M16.1791 21.9127C16.3831 21.9127 16.8707 21.9109 17.0157 21.4344C17.0166 21.4318 17.0176 21.4291 17.0184 21.4259C17.0247 21.4047 17.0301 21.3825 17.0349 21.3594C17.0402 21.3345 17.0447 21.3084 17.0484 21.2813C17.0492 21.275 17.0502 21.2687 17.0511 21.2623C17.0564 21.2167 17.0604 21.1688 17.0604 21.1165V20.3153C17.1977 20.3709 17.3364 20.3957 17.4907 20.3957H17.9752V19.6389C17.9752 19.6389 17.4621 19.6389 17.4472 19.638C17.3431 19.6321 17.2097 19.5857 16.8706 19.2203L16.7789 19.116H17.7051V18.3885H16.8089V17.8375H17.7051V17.1136H16.8089V16.3184H16.0882V17.1136H14.5085V16.3184H13.8195V17.1136H12.9212V17.8375H13.8195V18.3885H12.9212V19.116H13.8472L13.7559 19.2203C13.368 19.638 13.2495 19.6389 13.1354 19.6389H12.6514V20.3957H13.1354C13.2549 20.3957 13.3649 20.3799 13.4722 20.3478V22.3931C13.4722 22.6355 13.4722 23.28 14.2484 23.28H16.8262C17.0669 23.28 17.7049 23.28 17.7049 22.4965V21.9646H16.9846V22.2861C16.9846 22.4671 16.8911 22.5525 16.7179 22.5525H14.3355C14.2962 22.5525 14.1927 22.5525 14.1927 22.4243V21.9127H16.1791ZM16.3376 20.9188C16.3376 21.0998 16.2441 21.1856 16.0714 21.1856H14.1927V20.6202H16.3374L16.3376 20.9188ZM14.5085 17.8375H16.0882V18.3885H14.5107H14.5085V17.8375ZM14.8732 19.116L15.7535 19.1138C15.8215 19.1878 16.4139 19.8323 16.4824 19.8986H14.144C14.2125 19.8322 14.8052 19.19 14.8732 19.116Z" fill="#003465"/>
<path d="M6.09369 19.1906C5.92719 19.1906 5.78819 19.1657 5.38186 18.8353C5.31602 18.7819 5.23602 18.717 5.14886 18.6457H6.71686V17.9209H3.71718V17.3957L5.92236 17.0488V16.3208L3.42385 16.7136C3.41752 16.7145 2.78368 16.8107 2.18501 16.8107H0.782337V17.5301H2.18484C2.47251 17.5301 2.76235 17.5102 2.99951 17.488V17.9207H0V18.6455H1.56801C1.48067 18.7168 1.40067 18.7819 1.33501 18.8351C0.928671 19.1657 0.78967 19.1904 0.62317 19.1904H0V19.9473H0.62317C1.02667 19.9473 1.32467 19.8154 1.80567 19.4244C2.04718 19.2279 2.48034 18.8748 2.76135 18.6455H2.99985V20.1623H0.782337V22.4004C0.782337 22.6428 0.782337 23.2796 1.55851 23.2796H5.92669V20.1623H3.71718V18.6455H3.95602C4.23652 18.875 4.66969 19.2281 4.91119 19.4244C5.39169 19.8156 5.69019 19.9473 6.09369 19.9473H6.71686V19.1904L6.09369 19.1906ZM5.21819 22.5526H1.74601C1.57101 22.5526 1.50317 22.4475 1.50317 22.2469V22.0392H5.21819V22.5526ZM5.21819 21.4145H1.50267V20.8943H5.21819V21.4145Z" fill="#003465"/>
</svg>
