<svg width="30" height="30" viewBox="0 0 30 30" fill="none" xmlns="http://www.w3.org/2000/svg">
<g clip-path="url(#clip0_288_568)">
<mask id="mask0_288_568" style="mask-type:luminance" maskUnits="userSpaceOnUse" x="0" y="0" width="30" height="30">
<path d="M0 30H30V0H0V30Z" fill="white"/>
</mask>
<g mask="url(#mask0_288_568)">
<path d="M15 30C23.2715 30 30 23.2715 30 15C30 6.7285 23.2715 0 15 0C6.7285 0 0 6.7285 0 15C0 23.2715 6.7285 30 15 30ZM15 1.24998C22.5818 1.24998 28.75 7.4182 28.75 15C28.75 22.5818 22.5818 28.75 15 28.75C7.4182 28.75 1.24998 22.5818 1.24998 15C1.24998 7.4182 7.4182 1.24998 15 1.24998Z" fill="#0088CC"/>
<path d="M12.0582 22.3173C12.3024 22.5615 12.6979 22.5615 12.942 22.3173L19.817 15.4423C20.0611 15.1982 20.0611 14.8027 19.817 14.5586L12.942 7.6836C12.82 7.56155 12.66 7.50049 12.5001 7.50049C12.3402 7.50049 12.1803 7.56155 12.0582 7.6836C11.814 7.92776 11.814 8.32327 12.0582 8.56737L18.4912 15.0004L12.0582 21.4336C11.8141 21.6777 11.8141 22.0732 12.0582 22.3173Z" fill="#0088CC"/>
</g>
</g>
<defs>
<clipPath id="clip0_288_568">
<rect width="30" height="30" fill="white"/>
</clipPath>
</defs>
</svg>
