<svg width="60" height="17" viewBox="0 0 60 17" fill="none" xmlns="http://www.w3.org/2000/svg">
<path d="M8.25018 15.313C7.3476 15.473 6.42914 15.521 5.47904 15.6487L2.58111 7.08113V16.0164C1.67854 16.1123 0.855117 16.2402 0 16.368V0H2.40703L5.7007 9.28708V0H8.25018V15.313ZM13.2383 5.99416C14.2202 5.99416 15.7245 5.94619 16.6271 5.94619V8.50364C15.5027 8.50364 14.1885 8.50364 13.2383 8.55161V12.356C14.7269 12.2601 16.2154 12.1321 17.7197 12.0841V14.5456L10.7046 15.1052V0H17.7197V2.55751H13.2383V5.99416ZM27.1417 2.55757H24.513V14.3221C23.6579 14.3221 22.8028 14.3221 21.9795 14.354V2.55757H19.3509V0H27.1418L27.1417 2.55757ZM31.2588 5.81838H34.7268V8.37583H31.2588V14.1782H28.7725V0H35.8511V2.55751H31.2588V5.81838ZM39.9683 11.9403C41.4093 11.9722 42.8661 12.0843 44.2755 12.1641V14.6897C42.0111 14.5457 39.7466 14.402 37.4347 14.354V0H39.9683V11.9403ZM46.4132 14.8655C47.2208 14.9135 48.0759 14.9615 48.8994 15.0573V0H46.4132V14.8655ZM60 0L56.7854 7.78443L60 16.368C59.0498 16.2402 58.0997 16.0643 57.1495 15.9045L55.3286 11.1732L53.476 15.521C52.5574 15.361 51.6706 15.313 50.7523 15.1851L54.0144 7.68844L51.0689 0H53.7925L55.4552 4.29982L57.2288 0H60V0Z" fill="#D81F26"/>
</svg>
