<svg width="60" height="13" viewBox="0 0 60 13" fill="none" xmlns="http://www.w3.org/2000/svg">
<path fill-rule="evenodd" clip-rule="evenodd" d="M56.2211 12.6804H52.6926L56.4684 0.00425017H60L56.2211 12.6804ZM48.5474 2.16759L47.6926 5.04177H52.8505L52.2011 7.21254H47.0484L46.1011 10.3864H51.7474L51.0453 12.6815H39.3716L37.0737 5.60492H35.7263L33.6189 12.6815H27.4842L25.1895 5.60492H23.8389L21.7358 12.6815H18.2063L21.9811 0.00531272H25.5095L23.8989 5.39984L28.9895 0.00212509H33.1116L27.4421 5.60704H28.6632L30.6316 10.8815L33.8653 0.00425017H37.3958L35.7853 5.40197L40.8737 0.00425017H45L39.3232 5.60598H40.5474L42.4632 10.7455L45.6632 0H54.5684L53.9211 2.16759H48.5474ZM12.9263 12.6804L16.7053 0.00425017H20.2316L16.4568 12.6804H12.9305H12.9263ZM7.27789 12.6804L5.59368 4.18005L3.06105 12.6804H0L3.77684 0.00425017H7.81895L9.4779 8.35371L11.9642 0.00425017H15.0211L11.2484 12.6804H7.27789Z" fill="#22578C"/>
</svg>
