<svg width="50" height="18" viewBox="0 0 50 18" fill="none" xmlns="http://www.w3.org/2000/svg">
<path d="M17.7417 13.7144L14.2841 10.2243C13.5616 9.49495 13.6231 9.52074 12.5997 9.52074H6.11555C5.09158 9.52074 5.15315 9.49553 4.4312 10.2243L0.973633 13.7144C1.75754 15.3107 2.9727 16.6507 4.47883 17.5798L8.46145 13.5596C8.82388 13.1938 8.98418 13.0519 9.18108 12.9909C9.23712 12.9709 9.2959 12.9599 9.35532 12.9581C9.41475 12.9597 9.47356 12.9708 9.52956 12.9909C9.72646 13.0496 9.88676 13.1938 10.2492 13.5596L14.2318 17.5798C15.7397 16.6515 16.9566 15.3114 17.7417 13.7144Z" fill="black"/>
<path d="M4.93138 9.17759C5.19274 8.89324 5.15615 8.64993 5.41171 7.98275C5.71948 7.17873 6.2611 6.48756 6.96536 6.00013C7.66963 5.5127 8.50354 5.25183 9.35745 5.25183C10.2114 5.25183 11.0453 5.5127 11.7495 6.00013C12.4538 6.48756 12.9954 7.17873 13.3032 7.98275C13.5587 8.65228 13.5222 8.89324 13.7829 9.17759C14.0437 9.46193 14.3057 9.51997 15.1351 9.51997H18.7146C18.7243 8.27334 18.4895 7.0371 18.0236 5.88253C17.5577 4.72795 16.87 3.6779 16.0002 2.7929C15.1303 1.90791 14.0955 1.20548 12.9554 0.726137C11.8153 0.246789 10.5925 0 9.35745 0C8.12241 0 6.89958 0.246789 5.75949 0.726137C4.61939 1.20548 3.58458 1.90791 2.71472 2.7929C1.84486 3.6779 1.15716 4.72795 0.691285 5.88253C0.225406 7.0371 -0.00943966 8.27334 0.00029043 9.51997H3.57809C4.41039 9.51997 4.67756 9.45431 4.93138 9.17759ZM44.8087 4.33843C41.9465 4.33843 39.618 6.66069 39.618 9.51528C39.618 12.3699 41.9465 14.6921 44.8087 14.6921C47.6709 14.6921 50 12.3699 50 9.51528C50 6.66069 47.6715 4.33843 44.8087 4.33843ZM44.8203 12.2274C44.2889 12.2275 43.7693 12.0686 43.3274 11.7706C42.8854 11.4726 42.541 11.049 42.3375 10.5534C42.1341 10.0578 42.0809 9.51247 42.1845 8.98632C42.2882 8.46016 42.5441 7.97685 42.9199 7.59752C43.2957 7.21818 43.7745 6.95987 44.2957 6.85524C44.817 6.75061 45.3572 6.80437 45.8482 7.00971C46.3392 7.21506 46.7588 7.56277 47.054 8.00887C47.3492 8.45497 47.5067 8.97941 47.5066 9.51587C47.5057 10.2347 47.2223 10.9239 46.7188 11.4322C46.2152 11.9405 45.5325 12.2265 44.8203 12.2274ZM35.7097 5.42305V14.4043H38.1393V4.59229H36.5327C36.4143 4.58569 36.2956 4.59756 36.1808 4.62747C36.0781 4.65942 35.9847 4.71625 35.9088 4.793C35.8328 4.86974 35.7767 4.96407 35.7452 5.06776C35.7153 5.18364 35.7033 5.30348 35.7097 5.42305ZM23.8408 4.59229V14.4043H25.4538C25.5722 14.4109 25.6909 14.399 25.8057 14.3691C25.9086 14.3373 26.0021 14.2806 26.0782 14.2038C26.1542 14.127 26.2104 14.0326 26.2419 13.9288C26.2713 13.813 26.2831 13.6934 26.2768 13.5741V8.37673L31.0882 13.9147C31.2381 14.0871 31.3629 14.2208 31.5581 14.3105C31.7532 14.4002 31.935 14.406 32.1627 14.406H33.9348V4.59229H32.3218C32.2034 4.58569 32.0847 4.59756 31.9699 4.62747C31.8671 4.65915 31.7735 4.71588 31.6976 4.79267C31.6216 4.86945 31.5655 4.96393 31.5343 5.06776C31.5044 5.18364 31.4924 5.30348 31.4988 5.42305V10.6216L26.688 5.08242C26.5376 4.90947 26.4127 4.77579 26.2175 4.68668C26.0224 4.59757 25.8406 4.59053 25.6129 4.59053L23.8408 4.59229Z" fill="black"/>
</svg>
