<svg width="60" height="18" viewBox="0 0 60 18" fill="none" xmlns="http://www.w3.org/2000/svg">
<path fill-rule="evenodd" clip-rule="evenodd" d="M44.5246 13.1305C42.4633 13.1305 41.1826 11.922 41.1826 9.97542C41.1826 7.95264 42.3643 6.69582 44.2669 6.69582L44.4277 6.6949C44.6656 6.6949 44.9943 6.70249 45.4432 6.76019V4.3197H46.7893V12.9111C46.7893 12.9111 45.5109 13.1305 44.5246 13.1305ZM44.5129 7.76747C43.2103 7.76747 42.577 8.47877 42.577 9.94171C42.577 11.2545 43.3405 12.0698 44.569 12.0698C44.8048 12.0698 45.0751 12.055 45.4432 12.0222V7.85433C45.0747 7.79514 44.779 7.76747 44.5129 7.76747Z" fill="#404041"/>
<path fill-rule="evenodd" clip-rule="evenodd" d="M26.1073 12.9348L22.4746 6.51917L22.4737 12.9348H21.208V4.81396H22.9795L26.6122 11.1722L26.6106 4.81396H27.8926V12.9348H26.1073Z" fill="#404041"/>
<path fill-rule="evenodd" clip-rule="evenodd" d="M37.6758 13.0592C37.0644 13.0592 36.4263 12.99 35.6667 12.8421L35.586 12.826V11.6916L35.7063 11.7183C36.375 11.8622 36.9531 11.9866 37.5306 11.9866C37.9983 11.9866 39.0861 11.9113 39.0861 11.2161C39.0861 10.6324 38.3343 10.4864 37.7301 10.3695L37.6923 10.3619C37.5801 10.3394 37.4739 10.3181 37.383 10.2951C36.4974 10.0622 35.5527 9.71309 35.5527 8.51184C35.5527 7.34061 36.4692 6.66882 38.067 6.66882C38.8335 6.66882 39.3903 6.75258 39.8373 6.82L40.056 6.85308V7.95263L39.9393 7.93232C39.4332 7.83786 38.8401 7.74105 38.2686 7.74105C37.6353 7.74105 36.8808 7.86099 36.8808 8.43262C36.8808 8.90618 37.4973 9.04188 38.2113 9.19887C39.2088 9.41862 40.4469 9.69215 40.4469 11.0695C40.4469 12.3339 39.4368 13.0592 37.6758 13.0592Z" fill="#404041"/>
<path fill-rule="evenodd" clip-rule="evenodd" d="M50.5638 13.0592C49.1706 13.0592 47.8818 12.8115 47.8818 11.0131C47.8818 9.05615 49.8753 9.05614 51.0666 9.05614C51.1857 9.05614 51.7455 9.08197 51.918 9.08986C51.9165 7.99209 51.9018 7.73012 50.3286 7.73012C49.7049 7.73012 49.0119 7.85552 48.4006 7.96597L48.2838 7.98726V6.90284L48.3636 6.88644C49.0719 6.74016 49.755 6.66882 50.4517 6.66882C51.9765 6.66882 53.2686 6.82455 53.2686 8.73831V12.9132L53.1756 12.9229C52.1196 13.0428 51.2805 13.0592 50.5638 13.0592ZM51.0327 10.024C49.8843 10.024 49.1728 10.1949 49.1728 11.0464C49.1728 12.0316 50.0812 12.1138 50.9325 12.1138C51.2514 12.1138 51.8236 12.0729 51.9985 12.0595V10.0574C51.7515 10.0479 51.1104 10.024 51.0327 10.024Z" fill="#404041"/>
<path fill-rule="evenodd" clip-rule="evenodd" d="M31.6956 13.0592C30.3024 13.0592 29.0137 12.8115 29.0137 11.0131C29.0137 9.05615 31.0072 9.05614 32.1985 9.05614C32.3172 9.05614 32.8773 9.08197 33.0498 9.08986C33.0483 7.99209 33.0336 7.73012 31.4604 7.73012C30.8368 7.73012 30.1441 7.85552 29.5323 7.96597L29.4157 7.98726V6.90284L29.4955 6.88644C30.2041 6.74016 30.8868 6.66882 31.5834 6.66882C33.1083 6.66882 34.4004 6.82455 34.4004 8.73831V12.9132L34.3074 12.9229C33.2514 13.0428 32.4123 13.0592 31.6956 13.0592ZM32.1645 10.024C31.0162 10.024 30.3045 10.1949 30.3045 11.0464C30.3045 12.0316 31.2129 12.1138 32.0644 12.1138C32.3832 12.1138 32.9553 12.0729 33.1302 12.0595V10.0574C32.8834 10.0479 32.2422 10.024 32.1645 10.024Z" fill="#404041"/>
<path fill-rule="evenodd" clip-rule="evenodd" d="M58.6233 15.6932V13.0298C58.0979 13.1045 57.8186 13.1045 57.5935 13.1045C57.0612 13.1045 56.4699 12.9873 56.0112 12.7906C54.9867 12.3601 54.375 11.2642 54.375 9.8586C54.375 9.1558 54.5439 7.87321 55.6746 7.18192C56.2407 6.83889 56.9115 6.69226 57.9178 6.69226C58.2791 6.69226 58.7658 6.72051 59.236 6.74812L59.9996 6.78787V15.0766L58.6233 15.6932ZM57.8169 7.7642C56.4516 7.7642 55.7586 8.46883 55.7586 9.8586C55.7586 11.6461 56.7927 12.0213 57.6608 12.0213C57.8716 12.0213 58.1098 12.0213 58.6359 11.9542V7.80274C58.2238 7.77449 58.0346 7.7642 57.8169 7.7642Z" fill="#404041"/>
<path fill-rule="evenodd" clip-rule="evenodd" d="M15.2005 0L10.7524 12.3658C10.6433 12.6709 10.3675 12.8937 10.0369 12.9274V12.9347H14.7385C15.1072 12.9347 15.4222 12.6976 15.5404 12.3658L19.9885 0H15.2005ZM9.65449 12.7458C9.92598 12.7458 10.1654 12.6098 10.3118 12.4022C10.3271 12.3806 10.3805 12.3047 10.4177 12.2012L12.0494 7.66388L11.0951 5.0142C10.9733 4.72003 10.6856 4.51329 10.3505 4.51329C10.0793 4.51329 9.83959 4.64899 9.69318 4.85694C9.67791 4.8782 9.61431 4.97504 9.5873 5.05791L7.95621 9.59341L8.91442 12.2537C9.0386 12.543 9.3227 12.7458 9.65449 12.7458ZM5.24997 4.32365H10.0029V4.32638C9.64976 4.34126 9.35062 4.57107 9.23602 4.89225L4.78827 17.2577H0L4.44777 4.89225C4.56657 4.56044 4.88097 4.32365 5.24997 4.32365Z" fill="#0090BA"/>
</svg>
