<svg width="30" height="30" viewBox="0 0 30 30" fill="none" xmlns="http://www.w3.org/2000/svg">
<path d="M15.0455 30C6.84034 30.0002 0.186523 23.2828 0.186523 15.0006C0.186021 6.71544 6.83983 -0.00127082 15.047 1.80354e-07C23.2539 0.000257494 29.9072 6.71621 29.9057 14.9994C29.9064 23.2828 23.2526 29.9995 15.0455 30Z" fill="white"/>
<path d="M26.7645 7.33179C27.0465 8.25478 27.2017 9.23194 27.2017 10.2469C27.2017 13.5203 25.6054 16.3997 23.1817 18.203C18.9637 21.3374 12.8174 21.3422 4.33008 24.0417C6.89197 27.1326 10.7411 29.0997 15.0462 29.0997C22.76 29.0997 29.014 22.7862 29.014 14.9999C29.014 12.1726 28.1857 9.54088 26.7645 7.33179Z" fill="#0464A9"/>
<path d="M23.4235 3.71631C21.0889 1.94674 18.1883 0.899048 15.0467 0.899048C7.33222 0.899048 1.07812 7.2133 1.07812 14.9997C1.07812 18.1333 2.09226 21.0277 3.80456 23.3682C13.199 20.6082 20.6178 13.1696 23.4235 3.71631Z" fill="#EE3237"/>
</svg>
