<svg width="80" height="80" viewBox="0 0 80 80" fill="none" xmlns="http://www.w3.org/2000/svg">
<path d="M9.03043 63.4785H5.15946C4.81725 63.4785 4.48905 63.6159 4.24707 63.8605C4.00509 64.1052 3.86914 64.4369 3.86914 64.7829C3.86914 65.1288 4.00509 65.4606 4.24707 65.7052C4.48905 65.9498 4.81725 66.0872 5.15946 66.0872H9.03043C9.37265 66.0872 9.70084 65.9498 9.94283 65.7052C10.1848 65.4606 10.3208 65.1288 10.3208 64.7829C10.3208 64.4369 10.1848 64.1052 9.94283 63.8605C9.70084 63.6159 9.37265 63.4785 9.03043 63.4785Z" fill="#0088CC"/>
<path d="M14.192 63.4785H12.9017C12.5594 63.4785 12.2312 63.6159 11.9893 63.8605C11.7473 64.1052 11.6113 64.4369 11.6113 64.7829C11.6113 65.1288 11.7473 65.4606 11.9893 65.7052C12.2312 65.9498 12.5594 66.0872 12.9017 66.0872H14.192C14.5342 66.0872 14.8624 65.9498 15.1044 65.7052C15.3464 65.4606 15.4823 65.1288 15.4823 64.7829C15.4823 64.4369 15.3464 64.1052 15.1044 63.8605C14.8624 63.6159 14.5342 63.4785 14.192 63.4785Z" fill="#0088CC"/>
<path d="M74.8387 25.6522H72.2581V15.2174C72.2563 13.8342 71.7119 12.5082 70.7444 11.5301C69.7768 10.5521 68.4651 10.0018 67.0968 10H12.9032C11.5348 10.0016 10.2229 10.5517 9.25534 11.5299C8.28774 12.508 7.74347 13.8341 7.74194 15.2174V38.6957H5.16129C3.7929 38.6972 2.481 39.2474 1.5134 40.2255C0.545807 41.2036 0.00153684 42.5298 0 43.913V64.7826C0.00153684 66.1659 0.545807 67.492 1.5134 68.4701C2.481 69.4483 3.7929 69.9984 5.16129 70H18.0645C19.4328 69.9982 20.7446 69.4479 21.7121 68.4699C22.6797 67.4918 23.224 66.1658 23.2258 64.7826V60.8696H34.4758L33.8306 63.4783H29.6774C29.3352 63.4783 29.007 63.6157 28.765 63.8603C28.523 64.1049 28.3871 64.4367 28.3871 64.7826V68.6957C28.3871 69.0416 28.523 69.3734 28.765 69.618C29.007 69.8626 29.3352 70 29.6774 70H74.8387C76.207 69.9982 77.5188 69.4479 78.4863 68.4699C79.4538 67.4918 79.9982 66.1658 80 64.7826V30.8696C79.9982 29.4864 79.4538 28.1604 78.4863 27.1823C77.5188 26.2043 76.207 25.654 74.8387 25.6522ZM20.6452 64.7826C20.6443 65.4742 20.3721 66.1372 19.8883 66.6262C19.4045 67.1153 18.7487 67.3904 18.0645 67.3913H5.16129C4.47714 67.3904 3.82126 67.1153 3.33749 66.6262C2.85372 66.1372 2.58154 65.4742 2.58065 64.7826V43.913C2.58154 43.2215 2.85372 42.5584 3.33749 42.0694C3.82126 41.5804 4.47714 41.3053 5.16129 41.3043H6.81129L7.80806 44.3255C7.89371 44.5853 8.05803 44.8112 8.27775 44.9712C8.49746 45.1313 8.76143 45.2174 9.03226 45.2174H14.1935C14.4644 45.2174 14.7283 45.1313 14.9481 44.9712C15.1678 44.8112 15.3321 44.5853 15.4177 44.3255L16.4145 41.3043H18.0645C18.7487 41.3053 19.4045 41.5804 19.8883 42.0694C20.3721 42.5584 20.6443 43.2215 20.6452 43.913V64.7826ZM9.53226 41.3043H13.6935L13.2629 42.6087H9.9629L9.53226 41.3043ZM23.2258 58.2609V54.3478H46.4516V58.2609H23.2258ZM46.4516 60.8696V63.4783H46.1694L45.5242 60.8696H46.4516ZM43.5081 63.4783H36.4919L37.1371 60.8696H42.8629L43.5081 63.4783ZM30.9677 67.3913V66.087H46.6145C46.7326 66.5441 46.9117 66.9829 47.1468 67.3913H30.9677ZM46.4516 30.8696V51.7391H23.2258V43.913C23.224 42.5299 22.6797 41.2039 21.7121 40.2258C20.7446 39.2477 19.4328 38.6975 18.0645 38.6957H10.3226V15.2174C10.3235 14.5258 10.5957 13.8628 11.0794 13.3738C11.5632 12.8847 12.2191 12.6096 12.9032 12.6087H67.0968C67.7809 12.6096 68.4368 12.8847 68.9206 13.3738C69.4044 13.8628 69.6765 14.5258 69.6774 15.2174V25.6522H51.6129C50.2446 25.654 48.9328 26.2043 47.9653 27.1823C46.9978 28.1604 46.4534 29.4864 46.4516 30.8696ZM77.4193 64.7826C77.4185 65.4742 77.1463 66.1372 76.6625 66.6262C76.1787 67.1153 75.5229 67.3904 74.8387 67.3913H51.6129C50.9287 67.3904 50.2729 67.1153 49.7891 66.6262C49.3053 66.1372 49.0332 65.4742 49.0323 64.7826V30.8696C49.0332 30.178 49.3053 29.515 49.7891 29.0259C50.2729 28.5369 50.9287 28.2618 51.6129 28.2609H74.8387C75.5229 28.2618 76.1787 28.5369 76.6625 29.0259C77.1463 29.515 77.4185 30.178 77.4193 30.8696V64.7826Z" fill="#0088CC"/>
<path d="M74.8403 29.564H51.6145C51.2723 29.564 50.9441 29.7014 50.7021 29.946C50.4602 30.1906 50.3242 30.5224 50.3242 30.8683V60.8683C50.3242 61.2142 50.4602 61.546 50.7021 61.7906C50.9441 62.0352 51.2723 62.1727 51.6145 62.1727H74.8403C75.1826 62.1727 75.5108 62.0352 75.7527 61.7906C75.9947 61.546 76.1307 61.2142 76.1307 60.8683V30.8683C76.1307 30.5224 75.9947 30.1906 75.7527 29.946C75.5108 29.7014 75.1826 29.564 74.8403 29.564ZM73.55 59.564H52.9049V32.1727H73.55V59.564Z" fill="#0088CC"/>
<path d="M61.9349 66.0872C62.6475 66.0872 63.2252 65.5032 63.2252 64.7829C63.2252 64.0625 62.6475 63.4785 61.9349 63.4785C61.2222 63.4785 60.6445 64.0625 60.6445 64.7829C60.6445 65.5032 61.2222 66.0872 61.9349 66.0872Z" fill="#0088CC"/>
</svg>
