<svg width="80" height="80" viewBox="0 0 80 80" fill="none" xmlns="http://www.w3.org/2000/svg">
<path d="M70.6124 25.5299C70.3933 25.1427 69.8559 24.9123 69.2999 24.9669C68.9903 24.9972 61.6847 25.7514 58.8203 29.4693C56.7362 32.173 57.6651 35.5823 58.4101 37.3844C55.2164 39.8941 55.2974 43.9044 55.4682 45.4573C53.4195 46.9919 52.2772 49.0731 51.7311 50.3336C46.7749 50.9356 43.0584 54.5303 42.7619 54.8243L40.1135 57.3046L37.5987 54.8338C37.3794 54.6144 33.4561 50.762 28.2521 50.2949C27.7014 49.034 26.5619 46.9778 24.5317 45.4572C24.7026 43.9042 24.7834 39.8936 21.5898 37.3843C22.3348 35.5822 23.2637 32.173 21.1796 29.4694C18.3152 25.7514 11.0096 24.9972 10.6999 24.9669C10.1442 24.9127 9.60665 25.1427 9.3874 25.5299C9.26427 25.7472 6.40446 30.8985 9.27177 34.6204C9.38315 34.7649 9.50527 34.9061 9.63315 35.0453C9.15564 35.1412 8.79226 35.4409 8.71976 35.8145C8.67576 36.0414 7.70624 41.3046 11.4909 44.3762C10.5304 44.6615 9.92728 44.9025 9.88716 44.9187C9.40002 45.1151 9.14302 45.528 9.25539 45.9338C9.3189 46.1628 10.8689 51.5638 16.0693 53.3801C16.6655 53.5887 17.303 53.7462 17.9769 53.8541C17.2813 54.4073 16.8784 54.8086 16.849 54.8381C16.5182 55.1704 16.518 55.6261 16.849 55.9584C17.0358 56.1459 21.4875 60.5492 27.2261 60.5492C31.3889 60.5492 34.8741 58.2324 36.5458 56.8882L38.504 58.8123L35.2739 61.8373C34.8426 62.2412 34.93 62.8304 35.4691 63.1536C36.0058 63.4753 36.7932 63.413 37.2262 63.0074L40.0665 60.3474L42.7562 62.9902C43.1769 63.4036 43.9618 63.4793 44.5082 63.1671C45.0572 62.8535 45.1628 62.2658 44.7443 61.8545L41.6761 58.84L43.7823 56.8675C44.6434 57.5618 45.997 58.5247 47.6779 59.2904C47.8808 59.3827 48.1048 59.4267 48.3261 59.4267C48.7482 59.4267 49.1602 59.2666 49.3954 58.9765C49.7541 58.5346 49.5665 57.9585 48.9767 57.6898C47.3781 56.9618 46.0962 55.9984 45.3798 55.3987C47.3264 53.7702 50.1979 52.1205 53.1255 52.1205C56.0467 52.1205 58.9367 53.7761 60.8721 55.3981C60.3002 55.8773 59.3677 56.5882 58.202 57.2251C57.6442 57.53 57.5217 58.1158 57.9285 58.5337C58.3351 58.9516 59.117 59.0432 59.675 58.7386C61.971 57.4842 63.4411 56.0203 63.5026 55.9585C63.8333 55.6263 63.8334 55.1706 63.5027 54.8385C63.4726 54.8081 63.0457 54.3828 62.3105 53.8033C62.8781 53.6985 63.4198 53.559 63.9301 53.3806C69.1312 51.5641 70.6813 46.1631 70.7448 45.934C70.8572 45.5282 70.6002 45.1153 70.1131 44.9189C70.0728 44.9027 69.4697 44.6616 68.5093 44.3764C72.2939 41.3049 71.3245 36.0416 71.2805 35.8147C71.208 35.4412 70.8446 35.1414 70.3671 35.0455C70.4951 34.9062 70.6172 34.7649 70.7286 34.6204C73.5954 30.8985 70.7356 25.7472 70.6124 25.5299ZM11.3529 26.963C13.2313 27.2758 17.3068 28.1896 19.0146 30.4061C20.4102 32.2166 19.9667 34.6277 19.4531 36.1536C17.3039 35.2519 14.8025 34.9745 12.8132 34.9258C12.2426 34.5451 11.7797 34.1286 11.4369 33.684C9.7289 31.4667 10.7567 28.3427 11.3529 26.963ZM11.1093 36.8118C11.4494 36.7974 11.8639 36.7877 12.3285 36.7911C18.8256 36.8436 22.0405 39.0562 22.0939 44.1213C22.0233 44.0948 21.9528 44.0682 21.8815 44.0433C19.7946 43.3142 17.1689 43.2043 14.2599 43.7194C13.9819 43.5694 13.7235 43.4079 13.492 43.2344C11.0756 41.424 11.0038 38.2393 11.1093 36.8118ZM11.9557 46.258C14.6227 45.4014 18.1839 44.8185 20.8247 45.7409C23.1762 46.5631 24.7347 48.5353 25.6355 50.3587C23.9422 50.5906 22.2269 51.1897 20.5145 52.1491C19.2287 52.1751 18.0896 52.0198 17.1264 51.6828C14.0289 50.6008 12.508 47.626 11.9557 46.258ZM27.226 58.6761C23.809 58.6761 20.7529 56.4629 19.4801 55.3978C23.8869 51.7045 27.4934 52.1527 27.6035 52.1335C27.608 52.1327 27.6121 52.1315 27.6166 52.1307C30.8741 52.2883 33.747 54.3736 34.9714 55.3981C33.6974 56.4641 30.6418 58.6761 27.226 58.6761ZM60.9854 30.4058C62.693 28.1892 66.7694 27.2756 68.6468 26.9628C69.2433 28.3432 70.2708 31.4668 68.5629 33.6837C68.2202 34.1285 67.7573 34.545 67.1866 34.9257C65.1975 34.9743 62.696 35.2517 60.5469 36.1535C60.0331 34.6277 59.5897 32.2164 60.9854 30.4058ZM62.8732 51.6828C61.9995 51.9882 60.9801 52.144 59.8417 52.1523C58.017 51.1283 56.188 50.5129 54.3849 50.3169C55.2912 48.5014 56.8418 46.5565 59.1749 45.7411C61.8117 44.8198 65.3648 45.3981 68.0459 46.2594C67.4974 47.627 65.984 50.5963 62.8732 51.6828ZM66.5077 43.2344C66.2762 43.4079 66.0179 43.5695 65.7399 43.7195C62.8306 43.2044 60.2052 43.3143 58.118 44.0436C58.0468 44.0684 57.9765 44.0949 57.906 44.1214C57.9278 42.0479 58.5608 39.7124 60.6588 38.364C62.6355 37.0947 65.5634 36.8082 67.6713 36.7912C68.1357 36.7879 68.5504 36.7975 68.8905 36.8119C68.9959 38.2401 68.9239 41.4243 66.5077 43.2344Z" fill="#0088CC"/>
<path d="M53.75 60.5488C54.4404 60.5488 55 60.1295 55 59.6123C55 59.0951 54.4404 58.6758 53.75 58.6758C53.0597 58.6758 52.5 59.0951 52.5 59.6123C52.5 60.1295 53.0597 60.5488 53.75 60.5488Z" fill="#0088CC"/>
</svg>
