<svg width="60" height="60" viewBox="0 0 60 60" fill="none" xmlns="http://www.w3.org/2000/svg">
<g clip-path="url(#clip0_288_536)">
<mask id="mask0_288_536" style="mask-type:luminance" maskUnits="userSpaceOnUse" x="0" y="0" width="60" height="60">
<path d="M60 0H0V60H60V0Z" fill="white"/>
</mask>
<g mask="url(#mask0_288_536)">
<path d="M55.6055 3.65391H46.3233C45.9701 1.58227 44.1632 0 41.9925 0H18.0075C15.8368 0 14.0299 1.58227 13.6766 3.65391H4.39453C1.97133 3.65391 0 5.62523 0 8.04844V43.1625C0 45.5857 1.97133 47.557 4.39453 47.557H23.9379V51.8482H23.8615C21.0265 51.8482 18.7199 54.1547 18.7199 56.9897V58.5527C18.7199 59.3508 19.3691 60 20.1671 60H39.8326C40.6307 60 41.2799 59.3508 41.2799 58.5527V56.9897C41.2799 54.1547 38.9734 51.8482 36.1384 51.8482H36.0621V47.557H46.4963C46.9818 47.557 47.3752 47.1636 47.3752 46.6781C47.3752 46.1926 46.9818 45.7992 46.4963 45.7992H4.39453C2.94059 45.7992 1.75781 44.6163 1.75781 43.1625V8.04844C1.75781 6.59461 2.94059 5.41172 4.39453 5.41172H13.613V7.16953H4.86328C4.1202 7.16953 3.51562 7.7741 3.51562 8.51719V42.6938C3.51562 43.4368 4.1202 44.0414 4.86328 44.0414H55.1367C55.8798 44.0414 56.4844 43.4368 56.4844 42.6938V8.51719C56.4844 7.7741 55.8798 7.16953 55.1367 7.16953H46.387V5.41172H55.6055C57.0593 5.41172 58.2422 6.59461 58.2422 8.04844V43.1625C58.2422 44.6163 57.0593 45.7992 55.6055 45.7992H50.5979C50.1124 45.7992 49.719 46.1926 49.719 46.6781C49.719 47.1636 50.1124 47.557 50.5979 47.557H55.6055C58.0287 47.557 60 45.5857 60 43.1625V8.04844C60 5.62523 58.0287 3.65391 55.6055 3.65391ZM25.6957 47.557H34.3043V51.8482H25.6957V47.557ZM24.8168 53.6063L24.8214 53.606H35.1787L35.1833 53.6063L35.1879 53.606H36.1386C38.0044 53.606 39.5223 55.1239 39.5223 56.9897V58.2422H20.4778V56.9897C20.4778 55.1239 21.9957 53.606 23.8616 53.606H24.8123L24.8168 53.6063ZM44.6292 42.2831H15.3708V16.2503C15.3708 15.7648 14.9773 15.3714 14.4919 15.3714C14.0065 15.3714 13.613 15.7648 13.613 16.2503V42.2836H5.27344V8.92734H13.613V12.1487C13.613 12.6342 14.0065 13.0276 14.4919 13.0276C14.9773 13.0276 15.3708 12.6342 15.3708 12.1487V4.39453C15.3708 2.9407 16.5536 1.75781 18.0075 1.75781H41.9925C43.4463 1.75781 44.6292 2.9407 44.6292 4.39453V42.2831ZM54.7266 8.92734V42.2836H46.387V8.92734H54.7266ZM40.1198 37.0312H19.88C19.3946 37.0312 19.0011 37.4246 19.0011 37.9102C19.0011 38.3957 19.3946 38.7891 19.88 38.7891H40.1198C40.6054 38.7891 40.9987 38.3957 40.9987 37.9102C40.9987 37.4246 40.6054 37.0312 40.1198 37.0312ZM40.1198 31.7578H19.88C19.3946 31.7578 19.0011 32.1512 19.0011 32.6367C19.0011 33.1222 19.3946 33.5156 19.88 33.5156H40.1198C40.6054 33.5156 40.9987 33.1222 40.9987 32.6367C40.9987 32.1512 40.6054 31.7578 40.1198 31.7578ZM35.9053 11.742C34.8628 10.7934 33.2498 10.8476 32.2328 11.8644L28.2291 15.8681L27.7322 15.3713C26.7207 14.3495 25.0175 14.3568 24.0032 15.3711C22.9752 16.3991 22.9751 18.0718 24.0032 19.0999L25.9505 21.0475C26.5584 21.6552 27.3675 21.9898 28.2289 21.9898C29.0905 21.9898 29.8997 21.6551 30.5078 21.0471L35.9967 15.558C37.0499 14.5137 36.9936 12.7323 35.9053 11.742ZM34.7537 14.315L29.2648 19.8041C28.9888 20.08 28.6209 20.232 28.2289 20.232C27.837 20.232 27.4691 20.0801 27.1934 19.8045L25.2462 17.8571C24.9035 17.5144 24.9035 16.9568 25.2462 16.6143C25.5844 16.2761 26.1525 16.2742 26.4892 16.6141L27.3588 17.4839C27.5912 17.7164 27.9002 17.8445 28.2289 17.8445C28.5577 17.8445 28.8666 17.7165 29.0991 17.4841L33.4758 13.1075C33.8221 12.761 34.3814 12.7321 34.7222 13.042C35.0877 13.3745 35.1063 13.9666 34.7537 14.315ZM30 5.27344C23.7967 5.27344 18.75 10.3201 18.75 16.5234C18.75 22.7268 23.7967 27.7734 30 27.7734C36.2033 27.7734 41.25 22.7268 41.25 16.5234C41.25 10.3201 36.2033 5.27344 30 5.27344ZM30 26.0156C24.7659 26.0156 20.5078 21.7574 20.5078 16.5234C20.5078 11.2895 24.7659 7.03125 30 7.03125C35.2339 7.03125 39.4922 11.2895 39.4922 16.5234C39.4922 21.7574 35.2339 26.0156 30 26.0156Z" fill="#0088CC"/>
</g>
</g>
<defs>
<clipPath id="clip0_288_536">
<rect width="60" height="60" fill="white"/>
</clipPath>
</defs>
</svg>
