<svg width="60" height="55" viewBox="0 0 60 55" fill="none" xmlns="http://www.w3.org/2000/svg">
<g clip-path="url(#clip0_288_523)">
<path d="M54.7366 3.37717C54.3636 3.06801 53.8097 3.11785 53.4987 3.48815C53.1878 3.85845 53.2377 4.40924 53.6104 4.71817C56.554 7.15911 58.2422 10.7423 58.2422 14.5488C58.2422 17.5904 57.1506 20.5382 55.1684 22.8491C53.2079 25.1346 50.497 26.6692 47.5346 27.17C46.822 27.2908 46.0895 27.3521 45.3574 27.3521C43.4289 27.3521 41.5155 26.9181 39.7902 26.0954V24.0924C41.472 25.0603 43.3968 25.5831 45.3574 25.5831C51.4799 25.5831 56.4609 20.6336 56.4609 14.5498C56.4609 8.46611 51.4799 3.51656 45.3574 3.51656C41.4734 3.51656 37.9098 5.51547 35.8954 8.77678C35.6063 8.7224 35.3084 8.69271 35.0036 8.69271H33.8995C34.8612 6.83353 36.2647 5.23682 38.0142 4.02834C40.1755 2.5355 42.7147 1.74646 45.3574 1.74646C47.2758 1.74646 49.1198 2.15484 50.8384 2.96018C51.2769 3.16594 51.8011 2.97916 52.0082 2.54284C52.2154 2.10663 52.0271 1.58611 51.5882 1.38047C49.6334 0.46462 47.537 0 45.3574 0C42.3544 0 39.4682 0.897102 37.011 2.59431C36.6055 2.87436 36.2177 3.17432 35.8458 3.48989H6.88711C3.08953 3.49001 0 6.56046 0 10.3346V43.0478C0 46.5254 2.62453 49.4034 6.00844 49.8337V52.2611C6.00844 53.7711 7.24488 54.9998 8.76457 54.9998H12.7219C14.2416 54.9998 15.478 53.7711 15.478 52.2611V49.8914H17.4329C17.9183 49.8914 18.3118 49.5004 18.3118 49.018C18.3118 48.5357 17.9183 48.1447 17.4329 48.1447H6.88711C4.05879 48.1447 1.75781 45.8583 1.75781 43.0478V10.3346C1.75781 7.52359 4.05879 5.23659 6.88711 5.23659H34.1074C33.2331 6.2782 32.5073 7.4387 31.9527 8.69294L6.11367 8.69283C5.62828 8.69283 5.23477 9.08385 5.23477 9.56617V13.7985C3.85008 14.3217 2.86312 15.6535 2.86312 17.2109C2.86312 18.7682 3.85008 20.1 5.23477 20.6232V32.7601C3.85008 33.2832 2.86312 34.615 2.86312 36.1724C2.86312 37.7297 3.85008 39.0615 5.23477 39.5847V43.8166C5.23477 44.2989 5.62828 44.69 6.11367 44.69L43.7742 44.6902C46.4137 44.6902 48.5613 42.5563 48.5613 39.9334V28.7482C49.7735 28.4787 50.9422 28.0568 52.0396 27.4966V43.0481C52.0396 45.8585 49.738 48.1449 46.9091 48.1449H20.9344C20.449 48.1449 20.0555 48.5359 20.0555 49.0183C20.0555 49.5006 20.449 49.8916 20.9344 49.8916H38.3188V52.2613C38.3188 53.7714 39.5552 55 41.0749 55H45.0322C46.552 55 47.7885 53.7714 47.7885 52.2613V49.8339C51.1726 49.4032 53.7974 46.5254 53.7974 43.0481V26.4374C54.793 25.739 55.7051 24.9162 56.5062 23.9822C58.7591 21.3554 60 18.0053 60 14.5488C60 10.2228 58.0815 6.15092 54.7366 3.37717ZM13.7201 52.2612C13.7201 52.8081 13.2723 53.2532 12.7218 53.2532H8.76457C8.21414 53.2532 7.76625 52.8081 7.76625 52.2612V49.8922H13.7201V52.2612ZM46.0305 52.2612C46.0305 52.8081 45.5827 53.2532 45.0321 53.2532H41.0748C40.5244 53.2532 40.0765 52.8081 40.0765 52.2612V49.8922H46.0304L46.0305 52.2612ZM45.3574 5.26349C50.5107 5.26349 54.7031 9.42947 54.7031 14.5501C54.7031 19.6707 50.5107 23.8367 45.3574 23.8367C43.353 23.8367 41.392 23.1898 39.7902 22.0078V13.4494C39.7902 11.7605 38.8989 10.2753 37.5599 9.43121C39.2811 6.84017 42.1929 5.26349 45.3574 5.26349ZM4.62094 17.2108C4.62094 16.1615 5.48016 15.3077 6.53613 15.3077H9.41004C10.466 15.3077 11.3252 16.1615 11.3252 17.2108C11.3252 18.26 10.466 19.1138 9.41004 19.1138H6.53613C5.48016 19.1138 4.62094 18.26 4.62094 17.2108ZM4.62094 36.1723C4.62094 35.123 5.48016 34.2692 6.53613 34.2692H9.41004C10.466 34.2692 11.3252 35.123 11.3252 36.1723C11.3252 37.2216 10.466 38.0754 9.41004 38.0754H6.53613C5.48016 38.0752 4.62094 37.2216 4.62094 36.1723ZM6.99258 39.8219H9.41004C11.4354 39.8219 13.083 38.1847 13.083 36.1722C13.083 34.1596 11.4354 32.5224 9.41004 32.5224H6.99258V20.8605H9.41004C11.4354 20.8605 13.083 19.2233 13.083 17.2108C13.083 15.1982 11.4354 13.561 9.41004 13.561H6.99258V10.4394L30.2295 10.4395C31.8967 10.4431 33.252 11.7919 33.252 13.4494V39.934C33.252 41.5932 31.893 42.9429 30.2227 42.9429H6.99258V39.8219ZM33.9264 42.9434C34.603 42.123 35.0098 41.075 35.0098 39.9342V13.4495C35.0098 12.3085 34.603 11.2601 33.9264 10.4396H35.0034C36.6736 10.4396 38.0324 11.7897 38.0324 13.4493V39.9336C38.0324 41.5931 36.6736 42.9433 35.0034 42.9433L33.9264 42.9434ZM43.7742 42.9434H38.7069C39.3834 42.1229 39.7902 41.0747 39.7902 39.9337V28.0066C41.5466 28.7233 43.4457 29.0989 45.3574 29.0989C45.8408 29.0989 46.324 29.0724 46.8035 29.0257V39.9333C46.8035 41.593 45.4446 42.9434 43.7742 42.9434Z" fill="#0088CC"/>
<path d="M49.2331 16.0097C49.2331 16.7571 48.9611 17.3587 48.4172 17.8147C47.8732 18.2659 47.1116 18.5362 46.1325 18.6255V20.0708H45.1604V18.6537C44.0062 18.6302 42.994 18.428 42.1236 18.0473V16.186C42.5351 16.3881 43.0294 16.5667 43.6065 16.7218C44.1883 16.8769 44.7063 16.9686 45.1604 16.9968V14.8112L44.685 14.6279C43.7484 14.2612 43.0838 13.8641 42.6912 13.4363C42.3033 13.0039 42.1094 12.4704 42.1094 11.8359C42.1094 11.1543 42.3767 10.595 42.9112 10.1579C43.4504 9.71603 44.2002 9.44812 45.1604 9.35411V8.27539H46.1325V9.32591C47.2157 9.37291 48.1948 9.58913 49.0699 9.97455L48.403 11.6244C47.665 11.3235 46.9082 11.1402 46.1325 11.0744V13.1543C47.0548 13.5068 47.71 13.8123 48.0979 14.0709C48.4905 14.3294 48.7767 14.6137 48.9564 14.924C49.1409 15.2342 49.2331 15.5961 49.2331 16.0097ZM47.0974 16.1155C47.0974 15.9181 47.017 15.7512 46.8562 15.6149C46.6954 15.4786 46.4541 15.3376 46.1325 15.1919V16.9475C46.7758 16.8393 47.0974 16.562 47.0974 16.1155ZM44.2451 11.8359C44.2451 12.0427 44.316 12.2142 44.458 12.3506C44.6046 12.4822 44.8387 12.6185 45.1604 12.7595V11.1026C44.5502 11.1919 44.2451 11.4363 44.2451 11.8359Z" fill="#0088CC"/>
<path d="M20.0282 16.9448C17.2416 16.9448 14.9746 19.1976 14.9746 21.9666V22.131C14.0767 22.5805 13.459 23.5046 13.459 24.57V28.7894C13.459 29.8548 14.0767 30.7788 14.9746 31.2284V31.3925C14.9746 34.1615 17.2416 36.4142 20.0282 36.4142C22.8148 36.4142 25.0818 34.1615 25.0818 31.3925V21.9665C25.0818 20.6241 24.5558 19.3631 23.6017 18.4165C22.6481 17.4676 21.3791 16.9448 20.0282 16.9448ZM15.2168 24.57C15.2168 24.0278 15.6607 23.5868 16.2063 23.5868C16.752 23.5868 17.1957 24.0279 17.1957 24.57V28.7894C17.1957 29.3316 16.7518 29.7725 16.2063 29.7725C15.6607 29.7725 15.2169 29.3314 15.2169 28.7894L15.2168 24.57ZM18.7685 23.5868H19.0778C19.6234 23.5868 20.0672 24.0279 20.0672 24.57V28.7894C20.0672 29.3316 19.6233 29.7725 19.0778 29.7725H18.7685C18.8876 29.4672 18.9536 29.1359 18.9536 28.7894V24.57C18.9536 24.2234 18.8876 23.892 18.7685 23.5868ZM23.3239 31.3927C23.3239 33.1985 21.8455 34.6676 20.0282 34.6676C18.2536 34.6676 16.8029 33.2666 16.7357 31.5194H19.0779C20.5928 31.5194 21.8251 30.2947 21.8251 28.7895V24.5701C21.8251 23.0648 20.5927 21.8402 19.0779 21.8402H16.7357C16.8029 20.0928 18.2536 18.6918 20.0282 18.6918C20.9091 18.6918 21.7363 19.0324 22.3587 19.6519C22.9812 20.2694 23.3239 21.0915 23.3239 21.9667V31.3927Z" fill="#0088CC"/>
</g>
<defs>
<clipPath id="clip0_288_523">
<rect width="60" height="55" fill="white"/>
</clipPath>
</defs>
</svg>
