<svg width="30" height="30" viewBox="0 0 30 30" fill="none" xmlns="http://www.w3.org/2000/svg">
<path d="M30 15C30 23.2843 23.2843 30 15 30C6.71573 30 0 23.2843 0 15C0 6.71573 6.71573 0 15 0C23.2843 0 30 6.71573 30 15Z" fill="white"/>
<path fill-rule="evenodd" clip-rule="evenodd" d="M15 28.3333C22.3638 28.3333 28.3333 22.3638 28.3333 15C28.3333 7.6362 22.3638 1.66667 15 1.66667C7.6362 1.66667 1.66667 7.6362 1.66667 15C1.66667 22.3638 7.6362 28.3333 15 28.3333ZM15 30C23.2843 30 30 23.2843 30 15C30 6.71573 23.2843 0 15 0C6.71573 0 0 6.71573 0 15C0 23.2843 6.71573 30 15 30Z" fill="#005CB9"/>
<path d="M19.2174 9.36835C17.339 6.83468 15.4338 4.78484 15.4146 4.76446C15.3175 4.66028 15.1815 4.60107 15.0391 4.60107C14.8967 4.60107 14.7607 4.66022 14.6636 4.76446C14.6445 4.78484 12.7392 6.83468 10.8609 9.36835C8.29509 12.8292 6.99414 15.5158 6.99414 17.3533C6.99414 21.7894 10.6031 25.3986 15.0391 25.3986C19.4752 25.3986 23.0842 21.7895 23.0842 17.3533C23.0842 15.5158 21.7832 12.8293 19.2174 9.36835ZM15.8426 22.7951C15.4209 22.8948 14.9861 22.9454 14.5506 22.9454C11.4548 22.9454 8.9361 20.4266 8.9361 17.3307C8.9361 16.9039 9.06749 16.1306 9.69345 14.8705C9.75635 14.7438 9.9012 14.681 10.0368 14.7212C10.1723 14.7615 10.2591 14.8935 10.2425 15.0339C10.2282 15.1551 10.2209 15.2693 10.2209 15.3732C10.2209 18.6916 12.5811 21.5742 15.8329 22.227C15.9668 22.254 16.064 22.3705 16.0663 22.5071C16.0687 22.6439 15.9756 22.7636 15.8426 22.7951Z" fill="#1B3544"/>
</svg>
