<svg width="31" height="30" viewBox="0 0 31 30" fill="none" xmlns="http://www.w3.org/2000/svg">
<g clip-path="url(#clip0_13_840)">
<path d="M15.5 30C23.7843 30 30.5 23.2843 30.5 15C30.5 6.71573 23.7843 0 15.5 0C7.21573 0 0.5 6.71573 0.5 15C0.5 23.2843 7.21573 30 15.5 30Z" fill="#F0F0F0"/>
<path d="M14.8477 15H30.4998C30.4998 13.6461 30.3193 12.3346 29.9831 11.0869H14.8477V15Z" fill="#D80027"/>
<path d="M14.8477 7.17393H28.2982C27.38 5.67557 26.2059 4.35118 24.8371 3.26086H14.8477V7.17393Z" fill="#D80027"/>
<path d="M15.4994 30C19.0296 30 22.2743 28.7798 24.8366 26.7391H6.16211C8.72441 28.7798 11.9692 30 15.4994 30Z" fill="#D80027"/>
<path d="M2.70146 22.826H28.2983C29.0354 21.6232 29.6071 20.3083 29.9831 18.913H1.0166C1.3926 20.3083 1.9643 21.6232 2.70146 22.826Z" fill="#D80027"/>
<path d="M7.44828 2.34246H8.81521L7.54373 3.26619L8.02941 4.76086L6.75799 3.83713L5.48656 4.76086L5.90609 3.46963C4.7866 4.40215 3.80539 5.49469 2.9968 6.71203H3.43479L2.62543 7.30002C2.49934 7.51037 2.3784 7.72406 2.2625 7.94092L2.64898 9.13043L1.92793 8.60654C1.74869 8.98629 1.58475 9.37459 1.43738 9.77098L1.86318 11.0816H3.43479L2.1633 12.0053L2.64898 13.5L1.37756 12.5763L0.615957 13.1296C0.539727 13.7424 0.5 14.3665 0.5 15H15.5C15.5 6.71578 15.5 5.73914 15.5 0C12.5368 0 9.77451 0.85957 7.44828 2.34246ZM8.02941 13.5L6.75799 12.5763L5.48656 13.5L5.97225 12.0053L4.70076 11.0816H6.27236L6.75799 9.58693L7.24361 11.0816H8.81521L7.54373 12.0053L8.02941 13.5ZM7.54373 7.63576L8.02941 9.13043L6.75799 8.2067L5.48656 9.13043L5.97225 7.63576L4.70076 6.71203H6.27236L6.75799 5.21736L7.24361 6.71203H8.81521L7.54373 7.63576ZM13.4098 13.5L12.1384 12.5763L10.867 13.5L11.3527 12.0053L10.0812 11.0816H11.6528L12.1384 9.58693L12.624 11.0816H14.1956L12.9242 12.0053L13.4098 13.5ZM12.9242 7.63576L13.4098 9.13043L12.1384 8.2067L10.867 9.13043L11.3527 7.63576L10.0812 6.71203H11.6528L12.1384 5.21736L12.624 6.71203H14.1956L12.9242 7.63576ZM12.9242 3.26619L13.4098 4.76086L12.1384 3.83713L10.867 4.76086L11.3527 3.26619L10.0812 2.34246H11.6528L12.1384 0.847793L12.624 2.34246H14.1956L12.9242 3.26619Z" fill="#0052B4"/>
</g>
<defs>
<clipPath id="clip0_13_840">
<rect width="30" height="30" fill="white" transform="translate(0.5)"/>
</clipPath>
</defs>
</svg>
