<svg width="30" height="30" viewBox="0 0 30 30" fill="none" xmlns="http://www.w3.org/2000/svg">
<circle cx="15" cy="15" r="15" fill="#BABABA"/>
<path d="M24.1842 3.13933L17.8637 29.727C17.3627 29.8239 16.8527 29.8958 16.3352 29.9415H13.6653C12.7158 29.8577 11.7918 29.6855 10.9014 29.4331L17.7798 0.25708C20.1605 0.703148 22.3431 1.71163 24.1842 3.13933Z" fill="#BCBCBC"/>
<path d="M29.4618 11.0056L26.1189 25.0677C24.0107 27.3946 21.1823 29.0569 17.9854 29.7027L24.2379 3.18164C26.7345 5.13604 28.5961 7.86437 29.4618 11.0056Z" fill="#A9A9A9"/>
<path fill-rule="evenodd" clip-rule="evenodd" d="M16.8839 0.117188C17.1661 0.152552 17.4458 0.195756 17.7229 0.246574L10.7921 29.4018C8.43927 28.7156 6.32556 27.4684 4.60547 25.8148L10.5319 0.67664C11.3644 0.41725 12.228 0.228433 13.1157 0.117188H16.8839Z" fill="#D1D1D1"/>
<path fill-rule="evenodd" clip-rule="evenodd" d="M10.4676 0.696899L4.51701 25.7288C1.73643 23.0116 0.00798327 19.2222 0 15.0292L1.59589 8.25996C3.39888 4.68134 6.59283 1.92361 10.4676 0.696899Z" fill="#E2E2E2"/>
<path d="M4.45312 16.2323L5.34302 16.1087L9.53705 5.27344H10.9296L15.0494 16.1087L15.9311 16.2323V17.2705H12.4869V16.2323L13.3932 16.0757L12.6022 13.8675H7.79846L6.98273 16.0757L7.8891 16.2323V17.2705H4.45312V16.2323ZM8.30109 12.5079H12.1078L10.2457 7.35809H10.1962L8.30109 12.5079Z" fill="black"/>
<path d="M17.1011 12.9776C17.1011 11.5439 17.4142 10.3876 18.0405 9.50867C18.6667 8.62976 19.5319 8.19031 20.636 8.19031C21.1963 8.19031 21.6879 8.30017 22.1109 8.5199C22.5339 8.73962 22.8882 9.05823 23.1738 9.47571L23.3221 8.3551H24.6899V17.1552C24.6899 18.3087 24.3686 19.2151 23.7259 19.8743C23.0832 20.5389 22.1686 20.8713 20.9821 20.8713C20.5536 20.8713 20.0894 20.8109 19.5895 20.69C19.0897 20.5746 18.6502 20.4153 18.2712 20.2121L18.6914 18.9514C18.9935 19.1107 19.3506 19.2426 19.7626 19.3469C20.1746 19.4513 20.5756 19.5035 20.9656 19.5035C21.6907 19.5035 22.2208 19.3002 22.5558 18.8937C22.8964 18.4872 23.0667 17.9077 23.0667 17.1552V16.3065C22.7756 16.68 22.4268 16.9629 22.0203 17.1552C21.6138 17.3474 21.1469 17.4435 20.6195 17.4435C19.5264 17.4435 18.6667 17.048 18.0405 16.257C17.4142 15.466 17.1011 14.4305 17.1011 13.1506V12.9776ZM18.7244 13.1506C18.7244 14.046 18.9139 14.7656 19.2929 15.3094C19.6719 15.8533 20.2487 16.1252 21.0233 16.1252C21.5121 16.1252 21.9214 16.0153 22.251 15.7956C22.5806 15.5704 22.8525 15.2545 23.0667 14.848V10.7446C22.858 10.3656 22.5861 10.0662 22.251 9.8465C21.9159 9.62128 21.5121 9.50867 21.0397 9.50867C20.2652 9.50867 19.6857 9.83276 19.3011 10.481C18.9166 11.1292 18.7244 11.9614 18.7244 12.9776V13.1506Z" fill="black"/>
<path d="M7.9232 23.3102H6.66664L6.38443 24.093H5.97656L7.12189 21.0938H7.46796L8.61534 24.093H8.20953L7.9232 23.3102ZM6.78612 22.9848H7.80579L7.29492 21.582L6.78612 22.9848Z" fill="black"/>
<path d="M10.0367 22.2061C9.97902 22.1965 9.91653 22.1917 9.84924 22.1917C9.5993 22.1917 9.4297 22.2981 9.34044 22.511V24.093H8.95935V21.8642H9.33014L9.33632 22.1217C9.46129 21.9225 9.63844 21.823 9.86778 21.823C9.94194 21.823 9.99825 21.8326 10.0367 21.8518V22.2061Z" fill="black"/>
<path d="M10.2571 22.9601C10.2571 22.6126 10.3374 22.3366 10.4981 22.132C10.6588 21.926 10.8717 21.823 11.1367 21.823C11.4086 21.823 11.6208 21.9191 11.7732 22.1114L11.7918 21.8642H12.1399V24.0395C12.1399 24.3279 12.0541 24.5551 11.8824 24.7213C11.7121 24.8875 11.4828 24.9706 11.1944 24.9706C11.0337 24.9706 10.8765 24.9362 10.7227 24.8676C10.5688 24.7989 10.4514 24.7048 10.3704 24.5853L10.5682 24.3567C10.7316 24.5586 10.9314 24.6595 11.1676 24.6595C11.353 24.6595 11.4972 24.6073 11.6002 24.5029C11.7046 24.3986 11.7567 24.2516 11.7567 24.0621V23.8705C11.6043 24.0463 11.3963 24.1342 11.1326 24.1342C10.8717 24.1342 10.6602 24.0292 10.4981 23.819C10.3374 23.6089 10.2571 23.3226 10.2571 22.9601ZM10.6403 23.0033C10.6403 23.2546 10.6918 23.4524 10.7948 23.5966C10.8978 23.7394 11.0419 23.8108 11.2273 23.8108C11.4677 23.8108 11.6441 23.7016 11.7567 23.4833V22.4657C11.64 22.2528 11.4649 22.1464 11.2315 22.1464C11.0461 22.1464 10.9012 22.2185 10.7968 22.3627C10.6924 22.5069 10.6403 22.7204 10.6403 23.0033Z" fill="black"/>
<path d="M13.6416 24.1342C13.3395 24.1342 13.0936 24.0353 12.9041 23.8376C12.7146 23.6385 12.6199 23.3727 12.6199 23.0404V22.9704C12.6199 22.7493 12.6617 22.5522 12.7455 22.3792C12.8307 22.2047 12.9488 22.0688 13.0998 21.9713C13.2523 21.8724 13.4171 21.823 13.5942 21.823C13.884 21.823 14.1092 21.9184 14.2699 22.1093C14.4305 22.3002 14.5109 22.5735 14.5109 22.9292V23.0878H13.0009C13.0064 23.3075 13.0703 23.4853 13.1925 23.6213C13.3161 23.7559 13.4727 23.8232 13.6622 23.8232C13.7968 23.8232 13.9108 23.7957 14.0041 23.7408C14.0975 23.6858 14.1792 23.6131 14.2493 23.5224L14.482 23.7037C14.2953 23.9907 14.0151 24.1342 13.6416 24.1342ZM13.5942 22.1361C13.4404 22.1361 13.3113 22.1924 13.2069 22.305C13.1026 22.4162 13.038 22.5728 13.0133 22.7747H14.1298V22.7458C14.1188 22.5522 14.0666 22.4025 13.9732 22.2968C13.8799 22.1896 13.7535 22.1361 13.5942 22.1361Z" fill="black"/>
<path d="M15.3143 21.8642L15.3266 22.1443C15.4969 21.9301 15.7194 21.823 15.994 21.823C16.4651 21.823 16.7027 22.0887 16.7068 22.6202V24.093H16.3257V22.6181C16.3243 22.4574 16.2872 22.3386 16.2144 22.2617C16.143 22.1848 16.0311 22.1464 15.8787 22.1464C15.7551 22.1464 15.6466 22.1793 15.5532 22.2453C15.4598 22.3112 15.387 22.3977 15.3349 22.5048V24.093H14.9538V21.8642H15.3143Z" fill="black"/>
<path d="M17.7985 21.3245V21.8642H18.2146V22.1587H17.7985V23.541C17.7985 23.6302 17.8171 23.6975 17.8542 23.7428C17.8912 23.7868 17.9544 23.8087 18.0437 23.8087C18.0876 23.8087 18.148 23.8005 18.2249 23.784V24.093C18.1247 24.1205 18.0272 24.1342 17.9324 24.1342C17.7621 24.1342 17.6337 24.0827 17.5472 23.9797C17.4607 23.8767 17.4174 23.7305 17.4174 23.541V22.1587H17.0116V21.8642H17.4174V21.3245H17.7985Z" fill="black"/>
<path d="M20.0377 23.8726C19.8894 24.047 19.6717 24.1342 19.3847 24.1342C19.1471 24.1342 18.9658 24.0656 18.8409 23.9282C18.7173 23.7895 18.6548 23.5849 18.6534 23.3144V21.8642H19.0345V23.3041C19.0345 23.6419 19.1718 23.8108 19.4465 23.8108C19.7376 23.8108 19.9313 23.7023 20.0274 23.4853V21.8642H20.4085V24.093H20.0459L20.0377 23.8726Z" fill="black"/>
<path d="M21.3478 21.8642L21.3581 22.1114C21.5215 21.9191 21.7419 21.823 22.0193 21.823C22.3311 21.823 22.5433 21.9424 22.6559 22.1814C22.73 22.0743 22.8262 21.9878 22.9443 21.9218C23.0637 21.8559 23.2045 21.823 23.3665 21.823C23.8554 21.823 24.104 22.0818 24.1122 22.5996V24.093H23.7312V22.6222C23.7312 22.4629 23.6948 22.3441 23.622 22.2659C23.5492 22.1862 23.427 22.1464 23.2553 22.1464C23.1139 22.1464 22.9964 22.1889 22.9031 22.2741C22.8097 22.3579 22.7554 22.4712 22.7403 22.614V24.093H22.3572V22.6325C22.3572 22.3084 22.1986 22.1464 21.8813 22.1464C21.6314 22.1464 21.4604 22.2528 21.3684 22.4657V24.093H20.9873V21.8642H21.3478Z" fill="black"/>
</svg>
