<svg width="30" height="30" viewBox="0 0 30 30" fill="none" xmlns="http://www.w3.org/2000/svg">
<circle cx="15" cy="15" r="15" fill="#FFE26D"/>
<path d="M24.1842 3.13933L17.8637 29.727C17.3627 29.8239 16.8527 29.8958 16.3352 29.9415H13.6653C12.7158 29.8577 11.7918 29.6855 10.9014 29.4331L17.7798 0.25708C20.1605 0.703148 22.3431 1.71163 24.1842 3.13933Z" fill="#FFE371"/>
<path d="M29.4618 11.0056L26.1189 25.0677C24.0107 27.3946 21.1823 29.0569 17.9854 29.7027L24.2379 3.18164C26.7345 5.13604 28.5961 7.86437 29.4618 11.0056Z" fill="#F7D80C"/>
<path fill-rule="evenodd" clip-rule="evenodd" d="M16.8839 0.117188C17.1661 0.152552 17.4458 0.195756 17.7229 0.246574L10.7921 29.4018C8.43927 28.7156 6.32556 27.4684 4.60547 25.8148L10.5319 0.67664C11.3644 0.41725 12.228 0.228433 13.1157 0.117188H16.8839Z" fill="#FFE88C"/>
<path fill-rule="evenodd" clip-rule="evenodd" d="M10.4676 0.696899L4.51701 25.7288C1.73643 23.0116 0.00798327 19.2222 0 15.0292L1.59589 8.25996C3.39888 4.68134 6.59283 1.92361 10.4676 0.696899Z" fill="#FFEC9F"/>
<path d="M4.45312 16.1884L5.34302 16.0648L9.53705 5.22949H10.9296L15.0494 16.0648L15.9311 16.1884V17.2266H12.4869V16.1884L13.3932 16.0318L12.6022 13.8235H7.79846L6.98273 16.0318L7.8891 16.1884V17.2266H4.45312V16.1884ZM8.30109 12.464H12.1078L10.2457 7.31415H10.1962L8.30109 12.464Z" fill="black"/>
<path d="M22.8772 15.9082C22.597 16.3861 22.2345 16.7542 21.7896 17.0123C21.3501 17.2705 20.842 17.3996 20.2652 17.3996C19.2984 17.3996 18.5431 17.0892 17.9993 16.4685C17.4554 15.8478 17.1835 14.881 17.1835 13.5681V9.58832L16.1618 9.3576V8.31116H17.1835H18.8068V13.5846C18.8068 14.5349 18.9468 15.1886 19.227 15.5457C19.5071 15.9027 19.9438 16.0812 20.5371 16.0812C21.1139 16.0812 21.5891 15.9659 21.9626 15.7352C22.3416 15.499 22.6273 15.1666 22.8195 14.7382V9.58832L21.6248 9.3576V8.31116H22.8195H24.4427V15.9576L25.4645 16.1884V17.2266H22.9843L22.8772 15.9082Z" fill="black"/>
<path d="M10.8529 23.3578H9.59633L9.31412 24.1406H8.90625L10.0516 21.1414H10.3976L11.545 24.1406H11.1392L10.8529 23.3578ZM9.71581 23.0324H10.7355L10.2246 21.6296L9.71581 23.0324Z" fill="black"/>
<path d="M13.2404 23.9202C13.092 24.0946 12.8744 24.1818 12.5874 24.1818C12.3498 24.1818 12.1685 24.1132 12.0435 23.9758C11.9199 23.8371 11.8575 23.6325 11.8561 23.362V21.9118H12.2372V23.3517C12.2372 23.6895 12.3745 23.8584 12.6492 23.8584C12.9403 23.8584 13.1339 23.7499 13.2301 23.5329V21.9118H13.6111V24.1406H13.2486L13.2404 23.9202Z" fill="black"/>
<path d="M15.2694 22.2537C15.2117 22.2441 15.1492 22.2393 15.0819 22.2393C14.832 22.2393 14.6624 22.3457 14.5731 22.5586V24.1406H14.192V21.9118H14.5628L14.569 22.1693C14.694 21.9701 14.8711 21.8706 15.1005 21.8706C15.1746 21.8706 15.2309 21.8802 15.2694 21.8994V22.2537Z" fill="black"/>
<path d="M16.9977 23.9202C16.8494 24.0946 16.6317 24.1818 16.3447 24.1818C16.1071 24.1818 15.9258 24.1132 15.8009 23.9758C15.6773 23.8371 15.6148 23.6325 15.6134 23.362V21.9118H15.9945V23.3517C15.9945 23.6895 16.1318 23.8584 16.4065 23.8584C16.6976 23.8584 16.8913 23.7499 16.9874 23.5329V21.9118H17.3685V24.1406H17.0059L16.9977 23.9202Z" fill="black"/>
<path d="M18.3078 21.9118L18.3181 22.159C18.4815 21.9667 18.7019 21.8706 18.9793 21.8706C19.2911 21.8706 19.5033 21.9901 19.6159 22.229C19.69 22.1219 19.7861 22.0354 19.9043 21.9695C20.0237 21.9035 20.1645 21.8706 20.3265 21.8706C20.8154 21.8706 21.064 22.1294 21.0722 22.6472V24.1406H20.6911V22.6698C20.6911 22.5105 20.6548 22.3917 20.582 22.3135C20.5092 22.2338 20.387 22.194 20.2153 22.194C20.0739 22.194 19.9564 22.2366 19.8631 22.3217C19.7697 22.4055 19.7154 22.5188 19.7003 22.6616V24.1406H19.3172V22.6801C19.3172 22.356 19.1586 22.194 18.8413 22.194C18.5914 22.194 18.4204 22.3004 18.3284 22.5133V24.1406H17.9473V21.9118H18.3078Z" fill="black"/>
</svg>
