<svg width="30" height="30" viewBox="0 0 30 30" fill="none" xmlns="http://www.w3.org/2000/svg">
<circle cx="15" cy="15" r="15" fill="#3498DB"/>
<path d="M24.1842 3.13933L17.8637 29.727C17.3627 29.8239 16.8527 29.8958 16.3352 29.9415H13.6653C12.7158 29.8577 11.7918 29.6855 10.9014 29.4331L17.7798 0.25708C20.1605 0.703148 22.3431 1.71163 24.1842 3.13933Z" fill="#479AD2"/>
<path d="M29.4618 11.0056L26.1189 25.0677C24.0107 27.3946 21.1823 29.0569 17.9854 29.7027L24.2379 3.18164C26.7345 5.13604 28.5961 7.86437 29.4618 11.0056Z" fill="#5AA8DD"/>
<path fill-rule="evenodd" clip-rule="evenodd" d="M16.8839 0.117188C17.1661 0.152552 17.4458 0.195756 17.7229 0.246574L10.7921 29.4018C8.43927 28.7156 6.32556 27.4684 4.60547 25.8148L10.5319 0.67664C11.3644 0.41725 12.228 0.228433 13.1157 0.117188H16.8839Z" fill="#40A3E5"/>
<path fill-rule="evenodd" clip-rule="evenodd" d="M10.4676 0.696899L4.51701 25.7288C1.73643 23.0116 0.00798327 19.2222 0 15.0292L1.59589 8.25996C3.39888 4.68134 6.59283 1.92361 10.4676 0.696899Z" fill="#3498DB"/>
<path d="M15.1795 13.4013C15.1296 13.3573 15.0659 13.333 15 13.333C14.9341 13.333 14.8704 13.3573 14.8205 13.4013C14.1227 14.0314 12.5 15.7129 12.5 17.7146C12.5 20.4226 14.4618 22.0928 15 22.4997C15.5375 22.0917 17.5 20.4159 17.5 17.7146C17.5 15.7129 15.8773 14.0314 15.1795 13.4013Z" fill="white"/>
<path d="M16.8221 8.55426C16.2009 7.86218 15.5586 7.14687 14.994 6.44409C14.4409 7.14687 13.7986 7.86279 13.1774 8.55487C11.0688 10.9052 8.88867 13.3338 8.88867 16.0471C8.88867 19.6768 11.305 21.8832 13.3318 23.0929C13.5048 23.1938 13.6867 23.2785 13.8753 23.3459C12.8371 22.3724 11.3331 20.4948 11.3331 17.7802C11.3331 15.1433 13.4613 12.983 14.3765 12.1775C14.5488 12.0262 14.7704 11.9427 14.9998 11.9427C15.2292 11.9427 15.4507 12.0262 15.6231 12.1775C16.538 12.983 18.6665 15.1442 18.6665 17.7802C18.6665 20.4938 17.1625 22.3715 16.1242 23.345C16.3129 23.2777 16.4948 23.193 16.6678 23.092C18.6949 21.882 21.1109 19.6768 21.1109 16.0471C21.1109 13.3335 18.9305 10.9052 16.8221 8.55426Z" fill="white"/>
</svg>
