<svg width="30" height="30" viewBox="0 0 30 30" fill="none" xmlns="http://www.w3.org/2000/svg">
<circle cx="15" cy="15" r="15" fill="#D5D1C6"/>
<path d="M24.1842 3.13933L17.8637 29.727C17.3627 29.8239 16.8527 29.8958 16.3352 29.9415H13.6653C12.7158 29.8577 11.7918 29.6855 10.9014 29.4331L17.7798 0.25708C20.1605 0.703148 22.3431 1.71163 24.1842 3.13933Z" fill="#C7C3B7"/>
<path d="M29.4618 11.0056L26.1189 25.0677C24.0107 27.3946 21.1823 29.0569 17.9854 29.7027L24.2379 3.18164C26.7345 5.13604 28.5961 7.86437 29.4618 11.0056Z" fill="#BDB9AC"/>
<path fill-rule="evenodd" clip-rule="evenodd" d="M16.8839 0.117188C17.1661 0.152552 17.4458 0.195756 17.7229 0.246574L10.7921 29.4018C8.43927 28.7156 6.32556 27.4684 4.60547 25.8148L10.5319 0.67664C11.3644 0.41725 12.228 0.228433 13.1157 0.117188H16.8839Z" fill="#D4D1C5"/>
<path fill-rule="evenodd" clip-rule="evenodd" d="M10.4676 0.696899L4.51701 25.7288C1.73643 23.0116 0.00798327 19.2222 0 15.0292L1.59589 8.25996C3.39888 4.68134 6.59283 1.92361 10.4676 0.696899Z" fill="#E3E1D6"/>
<path d="M10.6686 5.31006C11.9485 5.31006 12.9428 5.63965 13.6514 6.29883C14.3655 6.95801 14.7226 7.82593 14.7226 8.90259C14.7226 9.99023 14.3655 10.8609 13.6514 11.5146C12.9428 12.1683 11.9485 12.4951 10.6686 12.4951H8.12256V16.0382L9.46564 16.2689V17.3071H5.15625V16.2689L6.49933 16.0382V6.58722L5.15625 6.35651V5.31006H6.49933H10.6686ZM8.12256 11.2262H10.6686C11.4816 11.2262 12.0886 11.0092 12.4896 10.5753C12.8961 10.1358 13.0994 9.58374 13.0994 8.91907C13.0994 8.25439 12.8961 7.69958 12.4896 7.25464C12.0886 6.80969 11.4816 6.58722 10.6686 6.58722H8.12256V11.2262Z" fill="black"/>
<path d="M21.9241 16.2442C21.633 16.6507 21.2759 16.9583 20.853 17.1671C20.4355 17.3758 19.9493 17.4802 19.3945 17.4802C18.3069 17.4802 17.4554 17.0874 16.8402 16.3019C16.2305 15.5109 15.9256 14.4727 15.9256 13.1873V13.0142C15.9256 11.5805 16.2305 10.4242 16.8402 9.54529C17.4554 8.66638 18.3124 8.22693 19.411 8.22693C19.9384 8.22693 20.4025 8.32581 20.8035 8.52356C21.21 8.71582 21.5561 8.99597 21.8417 9.36401V5.73029L20.4987 5.49957V4.45312H21.8417H23.465V16.0382L24.808 16.2689V17.3071H22.056L21.9241 16.2442ZM17.5488 13.1873C17.5488 14.0826 17.7328 14.8022 18.1009 15.3461C18.4689 15.8899 19.0375 16.1618 19.8065 16.1618C20.2899 16.1618 20.6964 16.0519 21.026 15.8322C21.3556 15.6125 21.6275 15.3021 21.8417 14.9011V10.7648C21.633 10.3912 21.3611 10.0946 21.026 9.87488C20.6909 9.65515 20.2899 9.54529 19.823 9.54529C19.0485 9.54529 18.4744 9.86664 18.1009 10.5093C17.7328 11.152 17.5488 11.987 17.5488 13.0142V13.1873Z" fill="black"/>
<path d="M6.37207 22.9665V24.1406H5.97656V21.1414H7.08275C7.41096 21.1414 7.66777 21.2251 7.85316 21.3927C8.03993 21.5602 8.13332 21.782 8.13332 22.058C8.13332 22.3492 8.04199 22.5737 7.85934 22.7316C7.67807 22.8882 7.41783 22.9665 7.07863 22.9665H6.37207ZM6.37207 22.6431H7.08275C7.29424 22.6431 7.45628 22.5936 7.56889 22.4947C7.6815 22.3945 7.73781 22.2503 7.73781 22.0621C7.73781 21.8836 7.6815 21.7408 7.56889 21.6337C7.45628 21.5266 7.30179 21.4709 7.10541 21.4668H6.37207V22.6431Z" fill="black"/>
<path d="M9.92958 24.1406C9.90761 24.0967 9.88976 24.0184 9.87602 23.9058C9.69887 24.0898 9.48738 24.1818 9.24156 24.1818C9.02184 24.1818 8.84125 24.12 8.6998 23.9964C8.55972 23.8715 8.48969 23.7135 8.48969 23.5226C8.48969 23.2906 8.57758 23.1107 8.75336 22.9829C8.93051 22.8539 9.17908 22.7893 9.49905 22.7893H9.86984V22.6142C9.86984 22.481 9.83002 22.3753 9.75037 22.297C9.67072 22.2173 9.5533 22.1775 9.39812 22.1775C9.26216 22.1775 9.14818 22.2118 9.05617 22.2805C8.96416 22.3492 8.91815 22.4323 8.91815 22.5298H8.535C8.535 22.4185 8.57414 22.3114 8.65242 22.2084C8.73207 22.104 8.83919 22.0216 8.97377 21.9612C9.10973 21.9008 9.25873 21.8706 9.42078 21.8706C9.67758 21.8706 9.87877 21.9351 10.0243 22.0642C10.1699 22.1919 10.2454 22.3684 10.2509 22.5936V23.6195C10.2509 23.8241 10.277 23.9868 10.3292 24.1077V24.1406H9.92958ZM9.29718 23.8502C9.41666 23.8502 9.52995 23.8193 9.63707 23.7575C9.74419 23.6957 9.82178 23.6153 9.86984 23.5165V23.0592H9.57115C9.10423 23.0592 8.87077 23.1958 8.87077 23.4691C8.87077 23.5886 8.9106 23.6819 8.99025 23.7492C9.0699 23.8165 9.17221 23.8502 9.29718 23.8502Z" fill="black"/>
<path d="M11.2624 24.1406H10.8813V20.9766H11.2624V24.1406Z" fill="black"/>
<path d="M12.2882 24.1406H11.9071V20.9766H12.2882V24.1406Z" fill="black"/>
<path d="M14.276 24.1406C14.2541 24.0967 14.2362 24.0184 14.2225 23.9058C14.0453 24.0898 13.8338 24.1818 13.588 24.1818C13.3683 24.1818 13.1877 24.12 13.0463 23.9964C12.9062 23.8715 12.8362 23.7135 12.8362 23.5226C12.8362 23.2906 12.924 23.1107 13.0998 22.9829C13.277 22.8539 13.5255 22.7893 13.8455 22.7893H14.2163V22.6142C14.2163 22.481 14.1765 22.3753 14.0968 22.297C14.0172 22.2173 13.8998 22.1775 13.7446 22.1775C13.6086 22.1775 13.4946 22.2118 13.4026 22.2805C13.3106 22.3492 13.2646 22.4323 13.2646 22.5298H12.8815C12.8815 22.4185 12.9206 22.3114 12.9989 22.2084C13.0785 22.104 13.1857 22.0216 13.3202 21.9612C13.4562 21.9008 13.6052 21.8706 13.7672 21.8706C14.024 21.8706 14.2252 21.9351 14.3708 22.0642C14.5164 22.1919 14.5919 22.3684 14.5974 22.5936V23.6195C14.5974 23.8241 14.6235 23.9868 14.6757 24.1077V24.1406H14.276ZM13.6436 23.8502C13.7631 23.8502 13.8764 23.8193 13.9835 23.7575C14.0907 23.6957 14.1682 23.6153 14.2163 23.5165V23.0592H13.9176C13.4507 23.0592 13.2172 23.1958 13.2172 23.4691C13.2172 23.5886 13.2571 23.6819 13.3367 23.7492C13.4164 23.8165 13.5187 23.8502 13.6436 23.8502Z" fill="black"/>
<path d="M15.1021 23.0077C15.1021 22.6657 15.1831 22.3911 15.3452 22.1837C15.5072 21.9749 15.7194 21.8706 15.9817 21.8706C16.2426 21.8706 16.4493 21.9598 16.6017 22.1384V20.9766H16.9828V24.1406H16.6326L16.6141 23.9017C16.4616 24.0884 16.2495 24.1818 15.9776 24.1818C15.7194 24.1818 15.5086 24.0761 15.3452 23.8646C15.1831 23.6531 15.1021 23.3771 15.1021 23.0365V23.0077ZM15.4832 23.0509C15.4832 23.3036 15.5354 23.5014 15.6397 23.6442C15.7441 23.787 15.8883 23.8584 16.0723 23.8584C16.314 23.8584 16.4905 23.7499 16.6017 23.5329V22.5092C16.4877 22.299 16.3126 22.194 16.0764 22.194C15.8897 22.194 15.7441 22.2661 15.6397 22.4103C15.5354 22.5545 15.4832 22.768 15.4832 23.0509Z" fill="black"/>
<path d="M17.9901 24.1406H17.609V21.9118H17.9901V24.1406ZM17.5781 21.3206C17.5781 21.2588 17.5967 21.2066 17.6337 21.164C17.6722 21.1214 17.7285 21.1002 17.8027 21.1002C17.8768 21.1002 17.9331 21.1214 17.9716 21.164C18.01 21.2066 18.0293 21.2588 18.0293 21.3206C18.0293 21.3824 18.01 21.4339 17.9716 21.4751C17.9331 21.5163 17.8768 21.5369 17.8027 21.5369C17.7285 21.5369 17.6722 21.5163 17.6337 21.4751C17.5967 21.4339 17.5781 21.3824 17.5781 21.3206Z" fill="black"/>
<path d="M19.978 23.9202C19.8296 24.0946 19.612 24.1818 19.325 24.1818C19.0874 24.1818 18.9061 24.1132 18.7811 23.9758C18.6575 23.8371 18.595 23.6325 18.5937 23.362V21.9118H18.9748V23.3517C18.9748 23.6895 19.1121 23.8584 19.3867 23.8584C19.6779 23.8584 19.8715 23.7499 19.9677 23.5329V21.9118H20.3487V24.1406H19.9862L19.978 23.9202Z" fill="black"/>
<path d="M21.2881 21.9118L21.2984 22.159C21.4618 21.9667 21.6822 21.8706 21.9596 21.8706C22.2713 21.8706 22.4835 21.9901 22.5961 22.229C22.6703 22.1219 22.7664 22.0354 22.8845 21.9695C23.004 21.9035 23.1448 21.8706 23.3068 21.8706C23.7957 21.8706 24.0443 22.1294 24.0525 22.6472V24.1406H23.6714V22.6698C23.6714 22.5105 23.635 22.3917 23.5622 22.3135C23.4895 22.2338 23.3672 22.194 23.1956 22.194C23.0541 22.194 22.9367 22.2366 22.8433 22.3217C22.7499 22.4055 22.6957 22.5188 22.6806 22.6616V24.1406H22.2974V22.6801C22.2974 22.356 22.1388 22.194 21.8216 22.194C21.5717 22.194 21.4007 22.3004 21.3087 22.5133V24.1406H20.9276V21.9118H21.2881Z" fill="black"/>
</svg>
