<svg width="30" height="30" viewBox="0 0 30 30" fill="none" xmlns="http://www.w3.org/2000/svg">
<circle cx="15" cy="15" r="15" fill="#DBDBCF"/>
<path d="M24.1842 3.13933L17.8637 29.727C17.3627 29.8239 16.8527 29.8958 16.3352 29.9415H13.6653C12.7158 29.8577 11.7918 29.6855 10.9014 29.4331L17.7798 0.25708C20.1605 0.703148 22.3431 1.71163 24.1842 3.13933Z" fill="#D4D4C8"/>
<path d="M29.4618 11.0056L26.1189 25.0677C24.0107 27.3946 21.1823 29.0569 17.9854 29.7027L24.2379 3.18164C26.7345 5.13604 28.5961 7.86437 29.4618 11.0056Z" fill="#C9C9BB"/>
<path fill-rule="evenodd" clip-rule="evenodd" d="M16.8839 0.117188C17.1661 0.152552 17.4458 0.195756 17.7229 0.246574L10.7921 29.4018C8.43927 28.7156 6.32556 27.4684 4.60547 25.8148L10.5319 0.67664C11.3644 0.41725 12.228 0.228433 13.1157 0.117188H16.8839Z" fill="#DBDBCF"/>
<path fill-rule="evenodd" clip-rule="evenodd" d="M10.4676 0.696899L4.51701 25.7288C1.73643 23.0116 0.00798327 19.2222 0 15.0292L1.59589 8.25996C3.39888 4.68134 6.59283 1.92361 10.4676 0.696899Z" fill="#EBEBE0"/>
<path d="M12.5436 5.27344C13.8235 5.27344 14.8178 5.60303 15.5264 6.26221C16.2405 6.92139 16.5976 7.78931 16.5976 8.86597C16.5976 9.95361 16.2405 10.8243 15.5264 11.478C14.8178 12.1317 13.8235 12.4585 12.5436 12.4585H9.99756V16.0016L11.3406 16.2323V17.2705H7.03125V16.2323L8.37433 16.0016V6.5506L7.03125 6.31989V5.27344H8.37433H12.5436ZM9.99756 11.1896H12.5436C13.3566 11.1896 13.9636 10.9726 14.3646 10.5386C14.7711 10.0992 14.9744 9.54712 14.9744 8.88245C14.9744 8.21777 14.7711 7.66296 14.3646 7.21802C13.9636 6.77307 13.3566 6.5506 12.5436 6.5506H9.99756V11.1896Z" fill="black"/>
<path d="M20.8575 6.20453V8.3551H22.5467V9.55811H20.8575V14.9716C20.8575 15.3891 20.9427 15.683 21.113 15.8533C21.2888 16.0236 21.5195 16.1087 21.8051 16.1087C21.9479 16.1087 22.1072 16.0977 22.283 16.0757C22.4643 16.0483 22.6154 16.0208 22.7362 15.9933L22.9587 17.1057C22.8049 17.2046 22.5797 17.2842 22.283 17.3447C21.9864 17.4106 21.6898 17.4435 21.3931 17.4435C20.7339 17.4435 20.2094 17.2458 19.8193 16.8503C19.4293 16.4493 19.2343 15.8231 19.2343 14.9716V9.55811H17.8253V8.3551H19.2343V6.20453H20.8575Z" fill="black"/>
<path d="M7.30957 22.9665V24.1406H6.91406V21.1414H8.02025C8.34846 21.1414 8.60527 21.2251 8.79066 21.3927C8.97743 21.5602 9.07082 21.782 9.07082 22.058C9.07082 22.3492 8.97949 22.5737 8.79684 22.7316C8.61557 22.8882 8.35533 22.9665 8.01613 22.9665H7.30957ZM7.30957 22.6431H8.02025C8.23174 22.6431 8.39378 22.5936 8.50639 22.4947C8.619 22.3945 8.67531 22.2503 8.67531 22.0621C8.67531 21.8836 8.619 21.7408 8.50639 21.6337C8.39378 21.5266 8.23929 21.4709 8.04291 21.4668H7.30957V22.6431Z" fill="black"/>
<path d="M9.92981 24.1406H9.54872V20.9766H9.92981V24.1406Z" fill="black"/>
<path d="M11.9176 24.1406C11.8957 24.0967 11.8778 24.0184 11.8641 23.9058C11.6869 24.0898 11.4754 24.1818 11.2296 24.1818C11.0099 24.1818 10.8293 24.12 10.6879 23.9964C10.5478 23.8715 10.4778 23.7135 10.4778 23.5226C10.4778 23.2906 10.5656 23.1107 10.7414 22.9829C10.9186 22.8539 11.1671 22.7893 11.4871 22.7893H11.8579V22.6142C11.8579 22.481 11.8181 22.3753 11.7384 22.297C11.6588 22.2173 11.5414 22.1775 11.3862 22.1775C11.2502 22.1775 11.1362 22.2118 11.0442 22.2805C10.9522 22.3492 10.9062 22.4323 10.9062 22.5298H10.5231C10.5231 22.4185 10.5622 22.3114 10.6405 22.2084C10.7201 22.104 10.8273 22.0216 10.9618 21.9612C11.0978 21.9008 11.2468 21.8706 11.4088 21.8706C11.6656 21.8706 11.8668 21.9351 12.0124 22.0642C12.158 22.1919 12.2335 22.3684 12.239 22.5936V23.6195C12.239 23.8241 12.2651 23.9868 12.3173 24.1077V24.1406H11.9176ZM11.2852 23.8502C11.4047 23.8502 11.518 23.8193 11.6251 23.7575C11.7323 23.6957 11.8098 23.6153 11.8579 23.5165V23.0592H11.5592C11.0923 23.0592 10.8588 23.1958 10.8588 23.4691C10.8588 23.5886 10.8987 23.6819 10.9783 23.7492C11.058 23.8165 11.1603 23.8502 11.2852 23.8502Z" fill="black"/>
<path d="M13.3534 21.3721V21.9118H13.7695V22.2063H13.3534V23.5886C13.3534 23.6778 13.372 23.7451 13.409 23.7904C13.4461 23.8344 13.5093 23.8564 13.5986 23.8564C13.6425 23.8564 13.7029 23.8481 13.7798 23.8316V24.1406C13.6796 24.1681 13.5821 24.1818 13.4873 24.1818C13.317 24.1818 13.1886 24.1303 13.1021 24.0273C13.0156 23.9243 12.9723 23.7781 12.9723 23.5886V22.2063H12.5665V21.9118H12.9723V21.3721H13.3534Z" fill="black"/>
<path d="M14.6306 24.1406H14.2495V21.9118H14.6306V24.1406ZM14.2186 21.3206C14.2186 21.2588 14.2371 21.2066 14.2742 21.164C14.3127 21.1214 14.369 21.1002 14.4431 21.1002C14.5173 21.1002 14.5736 21.1214 14.612 21.164C14.6505 21.2066 14.6697 21.2588 14.6697 21.3206C14.6697 21.3824 14.6505 21.4339 14.612 21.4751C14.5736 21.5163 14.5173 21.5369 14.4431 21.5369C14.369 21.5369 14.3127 21.5163 14.2742 21.4751C14.2371 21.4339 14.2186 21.3824 14.2186 21.3206Z" fill="black"/>
<path d="M15.6029 21.9118L15.6152 22.1919C15.7855 21.9777 16.008 21.8706 16.2827 21.8706C16.7537 21.8706 16.9913 22.1363 16.9954 22.6678V24.1406H16.6143V22.6657C16.6129 22.505 16.5759 22.3862 16.5031 22.3093C16.4317 22.2324 16.3197 22.194 16.1673 22.194C16.0437 22.194 15.9352 22.2269 15.8418 22.2929C15.7484 22.3588 15.6757 22.4453 15.6235 22.5524V24.1406H15.2424V21.9118H15.6029Z" fill="black"/>
<path d="M18.9462 23.9202C18.7978 24.0946 18.5802 24.1818 18.2932 24.1818C18.0556 24.1818 17.8743 24.1132 17.7493 23.9758C17.6257 23.8371 17.5632 23.6325 17.5619 23.362V21.9118H17.943V23.3517C17.943 23.6895 18.0803 23.8584 18.3549 23.8584C18.6461 23.8584 18.8397 23.7499 18.9359 23.5329V21.9118H19.3169V24.1406H18.9544L18.9462 23.9202Z" fill="black"/>
<path d="M20.2563 21.9118L20.2666 22.159C20.43 21.9667 20.6504 21.8706 20.9278 21.8706C21.2395 21.8706 21.4517 21.9901 21.5643 22.229C21.6385 22.1219 21.7346 22.0354 21.8527 21.9695C21.9722 21.9035 22.113 21.8706 22.275 21.8706C22.7639 21.8706 23.0125 22.1294 23.0207 22.6472V24.1406H22.6396V22.6698C22.6396 22.5105 22.6032 22.3917 22.5304 22.3135C22.4577 22.2338 22.3354 22.194 22.1638 22.194C22.0223 22.194 21.9049 22.2366 21.8115 22.3217C21.7181 22.4055 21.6639 22.5188 21.6488 22.6616V24.1406H21.2656V22.6801C21.2656 22.356 21.107 22.194 20.7898 22.194C20.5399 22.194 20.3689 22.3004 20.2769 22.5133V24.1406H19.8958V21.9118H20.2563Z" fill="black"/>
</svg>
